<svg width="22" height="22" viewBox="0 0 22 22" fill="none" xmlns="http://www.w3.org/2000/svg">
<path d="M22.005 -0.00268555V4.99845H21.0048V6.99891H20.0045V7.99913H19.0043V6.99891H18.0041V5.99868H17.0039V4.99845H16.0036V3.99822H15.0034V2.998H14.0032V1.99777H15.0034V0.997542H17.0039V-0.00268555H22.005Z" fill="#1AE371"/>
<path d="M10.0023 12V14.0005H9.00211V15.0007H8.00189V16.0009H7.00166V17.0011H6.00143V18.0014H4.00098V16.0009H5.0012V15.0007H6.00143V14.0005H7.00166V13.0002H8.00189V12H10.0023Z" fill="#1AE371"/>
<path d="M18.0041 7.99918V6.99896H17.0039V5.99873H16.0036V4.9985H15.0034V3.99827H14.0032V2.99805H13.003V3.99827H12.0027V4.9985H11.0025V5.99873H10.0023V6.99896H9.00205V7.99918H3.00068V8.99941H2.00045V9.99964H1.00023V10.9999H0V13.0003H4.00091V12.0001H5.00114V10.9999H6.00136V9.99964H7.00159V8.99941H8.00182V9.99964H7.00159V10.9999H6.00136V13.0003H7.00159V12.0001H8.00182V10.9999H11.0025V14.0005H10.0023V15.0008H9.00205V16.001H11.0025V15.0008H12.0027V14.0005H13.003V15.0008H12.0027V16.001H11.0025V17.0012H10.0023V18.0015H9.00205V22.0024H11.0025V21.0021H12.0027V20.0019H13.003V19.0017H14.0032V13.0003H15.0034V12.0001H16.0036V10.9999H17.0039V9.99964H18.0041V8.99941H19.0043V7.99918H18.0041ZM16.0036 6.99896V8.99941H15.0034V9.99964H13.003V8.99941H12.0027V6.99896H13.003V5.99873H15.0034V6.99896H16.0036Z" fill="#1AE371"/>
</svg>
