<svg width="24" height="24" viewBox="0 0 24 24" fill="none" xmlns="http://www.w3.org/2000/svg">
<path d="M17 8V10H16V11H15V13H16V14H17V16H16V17H14V16H13V15H11V16H10V17H8V16H7V14H8V13H9V11H8V10H7V8H8V7H10V8H11V9H13V8H14V7H16V8H17Z" fill="#FA2256"/>
<path d="M22 8V7H21V6H20V5H19V4H18V3H17V2H16V1H8V2H7V3H6V4H5V5H4V6H3V7H2V8H1V16H2V17H3V18H4V19H5V20H6V21H7V22H8V23H16V22H17V21H18V20H19V19H20V18H21V17H22V16H23V8H22ZM20 15V16H19V17H18V18H17V19H16V20H15V21H9V20H8V19H7V18H6V17H5V16H4V15H3V9H4V8H5V7H6V6H7V5H8V4H9V3H15V4H16V5H17V6H18V7H19V8H20V9H21V15H20Z" fill="#FA2256"/>
</svg>
