<svg width="24" height="24" viewBox="0 0 24 24" fill="none" xmlns="http://www.w3.org/2000/svg">
<path d="M22 10V9H21V5H20V4H19V3H15V2H14V1H10V2H9V3H5V4H4V5H3V9H2V10H1V14H2V15H3V19H4V20H5V21H9V22H10V23H14V22H15V21H19V20H20V19H21V15H22V14H23V10H22ZM21 14H20V15H19V19H15V20H14V21H10V20H9V19H5V15H4V14H3V10H4V9H5V5H9V4H10V3H14V4H15V5H19V9H20V10H21V14Z" fill="#FF8DF7"/>
<path d="M17 9V11H16V12H15V13H14V14H13V15H12V16H10V15H9V14H8V13H7V11H8V10H9V11H10V12H12V11H13V10H14V9H15V8H16V9H17Z" fill="#FF8DF7"/>
</svg>
