<svg width="20" height="20" viewBox="0 0 20 20" fill="none" xmlns="http://www.w3.org/2000/svg">
<path d="M16.9911 6.88063C16.7762 6.67319 11.887 0.719731 11.5141 1.0103H4.05586C2.9218 1.0103 2 1.93209 2 3.06616V17.944C2 19.0781 2.9218 19.9999 4.05586 19.9999H14.9957C16.1298 19.9999 17.0516 19.0781 17.0516 17.944V7.16377C17.0438 7.06914 17.0352 6.96709 16.9911 6.88063ZM14.8332 6.47577H12.8931C12.5135 6.47577 12.2051 6.16739 12.2051 5.78776V3.51481L14.8332 6.47577ZM15.6755 17.9466C15.6755 18.3211 15.3701 18.6265 14.9957 18.6265H4.05586C3.68143 18.6265 3.37602 18.3211 3.37602 17.9466V3.06875C3.37602 2.69432 3.68143 2.38891 4.05586 2.38891H10.8287V5.78776C10.8287 6.92702 11.7535 7.85178 12.8927 7.85178H15.6752C15.6755 7.85215 15.6755 17.9466 15.6755 17.9466Z" fill="white"/>
<path d="M6.87392 10.7196H12.1802C12.5598 10.7196 12.8682 10.4112 12.8682 10.0316C12.8682 9.65195 12.5598 9.34357 12.1802 9.34357H6.87392C6.49429 9.34357 6.18591 9.65195 6.18591 10.0316C6.18591 10.4112 6.49429 10.7196 6.87392 10.7196Z" fill="white"/>
<path d="M6.87392 13.1224H12.1802C12.5598 13.1224 12.8682 12.814 12.8682 12.4344C12.8682 12.0548 12.5598 11.7464 12.1802 11.7464H6.87392C6.49429 11.7464 6.18591 12.0548 6.18591 12.4344C6.18591 12.814 6.49429 13.1224 6.87392 13.1224Z" fill="white"/>
<path d="M9.52724 14.1489H6.87429C6.49466 14.1489 6.18628 14.4572 6.18628 14.8369C6.18628 15.2165 6.49466 15.5249 6.87429 15.5249H9.52724C9.90686 15.5249 10.2152 15.2165 10.2152 14.8369C10.2152 14.4572 9.90686 14.1489 9.52724 14.1489Z" fill="white"/>
<path d="M11.5801 16.879C11.5801 17.2586 11.8885 17.567 12.2681 17.567H13.6552C14.0349 17.567 14.3432 17.2586 14.3432 16.879C14.3432 16.4994 14.0349 16.191 13.6552 16.191H12.2681C11.8885 16.191 11.5801 16.499 11.5801 16.879Z" fill="white"/>
</svg>
