<svg width="13" height="12" viewBox="0 0 13 12" fill="none" xmlns="http://www.w3.org/2000/svg">
<g clip-path="url(#clip0_4201_9552)">
<path d="M7.23719 0H7.2778C7.41109 0.0242754 7.54704 0.0163307 7.68077 0.0172135C8.29339 0.0194203 8.89807 0.0882742 9.49657 0.214948C10.2182 0.367662 10.9196 0.582169 11.5732 0.932617C11.97 1.14536 12.3319 1.40047 12.6268 1.74827C12.9216 2.09607 13.0395 2.49286 13.0002 2.94174C12.9666 3.32353 12.7742 3.62807 12.5226 3.9004C12.1792 4.27247 11.756 4.53244 11.2996 4.74077C10.4747 5.11726 9.59985 5.30616 8.70564 5.42004C8.19497 5.48492 7.68254 5.51493 7.16746 5.52508C6.86291 5.53082 6.55792 5.52773 6.25514 5.51405C5.26117 5.46903 4.28133 5.32558 3.3262 5.03649C2.76213 4.86612 2.2241 4.63925 1.73727 4.30204C1.42213 4.08313 1.15554 3.81874 0.958688 3.48551C0.869972 3.33544 0.839076 3.1739 0.824069 3.00618C0.822745 2.9925 0.822745 2.97881 0.813477 2.96778V2.56128C0.8404 2.46947 0.835986 2.37193 0.862027 2.28057C0.900868 2.14551 0.975901 2.0281 1.05711 1.91511C1.34312 1.51964 1.72623 1.23893 2.14686 1.00544C3.01371 0.523908 3.95427 0.271443 4.92529 0.111667C5.31458 0.0476681 5.70608 0.0291305 6.09934 0.0194203C6.23793 0.0158894 6.37608 0.00838605 6.51467 0.0105929H7.06109C7.11979 0.00529645 7.17937 0.0207444 7.23719 0Z" fill="#FCD845"/>
<path d="M0.813477 9.00577C0.859379 8.9175 0.861145 8.81642 0.89513 8.72373C0.950302 8.57234 1.02489 8.43375 1.13082 8.31193C1.17055 8.26603 1.20144 8.26427 1.24646 8.30884C1.76949 8.82481 2.4108 9.14127 3.09095 9.388C3.86909 9.67048 4.67636 9.82584 5.49643 9.91676C6.13685 9.98782 6.78082 10.0042 7.42345 9.97767C8.53438 9.93177 9.62722 9.77023 10.6799 9.39285C11.2956 9.17217 11.8795 8.89146 12.3792 8.45803C12.4379 8.40727 12.4935 8.35254 12.5495 8.29825C12.5804 8.26824 12.6074 8.26206 12.6285 8.3062C12.7446 8.5463 12.8942 8.77184 12.9477 9.03976C13.0174 9.39197 12.9282 9.71241 12.7455 10.0103C12.4944 10.4208 12.1249 10.7042 11.7171 10.9421C11.0184 11.3499 10.2562 11.5843 9.46965 11.748C8.86541 11.8738 8.25455 11.9449 7.63796 11.9784C7.21115 12.0014 6.78391 12.0075 6.35842 11.989C5.15039 11.9356 3.96796 11.7432 2.84069 11.2832C2.27883 11.0542 1.75051 10.7668 1.31841 10.3303C1.11405 10.1238 0.951184 9.88719 0.867765 9.60383C0.849669 9.54204 0.832014 9.48024 0.832014 9.41492C0.809504 9.37564 0.839076 9.32885 0.813477 9.29045V9.00577Z" fill="#FFF8D9"/>
<path d="M0.831479 5.71152C0.868113 5.45243 0.989931 5.23175 1.13735 5.02165C1.17045 4.97487 1.19693 4.96781 1.24107 5.01018C1.97022 5.71284 2.87812 6.06417 3.8328 6.31973C4.4953 6.49716 5.17104 6.59558 5.85472 6.6512C6.36539 6.69269 6.87694 6.70372 7.38761 6.68342C8.49192 6.64016 9.57857 6.48127 10.6273 6.11625C11.2094 5.91367 11.762 5.65237 12.2506 5.26971C12.3521 5.19026 12.4501 5.10684 12.5393 5.01415C12.5658 4.98679 12.5971 4.95324 12.6254 5.00974C12.7472 5.25117 12.8972 5.48068 12.948 5.75212C13.0133 6.10346 12.9246 6.42522 12.7406 6.72226C12.4837 7.13715 12.1067 7.42316 11.6914 7.66061C10.8952 8.11567 10.027 8.35754 9.13146 8.51731C8.22401 8.6793 7.3086 8.73182 6.38967 8.69563C5.17104 8.64796 3.97801 8.45067 2.8406 7.98855C2.28491 7.76257 1.75968 7.48097 1.33244 7.04976C1.0813 6.79641 0.882678 6.50687 0.83192 6.14009C0.807204 6.10213 0.838541 6.0549 0.8125 6.01695V5.81347C0.837217 5.78302 0.809852 5.7433 0.831479 5.71152Z" fill="#FFF8D9"/>
</g>
<defs>
<clipPath id="clip0_4201_9552">
<rect width="12.1875" height="12" fill="white" transform="translate(0.8125)"/>
</clipPath>
</defs>
</svg>
