<svg width="20" height="20" viewBox="0 0 20 20" fill="none" xmlns="http://www.w3.org/2000/svg">
<path d="M4.73663 10.9526L10.4383 13.8384L18.3333 9.71674V12.0442C18.3333 12.6442 17.9875 13.1951 17.4308 13.4859L12.1341 16.2526C11.6096 16.5239 11.0279 16.6661 10.4374 16.6672C9.84692 16.6684 9.26467 16.5285 8.73913 16.2592L3.97913 13.7984C2.55246 13.0601 1.66663 11.6501 1.66663 10.1209M1.66663 10.1209C1.66663 8.41924 3.57163 7.31257 5.18996 8.0734L10.4383 10.5401L18.3333 6.41757L13.1 3.81257C12.4176 3.47576 11.6628 3.31219 10.9022 3.33631C10.1417 3.36044 9.39876 3.57152 8.73913 3.9509L3.52496 6.98507C2.36913 7.6584 1.66663 8.8434 1.66663 10.1209Z" stroke="white" stroke-width="1.5" stroke-linecap="round" stroke-linejoin="round"/>
</svg>
