<svg width="325" height="157" viewBox="0 0 325 157" fill="none" xmlns="http://www.w3.org/2000/svg">
<rect opacity="0.04" x="265.685" y="127" width="29.6024" height="29.6024" fill="#FF8DF7" fill-opacity="0.57"/>
<rect opacity="0.04" x="235.287" y="5" width="29.6024" height="29.6024" fill="#FF8DF7" fill-opacity="0.73"/>
<rect opacity="0.04" x="294.89" y="5" width="29.6024" height="29.6024" fill="#FF8DF7"/>
<g opacity="0.16">
<rect x="43" y="32" width="16" height="16" fill="#FF8DF7" fill-opacity="0.52"/>
<rect y="133" width="26" height="18" fill="#FF8DF7" fill-opacity="0.52"/>
</g>
<rect opacity="0.04" x="265.492" y="34" width="29.6024" height="29.6024" fill="#FF8DF7"/>
<rect opacity="0.04" x="295.094" y="97" width="29.6024" height="29.6024" fill="#FF8DF7"/>
<g clip-path="url(#clip0_1534_16404)">
<g opacity="0.12">
<path d="M100.177 130.367H93.4508V137.094H100.177V130.367Z" fill="#BF8AB8"/>
<path d="M100.177 123.639H93.4508V130.366H100.177V123.639Z" fill="#BF8AB8"/>
<path d="M100.177 116.915H93.4508V123.641H100.177V116.915Z" fill="#72466C"/>
<path d="M100.177 110.185H93.4508V116.912H100.177V110.185Z" fill="#732F3B"/>
<path d="M100.177 103.462H93.4508V110.188H100.177V103.462Z" fill="#91588A"/>
<path d="M100.177 96.7342H93.4508V103.461H100.177V96.7342Z" fill="#732F3B"/>
<path d="M100.177 90.0062H93.4508V96.7329H100.177V90.0062Z" fill="#72466C"/>
<path d="M100.177 83.28H93.4508V90.0068H100.177V83.28Z" fill="#BF8AB8"/>
<path d="M100.177 76.5532H93.4508V83.2799H100.177V76.5532Z" fill="#BF8AB8"/>
<path d="M100.177 69.8264H93.4508V76.5531H100.177V69.8264Z" fill="#BF8AB8"/>
<path d="M100.177 63.0985H93.4508V69.8252H100.177V63.0985Z" fill="#AEB8BA"/>
<path d="M100.177 56.3729H93.4508V63.0995H100.177V56.3729Z" fill="#AEB8BA"/>
<path d="M100.177 49.6449H93.4508V56.3716H100.177V49.6449Z" fill="#AEB8BA"/>
<path d="M100.177 42.9043H93.4508V49.6446H100.177V42.9043Z" fill="#794D72"/>
<path d="M106.903 130.367H100.177V137.094H106.903V130.367Z" fill="#BF8AB8"/>
<path d="M106.903 123.639H100.177V130.366H106.903V123.639Z" fill="#BF8AB8"/>
<path d="M106.903 116.915H100.177V123.641H106.903V116.915Z" fill="#72466C"/>
<path d="M106.903 110.185H100.177V116.912H106.903V110.185Z" fill="#732F3B"/>
<path d="M106.903 103.462H100.177V110.188H106.903V103.462Z" fill="#91588A"/>
<path d="M106.903 96.7342H100.177V103.461H106.903V96.7342Z" fill="#732F3B"/>
<path d="M106.903 90.0062H100.177V96.7329H106.903V90.0062Z" fill="#72466C"/>
<path d="M106.903 83.28H100.177V90.0068H106.903V83.28Z" fill="#BF8AB8"/>
<path d="M106.903 76.5532H100.177V83.2799H106.903V76.5532Z" fill="#BF8AB8"/>
<path d="M106.903 69.8264H100.177V76.5531H106.903V69.8264Z" fill="#BF8AB8"/>
<path d="M106.903 63.0985H100.177V69.8252H106.903V63.0985Z" fill="#EDEFEF"/>
<path d="M106.903 56.3729H100.177V63.0995H106.903V56.3729Z" fill="#EDEFEF"/>
<path d="M106.903 49.6449H100.177V56.3716H106.903V49.6449Z" fill="#732F3B"/>
<path d="M106.903 42.9043H100.177V49.6446H106.903V42.9043Z" fill="#794D72"/>
<path d="M113.633 130.367H106.907V137.094H113.633V130.367Z" fill="#BF8AB8"/>
<path d="M113.633 123.639H106.907V130.366H113.633V123.639Z" fill="#BF8AB8"/>
<path d="M113.633 116.915H106.907V123.641H113.633V116.915Z" fill="#72466C"/>
<path d="M113.633 110.185H106.907V116.912H113.633V110.185Z" fill="#732F3B"/>
<path d="M113.633 103.462H106.907V110.188H113.633V103.462Z" fill="#91588A"/>
<path d="M113.633 96.7342H106.907V103.461H113.633V96.7342Z" fill="#732F3B"/>
<path d="M113.633 90.0062H106.907V96.7329H113.633V90.0062Z" fill="#72466C"/>
<path d="M113.633 83.28H106.907V90.0068H113.633V83.28Z" fill="#BF8AB8"/>
<path d="M113.633 76.5532H106.907V83.2799H113.633V76.5532Z" fill="#BF8AB8"/>
<path d="M113.633 69.8264H106.907V76.5531H113.633V69.8264Z" fill="#BF8AB8"/>
<path d="M113.633 63.0985H106.907V69.8252H113.633V63.0985Z" fill="#EDEFEF"/>
<path d="M113.633 56.3729H106.907V63.0995H113.633V56.3729Z" fill="#EDEFEF"/>
<path d="M113.633 49.6449H106.907V56.3716H113.633V49.6449Z" fill="#AEB8BA"/>
<path d="M113.633 42.9043H106.907V49.6446H113.633V42.9043Z" fill="#794D72"/>
<path d="M120.357 130.367H113.63V137.094H120.357V130.367Z" fill="#BF8AB8"/>
<path d="M120.357 123.639H113.63V130.366H120.357V123.639Z" fill="#BF8AB8"/>
<path d="M120.357 116.915H113.63V123.641H120.357V116.915Z" fill="#72466C"/>
<path d="M120.357 110.185H113.63V116.912H120.357V110.185Z" fill="#732F3B"/>
<path d="M120.357 103.462H113.63V110.188H120.357V103.462Z" fill="#91588A"/>
<path d="M120.357 96.7342H113.63V103.461H120.357V96.7342Z" fill="#732F3B"/>
<path d="M120.357 90.0062H113.63V96.7329H120.357V90.0062Z" fill="#72466C"/>
<path d="M120.357 83.28H113.63V90.0068H120.357V83.28Z" fill="#BF8AB8"/>
<path d="M120.357 76.5532H113.63V83.2799H120.357V76.5532Z" fill="#BF8AB8"/>
<path d="M120.357 69.8264H113.63V76.5531H120.357V69.8264Z" fill="#BF8AB8"/>
<path d="M120.357 63.0985H113.63V69.8252H120.357V63.0985Z" fill="#EDEFEF"/>
<path d="M120.357 56.3729H113.63V63.0995H120.357V56.3729Z" fill="#EDEFEF"/>
<path d="M120.357 49.6449H113.63V56.3716H120.357V49.6449Z" fill="#794D72"/>
<path d="M120.357 42.9043H113.63V49.6446H120.357V42.9043Z" fill="#794D72"/>
<path d="M127.085 130.367H120.358V137.094H127.085V130.367Z" fill="#965F8E"/>
<path d="M127.085 123.639H120.358V130.366H127.085V123.639Z" fill="#965F8E"/>
<path d="M127.085 116.915H120.358V123.641H127.085V116.915Z" fill="#BF8AB8"/>
<path d="M127.085 110.185H120.358V116.912H127.085V110.185Z" fill="#52364F"/>
<path d="M127.085 103.462H120.358V110.188H127.085V103.462Z" fill="#965F8E"/>
<path d="M127.085 96.7342H120.358V103.461H127.085V96.7342Z" fill="#52364F"/>
<path d="M127.085 90.0062H120.358V96.7329H127.085V90.0062Z" fill="#BF8AB8"/>
<path d="M127.085 83.28H120.358V90.0068H127.085V83.28Z" fill="#965F8E"/>
<path d="M127.085 76.5532H120.358V83.2799H127.085V76.5532Z" fill="#965F8E"/>
<path d="M127.085 69.8264H120.358V76.5531H127.085V69.8264Z" fill="#965F8E"/>
<path d="M127.085 63.0985H120.358V69.8252H127.085V63.0985Z" fill="#EDEFEF"/>
<path d="M127.085 56.3729H120.358V63.0995H127.085V56.3729Z" fill="#AEB8BA"/>
<path d="M127.085 49.6449H120.358V56.3716H127.085V49.6449Z" fill="#AEB8BA"/>
<path d="M127.085 42.9043H120.358V49.6446H127.085V42.9043Z" fill="#794D72"/>
<path d="M133.81 130.367H127.084V137.094H133.81V130.367Z" fill="#965F8E"/>
<path d="M133.81 123.639H127.084V130.366H133.81V123.639Z" fill="#965F8E"/>
<path d="M133.81 116.915H127.084V123.641H133.81V116.915Z" fill="#BF8AB8"/>
<path d="M133.81 110.185H127.084V116.912H133.81V110.185Z" fill="#52364F"/>
<path d="M133.81 103.462H127.084V110.188H133.81V103.462Z" fill="#965F8E"/>
<path d="M133.81 96.7342H127.084V103.461H133.81V96.7342Z" fill="#52364F"/>
<path d="M133.81 90.0062H127.084V96.7329H133.81V90.0062Z" fill="#BF8AB8"/>
<path d="M133.81 83.28H127.084V90.0068H133.81V83.28Z" fill="#965F8E"/>
<path d="M133.81 76.5532H127.084V83.2799H133.81V76.5532Z" fill="#965F8E"/>
<path d="M133.81 69.8264H127.084V76.5531H133.81V69.8264Z" fill="#965F8E"/>
<path d="M133.81 63.0985H127.084V69.8252H133.81V63.0985Z" fill="#EDEFEF"/>
<path d="M133.81 56.3729H127.084V63.0995H133.81V56.3729Z" fill="#EDEFEF"/>
<path d="M133.81 49.6449H127.084V56.3716H133.81V49.6449Z" fill="#732F3B"/>
<path d="M133.81 42.9043H127.084V49.6446H133.81V42.9043Z" fill="#794D72"/>
<path d="M133.81 36.1775H127.084V42.9042H133.81V36.1775Z" fill="#794D72"/>
<path d="M133.81 29.4518H127.084V36.1785H133.81V29.4518Z" fill="#794D72"/>
<path d="M133.81 22.7239H127.084V29.4507H133.81V22.7239Z" fill="#794D72"/>
<path d="M133.81 16H127.084V22.7267H133.81V16Z" fill="#794D72"/>
<path d="M140.538 130.367H133.812V137.094H140.538V130.367Z" fill="#965F8E"/>
<path d="M140.538 123.639H133.812V130.366H140.538V123.639Z" fill="#965F8E"/>
<path d="M140.538 116.915H133.812V123.641H140.538V116.915Z" fill="#BF8AB8"/>
<path d="M140.538 110.185H133.812V116.912H140.538V110.185Z" fill="#52364F"/>
<path d="M140.538 103.462H133.812V110.188H140.538V103.462Z" fill="#965F8E"/>
<path d="M140.538 96.7342H133.812V103.461H140.538V96.7342Z" fill="#52364F"/>
<path d="M140.538 90.0062H133.812V96.7329H140.538V90.0062Z" fill="#BF8AB8"/>
<path d="M140.538 83.28H133.812V90.0068H140.538V83.28Z" fill="#965F8E"/>
<path d="M140.538 76.5532H133.812V83.2799H140.538V76.5532Z" fill="#965F8E"/>
<path d="M140.538 69.8264H133.812V76.5531H140.538V69.8264Z" fill="#965F8E"/>
<path d="M140.538 63.0985H133.812V69.8252H140.538V63.0985Z" fill="#EDEFEF"/>
<path d="M140.538 56.3729H133.812V63.0995H140.538V56.3729Z" fill="#EDEFEF"/>
<path d="M140.538 49.6449H133.812V56.3716H140.538V49.6449Z" fill="#AEB8BA"/>
<path d="M140.538 42.9043H133.812V49.6446H140.538V42.9043Z" fill="#794D72"/>
<path d="M140.538 36.1775H133.812V42.9042H140.538V36.1775Z" fill="#794D72"/>
<path d="M140.538 29.4518H133.812V36.1785H140.538V29.4518Z" fill="#29632D"/>
<path d="M140.538 22.7239H133.812V29.4507H140.538V22.7239Z" fill="#57995E"/>
<path d="M140.538 16H133.812V22.7267H140.538V16Z" fill="#794D72"/>
<path d="M147.264 130.367H140.537V137.094H147.264V130.367Z" fill="#965F8E"/>
<path d="M147.264 123.639H140.537V130.366H147.264V123.639Z" fill="#965F8E"/>
<path d="M147.264 116.915H140.537V123.641H147.264V116.915Z" fill="#BF8AB8"/>
<path d="M147.264 110.185H140.537V116.912H147.264V110.185Z" fill="#52364F"/>
<path d="M147.264 103.462H140.537V110.188H147.264V103.462Z" fill="#965F8E"/>
<path d="M147.264 96.7342H140.537V103.461H147.264V96.7342Z" fill="#52364F"/>
<path d="M147.264 90.0062H140.537V96.7329H147.264V90.0062Z" fill="#BF8AB8"/>
<path d="M147.264 83.28H140.537V90.0068H147.264V83.28Z" fill="#965F8E"/>
<path d="M147.264 76.5532H140.537V83.2799H147.264V76.5532Z" fill="#965F8E"/>
<path d="M147.264 69.8264H140.537V76.5531H147.264V69.8264Z" fill="#965F8E"/>
<path d="M147.264 63.0985H140.537V69.8252H147.264V63.0985Z" fill="#EDEFEF"/>
<path d="M147.264 56.3729H140.537V63.0995H147.264V56.3729Z" fill="#EDEFEF"/>
<path d="M147.264 49.6449H140.537V56.3716H147.264V49.6449Z" fill="#52364F"/>
<path d="M147.264 42.9043H140.537V49.6446H147.264V42.9043Z" fill="#52364F"/>
<path d="M147.264 36.1775H140.537V42.9042H147.264V36.1775Z" fill="#91588A"/>
<path d="M147.264 29.4518H140.537V36.1785H147.264V29.4518Z" fill="#29632D"/>
<path d="M147.264 22.7239H140.537V29.4507H147.264V22.7239Z" fill="#57995E"/>
<path d="M147.264 16H140.537V22.7267H147.264V16Z" fill="#57995E"/>
<path d="M153.994 130.367H147.267V137.094H153.994V130.367Z" fill="#965F8E"/>
<path d="M153.994 123.639H147.267V130.366H153.994V123.639Z" fill="#965F8E"/>
<path d="M153.994 116.915H147.267V123.641H153.994V116.915Z" fill="#BF8AB8"/>
<path d="M153.994 110.185H147.267V116.912H153.994V110.185Z" fill="#52364F"/>
<path d="M153.994 103.462H147.267V110.188H153.994V103.462Z" fill="#965F8E"/>
<path d="M153.994 96.7342H147.267V103.461H153.994V96.7342Z" fill="#52364F"/>
<path d="M153.994 90.0062H147.267V96.7329H153.994V90.0062Z" fill="#BF8AB8"/>
<path d="M153.994 83.28H147.267V90.0068H153.994V83.28Z" fill="#965F8E"/>
<path d="M153.994 76.5532H147.267V83.2799H153.994V76.5532Z" fill="#965F8E"/>
<path d="M153.994 69.8264H147.267V76.5531H153.994V69.8264Z" fill="#965F8E"/>
<path d="M153.994 63.0985H147.267V69.8252H153.994V63.0985Z" fill="#EDEFEF"/>
<path d="M153.994 56.3729H147.267V63.0995H153.994V56.3729Z" fill="#AEB8BA"/>
<path d="M153.994 49.6449H147.267V56.3716H153.994V49.6449Z" fill="#AEB8BA"/>
<path d="M153.994 42.9043H147.267V49.6446H153.994V42.9043Z" fill="#732F3B"/>
<path d="M153.994 36.1775H147.267V42.9042H153.994V36.1775Z" fill="#91588A"/>
<path d="M153.994 29.4518H147.267V36.1785H153.994V29.4518Z" fill="#91588A"/>
<path d="M160.718 130.367H153.991V137.094H160.718V130.367Z" fill="#965F8E"/>
<path d="M160.718 123.639H153.991V130.366H160.718V123.639Z" fill="#965F8E"/>
<path d="M160.718 116.915H153.991V123.641H160.718V116.915Z" fill="#BF8AB8"/>
<path d="M160.718 110.185H153.991V116.912H160.718V110.185Z" fill="#52364F"/>
<path d="M160.718 103.462H153.991V110.188H160.718V103.462Z" fill="#965F8E"/>
<path d="M160.718 96.7342H153.991V103.461H160.718V96.7342Z" fill="#52364F"/>
<path d="M160.718 90.0062H153.991V96.7329H160.718V90.0062Z" fill="#BF8AB8"/>
<path d="M160.718 83.28H153.991V90.0068H160.718V83.28Z" fill="#965F8E"/>
<path d="M160.718 76.5532H153.991V83.2799H160.718V76.5532Z" fill="#965F8E"/>
<path d="M160.718 69.8264H153.991V76.5531H160.718V69.8264Z" fill="#965F8E"/>
<path d="M160.718 63.0985H153.991V69.8252H160.718V63.0985Z" fill="#EDEFEF"/>
<path d="M160.718 56.3729H153.991V63.0995H160.718V56.3729Z" fill="#EDEFEF"/>
<path d="M160.718 49.6449H153.991V56.3716H160.718V49.6449Z" fill="#AEB8BA"/>
<path d="M160.718 42.9043H153.991V49.6446H160.718V42.9043Z" fill="#732F3B"/>
<path d="M160.718 36.1775H153.991V42.9042H160.718V36.1775Z" fill="#732F3B"/>
<path d="M160.718 29.4518H153.991V36.1785H160.718V29.4518Z" fill="#91588A"/>
<path d="M167.445 130.367H160.719V137.094H167.445V130.367Z" fill="#965F8E"/>
<path d="M167.445 123.639H160.719V130.366H167.445V123.639Z" fill="#965F8E"/>
<path d="M167.445 116.915H160.719V123.641H167.445V116.915Z" fill="#BF8AB8"/>
<path d="M167.445 110.185H160.719V116.912H167.445V110.185Z" fill="#52364F"/>
<path d="M167.445 103.462H160.719V110.188H167.445V103.462Z" fill="#965F8E"/>
<path d="M167.445 96.7342H160.719V103.461H167.445V96.7342Z" fill="#52364F"/>
<path d="M167.445 90.0062H160.719V96.7329H167.445V90.0062Z" fill="#BF8AB8"/>
<path d="M167.445 83.28H160.719V90.0068H167.445V83.28Z" fill="#965F8E"/>
<path d="M167.445 76.5532H160.719V83.2799H167.445V76.5532Z" fill="#965F8E"/>
<path d="M167.445 69.8264H160.719V76.5531H167.445V69.8264Z" fill="#965F8E"/>
<path d="M167.445 63.0985H160.719V69.8252H167.445V63.0985Z" fill="#EDEFEF"/>
<path d="M167.445 56.3729H160.719V63.0995H167.445V56.3729Z" fill="#EDEFEF"/>
<path d="M167.445 49.6449H160.719V56.3716H167.445V49.6449Z" fill="#AEB8BA"/>
<path d="M167.445 42.9043H160.719V49.6446H167.445V42.9043Z" fill="#732F3B"/>
<path d="M167.445 36.1775H160.719V42.9042H167.445V36.1775Z" fill="#732F3B"/>
<path d="M167.445 29.4518H160.719V36.1785H167.445V29.4518Z" fill="#732F3B"/>
<path d="M174.173 130.367H167.447V137.094H174.173V130.367Z" fill="#965F8E"/>
<path d="M174.173 123.639H167.447V130.366H174.173V123.639Z" fill="#965F8E"/>
<path d="M174.173 116.915H167.447V123.641H174.173V116.915Z" fill="#BF8AB8"/>
<path d="M174.173 110.185H167.447V116.912H174.173V110.185Z" fill="#52364F"/>
<path d="M174.173 103.462H167.447V110.188H174.173V103.462Z" fill="#965F8E"/>
<path d="M174.173 96.7342H167.447V103.461H174.173V96.7342Z" fill="#52364F"/>
<path d="M174.173 90.0062H167.447V96.7329H174.173V90.0062Z" fill="#BF8AB8"/>
<path d="M174.173 83.28H167.447V90.0068H174.173V83.28Z" fill="#965F8E"/>
<path d="M174.173 76.5532H167.447V83.2799H174.173V76.5532Z" fill="#965F8E"/>
<path d="M174.173 69.8264H167.447V76.5531H174.173V69.8264Z" fill="#965F8E"/>
<path d="M174.173 63.0985H167.447V69.8252H174.173V63.0985Z" fill="#EDEFEF"/>
<path d="M174.173 56.3729H167.447V63.0995H174.173V56.3729Z" fill="#EDEFEF"/>
<path d="M174.173 49.6449H167.447V56.3716H174.173V49.6449Z" fill="#732F3B"/>
<path d="M174.173 42.9043H167.447V49.6446H174.173V42.9043Z" fill="#732F3B"/>
<path d="M180.899 130.367H174.172V137.094H180.899V130.367Z" fill="#965F8E"/>
<path d="M180.899 123.639H174.172V130.366H180.899V123.639Z" fill="#965F8E"/>
<path d="M180.899 116.915H174.172V123.641H180.899V116.915Z" fill="#BF8AB8"/>
<path d="M180.899 110.185H174.172V116.912H180.899V110.185Z" fill="#52364F"/>
<path d="M180.899 103.462H174.172V110.188H180.899V103.462Z" fill="#965F8E"/>
<path d="M180.899 96.7342H174.172V103.461H180.899V96.7342Z" fill="#52364F"/>
<path d="M180.899 90.0062H174.172V96.7329H180.899V90.0062Z" fill="#BF8AB8"/>
<path d="M180.899 83.28H174.172V90.0068H180.899V83.28Z" fill="#965F8E"/>
<path d="M180.899 76.5532H174.172V83.2799H180.899V76.5532Z" fill="#965F8E"/>
<path d="M180.899 69.8264H174.172V76.5531H180.899V69.8264Z" fill="#965F8E"/>
<path d="M180.899 63.0985H174.172V69.8252H180.899V63.0985Z" fill="#EDEFEF"/>
<path d="M180.899 56.3729H174.172V63.0995H180.899V56.3729Z" fill="#AEB8BA"/>
<path d="M180.899 49.6449H174.172V56.3716H180.899V49.6449Z" fill="#AEB8BA"/>
<path d="M187.641 130.367H180.9V137.094H187.641V130.367Z" fill="#965F8E"/>
<path d="M187.641 123.639H180.9V130.366H187.641V123.639Z" fill="#965F8E"/>
<path d="M187.641 116.915H180.9V123.641H187.641V116.915Z" fill="#BF8AB8"/>
<path d="M187.641 110.185H180.9V116.912H187.641V110.185Z" fill="#52364F"/>
<path d="M187.641 103.462H180.9V110.188H187.641V103.462Z" fill="#965F8E"/>
<path d="M187.641 96.7342H180.9V103.461H187.641V96.7342Z" fill="#52364F"/>
<path d="M187.641 90.0062H180.9V96.7329H187.641V90.0062Z" fill="#BF8AB8"/>
<path d="M187.641 83.28H180.9V90.0068H187.641V83.28Z" fill="#965F8E"/>
<path d="M187.641 76.5532H180.9V83.2799H187.641V76.5532Z" fill="#965F8E"/>
<path d="M187.641 69.8264H180.9V76.5531H187.641V69.8264Z" fill="#965F8E"/>
<path d="M187.641 63.0985H180.9V69.8252H187.641V63.0985Z" fill="#EDEFEF"/>
<path d="M187.641 56.3729H180.9V63.0995H187.641V56.3729Z" fill="#EDEFEF"/>
<path d="M187.641 49.6449H180.9V56.3716H187.641V49.6449Z" fill="#732F3B"/>
<path d="M194.366 130.367H187.64V137.094H194.366V130.367Z" fill="#965F8E"/>
<path d="M194.366 123.639H187.64V130.366H194.366V123.639Z" fill="#965F8E"/>
<path d="M194.366 116.915H187.64V123.641H194.366V116.915Z" fill="#BF8AB8"/>
<path d="M194.366 110.185H187.64V116.912H194.366V110.185Z" fill="#52364F"/>
<path d="M194.366 103.462H187.64V110.188H194.366V103.462Z" fill="#965F8E"/>
<path d="M194.366 96.7342H187.64V103.461H194.366V96.7342Z" fill="#52364F"/>
<path d="M194.366 90.0062H187.64V96.7329H194.366V90.0062Z" fill="#BF8AB8"/>
<path d="M194.366 83.28H187.64V90.0068H194.366V83.28Z" fill="#965F8E"/>
<path d="M194.366 76.5532H187.64V83.2799H194.366V76.5532Z" fill="#965F8E"/>
<path d="M194.366 69.8264H187.64V76.5531H194.366V69.8264Z" fill="#965F8E"/>
<path d="M194.366 63.0985H187.64V69.8252H194.366V63.0985Z" fill="#EDEFEF"/>
<path d="M194.366 56.3729H187.64V63.0995H194.366V56.3729Z" fill="#EDEFEF"/>
<path d="M194.366 49.6449H187.64V56.3716H194.366V49.6449Z" fill="#AEB8BA"/>
<path d="M201.092 130.367H194.365V137.094H201.092V130.367Z" fill="#965F8E"/>
<path d="M201.092 123.639H194.365V130.366H201.092V123.639Z" fill="#965F8E"/>
<path d="M201.092 116.915H194.365V123.641H201.092V116.915Z" fill="#BF8AB8"/>
<path d="M201.092 110.185H194.365V116.912H201.092V110.185Z" fill="#52364F"/>
<path d="M201.092 103.462H194.365V110.188H201.092V103.462Z" fill="#965F8E"/>
<path d="M201.092 96.7342H194.365V103.461H201.092V96.7342Z" fill="#52364F"/>
<path d="M201.092 90.0062H194.365V96.7329H201.092V90.0062Z" fill="#BF8AB8"/>
<path d="M201.092 83.28H194.365V90.0068H201.092V83.28Z" fill="#965F8E"/>
<path d="M201.092 76.5532H194.365V83.2799H201.092V76.5532Z" fill="#965F8E"/>
<path d="M201.092 69.8264H194.365V76.5531H201.092V69.8264Z" fill="#965F8E"/>
<path d="M201.092 63.0985H194.365V69.8252H201.092V63.0985Z" fill="#EDEFEF"/>
<path d="M201.092 56.3729H194.365V63.0995H201.092V56.3729Z" fill="#EDEFEF"/>
<path d="M207.82 130.367H201.093V137.094H207.82V130.367Z" fill="#965F8E"/>
<path d="M207.82 123.639H201.093V130.366H207.82V123.639Z" fill="#965F8E"/>
<path d="M207.82 116.915H201.093V123.641H207.82V116.915Z" fill="#BF8AB8"/>
<path d="M207.82 110.185H201.093V116.912H207.82V110.185Z" fill="#52364F"/>
<path d="M207.82 103.462H201.093V110.188H207.82V103.462Z" fill="#965F8E"/>
<path d="M207.82 96.7342H201.093V103.461H207.82V96.7342Z" fill="#52364F"/>
<path d="M207.82 90.0062H201.093V96.7329H207.82V90.0062Z" fill="#BF8AB8"/>
<path d="M207.82 83.28H201.093V90.0068H207.82V83.28Z" fill="#965F8E"/>
<path d="M207.82 76.5532H201.093V83.2799H207.82V76.5532Z" fill="#965F8E"/>
<path d="M207.82 69.8264H201.093V76.5531H207.82V69.8264Z" fill="#965F8E"/>
<path d="M207.82 63.0985H201.093V69.8252H207.82V63.0985Z" fill="#EDEFEF"/>
<path d="M207.82 56.3729H201.093V63.0995H207.82V56.3729Z" fill="#AEB8BA"/>
<path d="M207.82 49.6449H201.093V56.3716H207.82V49.6449Z" fill="#AEB8BA"/>
<path d="M214.548 130.367H207.821V137.094H214.548V130.367Z" fill="#965F8E"/>
<path d="M214.548 123.639H207.821V130.366H214.548V123.639Z" fill="#965F8E"/>
<path d="M214.548 116.915H207.821V123.641H214.548V116.915Z" fill="#BF8AB8"/>
<path d="M214.548 110.185H207.821V116.912H214.548V110.185Z" fill="#52364F"/>
<path d="M214.548 103.462H207.821V110.188H214.548V103.462Z" fill="#965F8E"/>
<path d="M214.548 96.7342H207.821V103.461H214.548V96.7342Z" fill="#52364F"/>
<path d="M214.548 90.0062H207.821V96.7329H214.548V90.0062Z" fill="#BF8AB8"/>
<path d="M214.548 83.28H207.821V90.0068H214.548V83.28Z" fill="#965F8E"/>
<path d="M214.548 76.5532H207.821V83.2799H214.548V76.5532Z" fill="#965F8E"/>
<path d="M214.548 69.8264H207.821V76.5531H214.548V69.8264Z" fill="#965F8E"/>
<path d="M214.548 63.0985H207.821V69.8252H214.548V63.0985Z" fill="#EDEFEF"/>
<path d="M214.548 56.3729H207.821V63.0995H214.548V56.3729Z" fill="#EDEFEF"/>
<path d="M214.548 49.6449H207.821V56.3716H214.548V49.6449Z" fill="#732F3B"/>
<path d="M221.271 130.367H214.545V137.094H221.271V130.367Z" fill="#965F8E"/>
<path d="M221.271 123.639H214.545V130.366H221.271V123.639Z" fill="#965F8E"/>
<path d="M221.271 116.915H214.545V123.641H221.271V116.915Z" fill="#BF8AB8"/>
<path d="M221.271 110.185H214.545V116.912H221.271V110.185Z" fill="#52364F"/>
<path d="M221.271 103.462H214.545V110.188H221.271V103.462Z" fill="#965F8E"/>
<path d="M221.271 96.7342H214.545V103.461H221.271V96.7342Z" fill="#52364F"/>
<path d="M221.271 90.0062H214.545V96.7329H221.271V90.0062Z" fill="#BF8AB8"/>
<path d="M221.271 83.28H214.545V90.0068H221.271V83.28Z" fill="#965F8E"/>
<path d="M221.271 76.5532H214.545V83.2799H221.271V76.5532Z" fill="#965F8E"/>
<path d="M221.271 69.8264H214.545V76.5531H221.271V69.8264Z" fill="#965F8E"/>
<path d="M221.271 63.0985H214.545V69.8252H221.271V63.0985Z" fill="#EDEFEF"/>
<path d="M221.271 56.3729H214.545V63.0995H221.271V56.3729Z" fill="#EDEFEF"/>
<path d="M221.271 49.6449H214.545V56.3716H221.271V49.6449Z" fill="#AEB8BA"/>
<path d="M228.002 63.0985H221.275V69.8252H228.002V63.0985Z" fill="#EDEFEF"/>
<path d="M228.002 56.3729H221.275V63.0995H228.002V56.3729Z" fill="#EDEFEF"/>
</g>
<g opacity="0.12">
<path d="M80.6753 149.601H74.0756V156.201H80.6753V149.601Z" fill="#52A0B2"/>
<path d="M80.6753 142.999H74.0756V149.599H80.6753V142.999Z" fill="#52A0B2"/>
<path d="M80.6753 136.401H74.0756V143H80.6753V136.401Z" fill="#52A0B2"/>
<path d="M87.2745 149.601H80.6748V156.201H87.2745V149.601Z" fill="#52A0B2"/>
<path d="M87.2745 142.999H80.6748V149.599H87.2745V142.999Z" fill="#EDEFEF"/>
<path d="M87.2745 136.401H80.6748V143H87.2745V136.401Z" fill="#EDEFEF"/>
<path d="M93.8739 149.601H87.2742V156.201H93.8739V149.601Z" fill="#52A0B2"/>
<path d="M93.8739 142.999H87.2742V149.599H93.8739V142.999Z" fill="#EDEFEF"/>
<path d="M93.8739 136.401H87.2742V143H93.8739V136.401Z" fill="#EDEFEF"/>
<path d="M100.473 149.601H93.8734V156.201H100.473V149.601Z" fill="#AEB8BA"/>
<path d="M100.473 142.999H93.8734V149.599H100.473V142.999Z" fill="#EDEFEF"/>
<path d="M100.473 136.401H93.8734V143H100.473V136.401Z" fill="#EDEFEF"/>
<path d="M107.072 149.601H100.473V156.201H107.072V149.601Z" fill="#AEB8BA"/>
<path d="M107.072 142.999H100.473V149.599H107.072V142.999Z" fill="#EDEFEF"/>
<path d="M107.072 136.401H100.473V143H107.072V136.401Z" fill="#EDEFEF"/>
<path d="M113.674 149.601H107.074V156.201H113.674V149.601Z" fill="#AEB8BA"/>
<path d="M113.674 142.999H107.074V149.599H113.674V142.999Z" fill="#EDEFEF"/>
<path d="M113.674 136.401H107.074V143H113.674V136.401Z" fill="#EDEFEF"/>
<path d="M120.271 149.601H113.671V156.201H120.271V149.601Z" fill="#AEB8BA"/>
<path d="M120.271 142.999H113.671V149.599H120.271V142.999Z" fill="#EDEFEF"/>
<path d="M120.271 136.401H113.671V143H120.271V136.401Z" fill="#EDEFEF"/>
<path d="M126.872 149.601H120.273V156.201H126.872V149.601Z" fill="#AEB8BA"/>
<path d="M126.872 142.999H120.273V149.599H126.872V142.999Z" fill="#EDEFEF"/>
<path d="M126.872 136.401H120.273V143H126.872V136.401Z" fill="#EDEFEF"/>
<path d="M133.474 149.601H126.874V156.201H133.474V149.601Z" fill="#AEB8BA"/>
<path d="M133.474 142.999H126.874V149.599H133.474V142.999Z" fill="#EDEFEF"/>
<path d="M133.474 136.401H126.874V143H133.474V136.401Z" fill="#EDEFEF"/>
<path d="M140.073 149.601H133.474V156.201H140.073V149.601Z" fill="#AEB8BA"/>
<path d="M140.073 142.999H133.474V149.599H140.073V142.999Z" fill="#EDEFEF"/>
<path d="M140.073 136.401H133.474V143H140.073V136.401Z" fill="#EDEFEF"/>
<path d="M146.673 149.601H140.073V156.201H146.673V149.601Z" fill="#AEB8BA"/>
<path d="M146.673 142.999H140.073V149.599H146.673V142.999Z" fill="#EDEFEF"/>
<path d="M146.673 136.401H140.073V143H146.673V136.401Z" fill="#EDEFEF"/>
<path d="M153.27 149.601H146.67V156.201H153.27V149.601Z" fill="#AEB8BA"/>
<path d="M153.27 142.999H146.67V149.599H153.27V142.999Z" fill="#EDEFEF"/>
<path d="M153.27 136.401H146.67V143H153.27V136.401Z" fill="#EDEFEF"/>
<path d="M159.871 149.601H153.271V156.201H159.871V149.601Z" fill="#AEB8BA"/>
<path d="M159.871 142.999H153.271V149.599H159.871V142.999Z" fill="#EDEFEF"/>
<path d="M159.871 136.401H153.271V143H159.871V136.401Z" fill="#EDEFEF"/>
<path d="M166.473 149.601H159.873V156.201H166.473V149.601Z" fill="#AEB8BA"/>
<path d="M166.473 142.999H159.873V149.599H166.473V142.999Z" fill="#EDEFEF"/>
<path d="M166.473 136.401H159.873V143H166.473V136.401Z" fill="#EDEFEF"/>
<path d="M173.072 149.601H166.472V156.201H173.072V149.601Z" fill="#AEB8BA"/>
<path d="M173.072 142.999H166.472V149.599H173.072V142.999Z" fill="#EDEFEF"/>
<path d="M173.072 136.401H166.472V143H173.072V136.401Z" fill="#EDEFEF"/>
<path d="M179.674 149.601H173.074V156.201H179.674V149.601Z" fill="#AEB8BA"/>
<path d="M179.674 142.999H173.074V149.599H179.674V142.999Z" fill="#EDEFEF"/>
<path d="M179.674 136.401H173.074V143H179.674V136.401Z" fill="#EDEFEF"/>
<path d="M186.273 149.601H179.673V156.201H186.273V149.601Z" fill="#AEB8BA"/>
<path d="M186.273 142.999H179.673V149.599H186.273V142.999Z" fill="#EDEFEF"/>
<path d="M186.273 136.401H179.673V143H186.273V136.401Z" fill="#EDEFEF"/>
<path d="M192.885 149.601H186.272V156.201H192.885V149.601Z" fill="#AEB8BA"/>
<path d="M192.885 142.999H186.272V149.599H192.885V142.999Z" fill="#EDEFEF"/>
<path d="M192.885 136.401H186.272V143H192.885V136.401Z" fill="#EDEFEF"/>
<path d="M199.483 149.601H192.883V156.201H199.483V149.601Z" fill="#AEB8BA"/>
<path d="M199.483 142.999H192.883V149.599H199.483V142.999Z" fill="#EDEFEF"/>
<path d="M199.483 136.401H192.883V143H199.483V136.401Z" fill="#EDEFEF"/>
<path d="M206.082 149.601H199.482V156.201H206.082V149.601Z" fill="#AEB8BA"/>
<path d="M206.082 142.999H199.482V149.599H206.082V142.999Z" fill="#EDEFEF"/>
<path d="M206.082 136.401H199.482V143H206.082V136.401Z" fill="#EDEFEF"/>
<path d="M212.684 149.601H206.084V156.201H212.684V149.601Z" fill="#AEB8BA"/>
<path d="M212.684 142.999H206.084V149.599H212.684V142.999Z" fill="#EDEFEF"/>
<path d="M212.684 136.401H206.084V143H212.684V136.401Z" fill="#EDEFEF"/>
<path d="M219.283 149.601H212.683V156.201H219.283V149.601Z" fill="#AEB8BA"/>
<path d="M219.283 142.999H212.683V149.599H219.283V142.999Z" fill="#EDEFEF"/>
<path d="M219.283 136.401H212.683V143H219.283V136.401Z" fill="#EDEFEF"/>
<path d="M225.882 149.601H219.282V156.201H225.882V149.601Z" fill="#AEB8BA"/>
<path d="M225.882 142.999H219.282V149.599H225.882V142.999Z" fill="#EDEFEF"/>
<path d="M225.882 136.401H219.282V143H225.882V136.401Z" fill="#EDEFEF"/>
<path d="M232.481 149.601H225.882V156.201H232.481V149.601Z" fill="#AEB8BA"/>
<path d="M232.481 142.999H225.882V149.599H232.481V142.999Z" fill="#EDEFEF"/>
<path d="M232.481 136.401H225.882V143H232.481V136.401Z" fill="#EDEFEF"/>
<path d="M239.078 142.999H232.479V149.599H239.078V142.999Z" fill="#EDEFEF"/>
<path d="M239.078 136.401H232.479V143H239.078V136.401Z" fill="#EDEFEF"/>
<path d="M245.682 142.999H239.083V149.599H245.682V142.999Z" fill="#EDEFEF"/>
<path d="M245.682 136.401H239.083V143H245.682V136.401Z" fill="#EDEFEF"/>
</g>
</g>
<defs>
<clipPath id="clip0_1534_16404">
<rect width="178" height="134" fill="white" transform="translate(73 16)"/>
</clipPath>
</defs>
</svg>
