<svg width="16" height="12" viewBox="0 0 16 12" fill="none" xmlns="http://www.w3.org/2000/svg">
<path d="M7.79443 8.85918V9.5332H8.46845V8.85918H7.79443Z" fill="#1AE371"/>
<path d="M7.12036 8.85931V9.53333H7.79438V8.85931H7.12036Z" fill="#1AE371"/>
<path d="M6.44653 8.85931V9.53333H7.12055V8.85931H6.44653Z" fill="#1AE371"/>
<path d="M5.77246 8.85931V9.53333H6.44648V8.85931H5.77246Z" fill="#1AE371"/>
<path d="M6.44653 8.18523V8.85925H7.12055V8.18523H6.44653Z" fill="#1AE371"/>
<path d="M7.12036 8.18523V8.85925H7.79438V8.18523H7.12036Z" fill="#1AE371"/>
<path d="M3.07636 4.81519H2.40234V5.48921H3.07636V4.81519Z" fill="#1AE371"/>
<path d="M3.75044 4.81519H3.07642V5.48921H3.75044V4.81519Z" fill="#1AE371"/>
<path d="M3.75044 4.14111H3.07642V4.81513H3.75044V4.14111Z" fill="#1AE371"/>
<path d="M4.42426 4.81519H3.75024V5.48921H4.42426V4.81519Z" fill="#1AE371"/>
<path d="M5.09834 5.48914H4.42432V6.16315H5.09834V5.48914Z" fill="#1AE371"/>
<path d="M5.77241 6.16321H5.09839V6.83723H5.77241V6.16321Z" fill="#1AE371"/>
<path d="M6.44648 6.83716H5.77246V7.51118H6.44648V6.83716Z" fill="#1AE371"/>
<path d="M7.12055 7.51123H6.44653V8.18525H7.12055V7.51123Z" fill="#1AE371"/>
<path d="M2.40229 5.48914H1.72827V6.16315H2.40229V5.48914Z" fill="#1AE371"/>
<path d="M3.07636 6.16321H2.40234V6.83723H3.07636V6.16321Z" fill="#1AE371"/>
<path d="M3.75044 6.83716H3.07642V7.51118H3.75044V6.83716Z" fill="#1AE371"/>
<path d="M4.42426 7.51123H3.75024V8.18525H4.42426V7.51123Z" fill="#1AE371"/>
<path d="M5.09834 8.1853H4.42432V8.85932H5.09834V8.1853Z" fill="#1AE371"/>
<path d="M5.77241 8.85925H5.09839V9.53327H5.77241V8.85925Z" fill="#1AE371"/>
<path d="M4.42426 5.48914H3.75024V6.16315H4.42426V5.48914Z" fill="#1AE371"/>
<path d="M5.09834 6.16321H4.42432V6.83723H5.09834V6.16321Z" fill="#1AE371"/>
<path d="M3.75044 5.48914H3.07642V6.16315H3.75044V5.48914Z" fill="#1AE371"/>
<path d="M4.42426 6.16321H3.75024V6.83723H4.42426V6.16321Z" fill="#1AE371"/>
<path d="M3.07636 5.48914H2.40234V6.16315H3.07636V5.48914Z" fill="#1AE371"/>
<path d="M3.75044 6.16321H3.07642V6.83723H3.75044V6.16321Z" fill="#1AE371"/>
<path d="M4.42426 6.83716H3.75024V7.51118H4.42426V6.83716Z" fill="#1AE371"/>
<path d="M5.09834 6.83716H4.42432V7.51118H5.09834V6.83716Z" fill="#1AE371"/>
<path d="M5.77241 6.83716H5.09839V7.51118H5.77241V6.83716Z" fill="#1AE371"/>
<path d="M6.44648 7.51123H5.77246V8.18525H6.44648V7.51123Z" fill="#1AE371"/>
<path d="M5.77241 7.51123H5.09839V8.18525H5.77241V7.51123Z" fill="#1AE371"/>
<path d="M6.44648 8.1853H5.77246V8.85932H6.44648V8.1853Z" fill="#1AE371"/>
<path d="M5.09834 7.51123H4.42432V8.18525H5.09834V7.51123Z" fill="#1AE371"/>
<path d="M5.77241 8.1853H5.09839V8.85932H5.77241V8.1853Z" fill="#1AE371"/>
<path d="M5.77241 8.85925H5.09839V9.53327H5.77241V8.85925Z" fill="#1AE371"/>
<path d="M7.12031 8.85925H6.44629V9.53327H7.12031V8.85925Z" fill="#1AE371"/>
<path d="M7.12031 8.1853H6.44629V8.85932H7.12031V8.1853Z" fill="#1AE371"/>
<path d="M7.79438 8.85925H7.12036V9.53327H7.79438V8.85925Z" fill="#1AE371"/>
<path d="M6.44648 8.85925H5.77246V9.53327H6.44648V8.85925Z" fill="#1AE371"/>
<path d="M11.1646 6.16315V5.48914H10.4905V6.16315H11.1646Z" fill="#1AE371"/>
<path d="M11.8386 6.16315V5.48914H11.1646V6.16315H11.8386Z" fill="#1AE371"/>
<path d="M11.1646 6.83723V6.16321H10.4905V6.83723H11.1646Z" fill="#1AE371"/>
<path d="M10.4905 7.51118V6.83716H9.81646V7.51118H10.4905Z" fill="#1AE371"/>
<path d="M9.81641 8.18525V7.51123H9.14239V8.18525H9.81641Z" fill="#1AE371"/>
<path d="M9.14258 8.85932V8.1853H8.46856V8.85932H9.14258Z" fill="#1AE371"/>
<path d="M8.46851 9.53327V8.85925H7.79449V9.53327H8.46851Z" fill="#1AE371"/>
<path d="M7.79443 10.2072V9.5332H7.12041V10.2072H7.79443Z" fill="#1AE371"/>
<path d="M7.12036 10.2072V9.5332H6.44634V10.2072H7.12036Z" fill="#1AE371"/>
<path d="M6.44629 10.2072V9.5332H5.77227V10.2072H6.44629Z" fill="#1AE371"/>
<path d="M7.12036 10.8813V10.2073H6.44634V10.8813H7.12036Z" fill="#1AE371"/>
<path d="M10.4905 4.81513V4.14111H9.81646V4.81513H10.4905Z" fill="#1AE371"/>
<path d="M9.81641 5.4892V4.81519H9.14239V5.4892H9.81641Z" fill="#1AE371"/>
<path d="M9.14258 6.16315V5.48914H8.46856V6.16315H9.14258Z" fill="#1AE371"/>
<path d="M8.46851 6.83723V6.16321H7.79449V6.83723H8.46851Z" fill="#1AE371"/>
<path d="M7.79443 7.51118V6.83716H7.12041V7.51118H7.79443Z" fill="#1AE371"/>
<path d="M7.12036 8.18525V7.51123H6.44634V8.18525H7.12036Z" fill="#1AE371"/>
<path d="M10.4905 6.83723V6.16321H9.81646V6.83723H10.4905Z" fill="#1AE371"/>
<path d="M9.81641 7.51118V6.83716H9.14239V7.51118H9.81641Z" fill="#1AE371"/>
<path d="M10.4905 6.16316V5.48914H9.81646V6.16316H10.4905Z" fill="#1AE371"/>
<path d="M9.81641 6.83723V6.16321H9.14239V6.83723H9.81641Z" fill="#1AE371"/>
<path d="M10.4905 5.48921V4.81519H9.81646V5.48921H10.4905Z" fill="#1AE371"/>
<path d="M9.81641 6.16315V5.48914H9.14239V6.16315H9.81641Z" fill="#1AE371"/>
<path d="M9.14258 6.83723V6.16321H8.46856V6.83723H9.14258Z" fill="#1AE371"/>
<path d="M9.14258 7.51118V6.83716H8.46856V7.51118H9.14258Z" fill="#1AE371"/>
<path d="M9.14258 8.18525V7.51123H8.46856V8.18525H9.14258Z" fill="#1AE371"/>
<path d="M8.46851 8.85932V8.1853H7.79449V8.85932H8.46851Z" fill="#1AE371"/>
<path d="M8.46851 8.18525V7.51123H7.79449V8.18525H8.46851Z" fill="#1AE371"/>
<path d="M7.79443 8.85932V8.1853H7.12041V8.85932H7.79443Z" fill="#1AE371"/>
<path d="M8.46851 7.51118V6.83716H7.79449V7.51118H8.46851Z" fill="#1AE371"/>
<path d="M13.8606 3.46711V2.79309H13.1866V3.46711H13.8606Z" fill="#1AE371"/>
<path d="M14.5347 3.46711V2.79309H13.8606V3.46711H14.5347Z" fill="#1AE371"/>
<path d="M13.8606 2.79304V2.11902H13.1866V2.79304H13.8606Z" fill="#1AE371"/>
<path d="M13.8606 4.14118V3.46716H13.1866V4.14118H13.8606Z" fill="#1AE371"/>
<path d="M13.1865 4.81513V4.14111H12.5125V4.81513H13.1865Z" fill="#1AE371"/>
<path d="M12.5125 5.48921V4.81519H11.8384V5.48921H12.5125Z" fill="#1AE371"/>
<path d="M13.1865 2.11909V1.44507L12.5125 1.44507V2.11909H13.1865Z" fill="#1AE371"/>
<path d="M12.5125 2.79304V2.11902H11.8384V2.79304H12.5125Z" fill="#1AE371"/>
<path d="M11.8386 3.46711V2.79309H11.1646V3.46711H11.8386Z" fill="#1AE371"/>
<path d="M11.1646 4.14118V3.46716H10.4905V4.14118H11.1646Z" fill="#1AE371"/>
<path d="M3.75044 3.46716H3.07642V4.14118H3.75044V3.46716Z" fill="#1AE371"/>
<path d="M4.42426 4.14111H3.75024V4.81513H4.42426V4.14111Z" fill="#1AE371"/>
<path d="M5.09834 4.81519H4.42432V5.48921H5.09834V4.81519Z" fill="#1AE371"/>
<path d="M5.77241 5.48914H5.09839V6.16315H5.77241V5.48914Z" fill="#1AE371"/>
<path d="M6.44648 6.16321H5.77246V6.83723H6.44648V6.16321Z" fill="#1AE371"/>
<path d="M10.4905 4.14118V3.46716H9.81646V4.14118H10.4905Z" fill="#1AE371"/>
<path d="M9.81641 4.81513V4.14111H9.14239V4.81513H9.81641Z" fill="#1AE371"/>
<path d="M9.14258 5.4892V4.81519H8.46856V5.4892H9.14258Z" fill="#1AE371"/>
<path d="M8.46851 6.16316V5.48914H7.79449V6.16316H8.46851Z" fill="#1AE371"/>
<path d="M7.79443 6.83723V6.16321H7.12041V6.83723H7.79443Z" fill="#1AE371"/>
<path d="M7.12036 7.51118V6.83716H6.44634V7.51118H7.12036Z" fill="#1AE371"/>
<path d="M13.1865 1.44502V0.770996L12.5125 0.770996V1.44502H13.1865Z" fill="#1AE371"/>
<path d="M13.8606 2.11909V1.44507L13.1866 1.44507V2.11909H13.8606Z" fill="#1AE371"/>
<path d="M14.5347 2.79304V2.11902H13.8606V2.79304H14.5347Z" fill="#1AE371"/>
<path d="M12.5125 2.11909V1.44507L11.8384 1.44507V2.11909H12.5125Z" fill="#1AE371"/>
<path d="M11.8386 2.79304V2.11902H11.1646V2.79304H11.8386Z" fill="#1AE371"/>
<path d="M11.1646 3.46711V2.79309H10.4905V3.46711H11.1646Z" fill="#1AE371"/>
<path d="M3.75044 7.51111H3.07642V8.18513H3.75044V7.51111Z" fill="#1AE371"/>
<path d="M4.42426 8.18518H3.75024V8.8592H4.42426V8.18518Z" fill="#1AE371"/>
<path d="M5.09834 8.85913H4.42432V9.53315H5.09834V8.85913Z" fill="#1AE371"/>
<path d="M1.72822 5.48901H1.0542V6.16303H1.72822V5.48901Z" fill="#1AE371"/>
<path d="M2.40229 4.81506H1.72827V5.48908H2.40229V4.81506Z" fill="#1AE371"/>
<path d="M3.07636 4.14111H2.40234V4.81513H3.07636V4.14111Z" fill="#1AE371"/>
<path d="M1.72822 4.81506H1.0542V5.48908H1.72822V4.81506Z" fill="#1AE371"/>
<path d="M1.72822 4.14111H1.0542V4.81513H1.72822V4.14111Z" fill="#1AE371"/>
<path d="M1.05415 4.81506H0.380127V5.48908H1.05415V4.81506Z" fill="#1AE371"/>
<path d="M2.40229 4.14111H1.72827V4.81513H2.40229V4.14111Z" fill="#1AE371"/>
<path d="M2.40229 3.46716H1.72827V4.14118H2.40229V3.46716Z" fill="#1AE371"/>
<path d="M3.07636 3.46716H2.40234V4.14118H3.07636V3.46716Z" fill="#1AE371"/>
<path d="M3.07636 2.79309H2.40234V3.46711H3.07636V2.79309Z" fill="#1AE371"/>
<path d="M2.40229 6.16309H1.72827V6.83711H2.40229V6.16309Z" fill="#1AE371"/>
<path d="M3.07636 6.83704H2.40234V7.51106H3.07636V6.83704Z" fill="#1AE371"/>
<path d="M5.77241 9.5332H5.09839V10.2072H5.77241V9.5332Z" fill="#1AE371"/>
<path d="M6.44648 10.2072H5.77246V10.8812H6.44648V10.2072Z" fill="#1AE371"/>
<path d="M10.4905 8.18513V7.51111H9.81646V8.18513H10.4905Z" fill="#1AE371"/>
<path d="M9.81641 8.8592V8.18518H9.14239V8.8592H9.81641Z" fill="#1AE371"/>
<path d="M9.14258 9.53315V8.85913H8.46856V9.53315H9.14258Z" fill="#1AE371"/>
<path d="M8.46851 10.2072V9.5332H7.79449V10.2072H8.46851Z" fill="#1AE371"/>
<path d="M7.79443 10.8812V10.2072H7.12041V10.8812H7.79443Z" fill="#1AE371"/>
<path d="M7.12036 11.5552V10.8812H6.44634V11.5552H7.12036Z" fill="#1AE371"/>
<path d="M13.1865 5.48908V4.81506H12.5125V5.48908H13.1865Z" fill="#1AE371"/>
<path d="M12.5125 6.16303V5.48901H11.8384V6.16303H12.5125Z" fill="#1AE371"/>
<path d="M11.8386 6.83711V6.16309H11.1646V6.83711H11.8386Z" fill="#1AE371"/>
<path d="M15.2085 3.46711V2.79309H14.5345V3.46711H15.2085Z" fill="#1AE371"/>
<path d="M15.8826 2.79304V2.11902H15.2085V2.79304H15.8826Z" fill="#1AE371"/>
<path d="M13.8606 1.44514V0.771118L13.1866 0.771118V1.44514H13.8606Z" fill="#1AE371"/>
<path d="M14.5347 2.11909V1.44507L13.8606 1.44507V2.11909H14.5347Z" fill="#1AE371"/>
<path d="M15.2085 2.79304V2.11902H14.5345V2.79304H15.2085Z" fill="#1AE371"/>
<path d="M13.8606 0.771065V0.0970459L13.1866 0.0970459V0.771065L13.8606 0.771065Z" fill="#1AE371"/>
<path d="M14.5347 1.44502V0.770996L13.8606 0.770996V1.44502H14.5347Z" fill="#1AE371"/>
<path d="M15.2085 2.11897V1.44495L14.5345 1.44495V2.11897H15.2085Z" fill="#1AE371"/>
<path d="M14.5344 4.14106V3.46704H13.8604V4.14106H14.5344Z" fill="#1AE371"/>
<path d="M13.8606 4.81513V4.14111H13.1866V4.81513H13.8606Z" fill="#1AE371"/>
<path d="M11.1646 7.51106V6.83704H10.4905V7.51106H11.1646Z" fill="#1AE371"/>
<path d="M13.1865 4.14118V3.46716H12.5125V4.14118H13.1865Z" fill="#1AE371"/>
<path d="M12.5125 4.81513V4.14111H11.8384V4.81513H12.5125Z" fill="#1AE371"/>
<path d="M13.1865 3.46711V2.79309H12.5125V3.46711H13.1865Z" fill="#1AE371"/>
<path d="M12.5125 4.14118V3.46716H11.8384V4.14118H12.5125Z" fill="#1AE371"/>
<path d="M13.1865 2.79304V2.11902H12.5125V2.79304H13.1865Z" fill="#1AE371"/>
<path d="M12.5125 3.46711V2.79309H11.8384V3.46711H12.5125Z" fill="#1AE371"/>
<path d="M11.8386 4.14118V3.46716H11.1646V4.14118H11.8386Z" fill="#1AE371"/>
<path d="M11.8386 4.81513V4.14111H11.1646V4.81513H11.8386Z" fill="#1AE371"/>
<path d="M11.8386 5.4892V4.81519H11.1646V5.4892H11.8386Z" fill="#1AE371"/>
<path d="M11.1646 5.4892V4.81519H10.4905V5.4892H11.1646Z" fill="#1AE371"/>
<path d="M11.1646 4.81513V4.14111H10.4905V4.81513H11.1646Z" fill="#1AE371"/>
<path d="M7.79443 8.18525V7.51123H7.12041V8.18525H7.79443Z" fill="#1AE371"/>
</svg>
