<svg width="50" height="64" viewBox="0 0 50 64" fill="none" xmlns="http://www.w3.org/2000/svg">
<path d="M31.3369 0.00012207H33.8716V2.53487H31.3369V0.00012207Z" fill="black"/>
<path d="M28.8019 0.00012207H31.3366V2.53487H28.8019V0.00012207Z" fill="black"/>
<path d="M26.2675 0.00012207H28.8022V2.53487H26.2675V0.00012207Z" fill="black"/>
<path d="M23.733 0.00012207H26.2678V2.53487H23.733V0.00012207Z" fill="black"/>
<path d="M21.198 0.00012207H23.7328V2.53487H21.198V0.00012207Z" fill="black"/>
<path d="M18.6636 0.00012207H21.1984V2.53487H18.6636V0.00012207Z" fill="black"/>
<path d="M16.1286 0.00012207H18.6634V2.53487H16.1286V0.00012207Z" fill="black"/>
<path d="M33.8719 2.53485H36.4066V5.0696H33.8719V2.53485Z" fill="black"/>
<path d="M31.3369 2.53485H33.8716V5.0696H31.3369V2.53485Z" fill="#FFCE87"/>
<path d="M28.8019 2.53485H31.3366V5.0696H28.8019V2.53485Z" fill="#FFCE87"/>
<path d="M26.2675 2.53485H28.8022V5.0696H26.2675V2.53485Z" fill="#FFCE87"/>
<path d="M23.733 2.53485H26.2678V5.0696H23.733V2.53485Z" fill="#FFCE87"/>
<path d="M21.198 2.53485H23.7328V5.0696H21.198V2.53485Z" fill="#FFCE87"/>
<path d="M18.6636 2.53485H21.1984V5.0696H18.6636V2.53485Z" fill="#FFCE87"/>
<path d="M16.1286 2.53485H18.6634V5.0696H16.1286V2.53485Z" fill="#FFCE87"/>
<path d="M13.5936 2.53485H16.1284V5.0696H13.5936V2.53485Z" fill="black"/>
<path d="M36.4069 5.06952H38.9416V7.60426H36.4069V5.06952Z" fill="black"/>
<path d="M33.8719 5.06952H36.4066V7.60426H33.8719V5.06952Z" fill="#FFCE87"/>
<path d="M31.3369 5.06952H33.8716V7.60426H31.3369V5.06952Z" fill="#FF945E"/>
<path d="M28.8019 5.06952H31.3366V7.60426H28.8019V5.06952Z" fill="#F86B40"/>
<path d="M26.2675 5.06952H28.8022V7.60426H26.2675V5.06952Z" fill="#F86B40"/>
<path d="M23.733 5.06952H26.2678V7.60426H23.733V5.06952Z" fill="#F86B40"/>
<path d="M21.198 5.06952H23.7328V7.60426H21.198V5.06952Z" fill="#F86B40"/>
<path d="M18.6636 5.06952H21.1984V7.60426H18.6636V5.06952Z" fill="#F86B40"/>
<path d="M16.1286 5.06952H18.6634V7.60426H16.1286V5.06952Z" fill="#FF945E"/>
<path d="M13.5936 5.06952H16.1284V7.60426H13.5936V5.06952Z" fill="#FFCE87"/>
<path d="M11.0592 5.06952H13.594V7.60426H11.0592V5.06952Z" fill="black"/>
<path d="M38.9413 7.60425H41.476V10.139H38.9413V7.60425Z" fill="black"/>
<path d="M36.4069 7.60425H38.9416V10.139H36.4069V7.60425Z" fill="#FFCE87"/>
<path d="M33.8719 7.60425H36.4066V10.139H33.8719V7.60425Z" fill="#FF945E"/>
<path d="M31.3369 7.60425H33.8716V10.139H31.3369V7.60425Z" fill="#F86B40"/>
<path d="M28.8019 7.60425H31.3366V10.139H28.8019V7.60425Z" fill="black"/>
<path d="M26.2675 7.60425H28.8022V10.139H26.2675V7.60425Z" fill="black"/>
<path d="M23.733 7.60425H26.2678V10.139H23.733V7.60425Z" fill="black"/>
<path d="M21.198 7.60425H23.7328V10.139H21.198V7.60425Z" fill="black"/>
<path d="M18.6636 7.60425H21.1984V10.139H18.6636V7.60425Z" fill="black"/>
<path d="M16.1286 7.60425H18.6634V10.139H16.1286V7.60425Z" fill="#F86B40"/>
<path d="M13.5936 7.60425H16.1284V10.139H13.5936V7.60425Z" fill="#FF945E"/>
<path d="M11.0592 7.60425H13.594V10.139H11.0592V7.60425Z" fill="#FFCE87"/>
<path d="M8.52421 7.60425H11.059V10.139H8.52421V7.60425Z" fill="black"/>
<path d="M38.9413 10.1391H41.476V12.6738H38.9413V10.1391Z" fill="black"/>
<path d="M36.4069 10.1391H38.9416V12.6738H36.4069V10.1391Z" fill="#FF945E"/>
<path d="M33.8719 10.1391H36.4066V12.6738H33.8719V10.1391Z" fill="#F86B40"/>
<path d="M31.3369 10.1391H33.8716V12.6738H31.3369V10.1391Z" fill="black"/>
<path d="M16.1286 10.1391H18.6634V12.6738H16.1286V10.1391Z" fill="black"/>
<path d="M13.5936 10.1391H16.1284V12.6738H13.5936V10.1391Z" fill="#F86B40"/>
<path d="M11.0592 10.1391H13.594V12.6738H11.0592V10.1391Z" fill="#FF945E"/>
<path d="M8.52421 10.1391H11.059V12.6738H8.52421V10.1391Z" fill="black"/>
<path d="M38.9413 12.6738H41.476V15.2085H38.9413V12.6738Z" fill="black"/>
<path d="M36.4069 12.6738H38.9416V15.2085H36.4069V12.6738Z" fill="#FF945E"/>
<path d="M33.8719 12.6738H36.4066V15.2085H33.8719V12.6738Z" fill="#F86B40"/>
<path d="M31.3369 12.6738H33.8716V15.2085H31.3369V12.6738Z" fill="black"/>
<path d="M16.1286 12.6738H18.6634V15.2085H16.1286V12.6738Z" fill="black"/>
<path d="M13.5936 12.6738H16.1284V15.2085H13.5936V12.6738Z" fill="#F86B40"/>
<path d="M11.0592 12.6738H13.594V15.2085H11.0592V12.6738Z" fill="#FF945E"/>
<path d="M8.52421 12.6738H11.059V15.2085H8.52421V12.6738Z" fill="black"/>
<path d="M38.9413 15.2086H41.476V17.7434H38.9413V15.2086Z" fill="black"/>
<path d="M36.4069 15.2086H38.9416V17.7434H36.4069V15.2086Z" fill="#FF945E"/>
<path d="M33.8719 15.2086H36.4066V17.7434H33.8719V15.2086Z" fill="#F86B40"/>
<path d="M31.3369 15.2086H33.8716V17.7434H31.3369V15.2086Z" fill="black"/>
<path d="M16.1286 15.2086H18.6634V17.7434H16.1286V15.2086Z" fill="black"/>
<path d="M13.5936 15.2086H16.1284V17.7434H13.5936V15.2086Z" fill="#F86B40"/>
<path d="M11.0592 15.2086H13.594V17.7434H11.0592V15.2086Z" fill="#FF945E"/>
<path d="M8.52421 15.2086H11.059V17.7434H8.52421V15.2086Z" fill="black"/>
<path d="M38.9413 17.7433H41.476V20.2781H38.9413V17.7433Z" fill="black"/>
<path d="M36.4069 17.7433H38.9416V20.2781H36.4069V17.7433Z" fill="#FF945E"/>
<path d="M33.8719 17.7433H36.4066V20.2781H33.8719V17.7433Z" fill="#F86B40"/>
<path d="M31.3369 17.7433H33.8716V20.2781H31.3369V17.7433Z" fill="black"/>
<path d="M16.1286 17.7433H18.6634V20.2781H16.1286V17.7433Z" fill="black"/>
<path d="M13.5936 17.7433H16.1284V20.2781H13.5936V17.7433Z" fill="#F86B40"/>
<path d="M11.0592 17.7433H13.594V20.2781H11.0592V17.7433Z" fill="#FF945E"/>
<path d="M8.52421 17.7433H11.059V20.2781H8.52421V17.7433Z" fill="black"/>
<path d="M38.9413 20.2781H41.476V22.8128H38.9413V20.2781Z" fill="black"/>
<path d="M36.4069 20.2781H38.9416V22.8128H36.4069V20.2781Z" fill="#FF945E"/>
<path d="M33.8719 20.2781H36.4066V22.8128H33.8719V20.2781Z" fill="#F86B40"/>
<path d="M31.3369 20.2781H33.8716V22.8128H31.3369V20.2781Z" fill="black"/>
<path d="M16.1286 20.2781H18.6634V22.8128H16.1286V20.2781Z" fill="black"/>
<path d="M13.5936 20.2781H16.1284V22.8128H13.5936V20.2781Z" fill="#F86B40"/>
<path d="M11.0592 20.2781H13.594V22.8128H11.0592V20.2781Z" fill="#FF945E"/>
<path d="M8.52421 20.2781H11.059V22.8128H8.52421V20.2781Z" fill="black"/>
<path d="M38.9413 22.8127H41.476V25.3475H38.9413V22.8127Z" fill="black"/>
<path d="M36.4069 22.8127H38.9416V25.3475H36.4069V22.8127Z" fill="#F86B40"/>
<path d="M33.8719 22.8127H36.4066V25.3475H33.8719V22.8127Z" fill="#F86B40"/>
<path d="M31.3369 22.8127H33.8716V25.3475H31.3369V22.8127Z" fill="black"/>
<path d="M16.1286 22.8127H18.6634V25.3475H16.1286V22.8127Z" fill="black"/>
<path d="M13.5936 22.8127H16.1284V25.3475H13.5936V22.8127Z" fill="#F86B40"/>
<path d="M11.0592 22.8127H13.594V25.3475H11.0592V22.8127Z" fill="#F86B40"/>
<path d="M8.52421 22.8127H11.059V25.3475H8.52421V22.8127Z" fill="black"/>
<path d="M41.4763 25.3476H44.011V27.8823H41.4763V25.3476Z" fill="black"/>
<path d="M38.9413 25.3476H41.476V27.8823H38.9413V25.3476Z" fill="black"/>
<path d="M36.4069 25.3476H38.9416V27.8823H36.4069V25.3476Z" fill="black"/>
<path d="M33.8719 25.3476H36.4066V27.8823H33.8719V25.3476Z" fill="black"/>
<path d="M31.3369 25.3476H33.8716V27.8823H31.3369V25.3476Z" fill="black"/>
<path d="M28.8019 25.3476H31.3366V27.8823H28.8019V25.3476Z" fill="black"/>
<path d="M26.2675 25.3476H28.8022V27.8823H26.2675V25.3476Z" fill="black"/>
<path d="M23.733 25.3476H26.2678V27.8823H23.733V25.3476Z" fill="black"/>
<path d="M21.198 25.3476H23.7328V27.8823H21.198V25.3476Z" fill="black"/>
<path d="M18.6636 25.3476H21.1984V27.8823H18.6636V25.3476Z" fill="black"/>
<path d="M16.1286 25.3476H18.6634V27.8823H16.1286V25.3476Z" fill="black"/>
<path d="M13.5936 25.3476H16.1284V27.8823H13.5936V25.3476Z" fill="black"/>
<path d="M11.0592 25.3476H13.594V27.8823H11.0592V25.3476Z" fill="black"/>
<path d="M8.52421 25.3476H11.059V27.8823H8.52421V25.3476Z" fill="black"/>
<path d="M5.98923 25.3476H8.52399V27.8823H5.98923V25.3476Z" fill="black"/>
<path d="M44.0107 27.8822H46.5454V30.417H44.0107V27.8822Z" fill="black"/>
<path d="M41.4763 27.8822H44.011V30.417H41.4763V27.8822Z" fill="#FFCE87"/>
<path d="M38.9413 27.8822H41.476V30.417H38.9413V27.8822Z" fill="#FFCE87"/>
<path d="M36.4069 27.8822H38.9416V30.417H36.4069V27.8822Z" fill="#FFCE87"/>
<path d="M33.8719 27.8822H36.4066V30.417H33.8719V27.8822Z" fill="#FFCE87"/>
<path d="M31.3369 27.8822H33.8716V30.417H31.3369V27.8822Z" fill="#FFCE87"/>
<path d="M28.8019 27.8822H31.3366V30.417H28.8019V27.8822Z" fill="#FFCE87"/>
<path d="M26.2675 27.8822H28.8022V30.417H26.2675V27.8822Z" fill="#FFCE87"/>
<path d="M23.733 27.8822H26.2678V30.417H23.733V27.8822Z" fill="#FFCE87"/>
<path d="M21.198 27.8822H23.7328V30.417H21.198V27.8822Z" fill="#FFCE87"/>
<path d="M18.6636 27.8822H21.1984V30.417H18.6636V27.8822Z" fill="#FFCE87"/>
<path d="M16.1286 27.8822H18.6634V30.417H16.1286V27.8822Z" fill="#FFCE87"/>
<path d="M13.5936 27.8822H16.1284V30.417H13.5936V27.8822Z" fill="#FFCE87"/>
<path d="M11.0592 27.8822H13.594V30.417H11.0592V27.8822Z" fill="#FFCE87"/>
<path d="M8.52421 27.8822H11.059V30.417H8.52421V27.8822Z" fill="#FFCE87"/>
<path d="M5.98923 27.8822H8.52399V30.417H5.98923V27.8822Z" fill="#FFCE87"/>
<path d="M3.45482 27.8822H5.98956V30.417H3.45482V27.8822Z" fill="black"/>
<path d="M46.5457 30.4171H49.0804V32.9518H46.5457V30.4171Z" fill="black"/>
<path d="M44.0107 30.4171H46.5454V32.9518H44.0107V30.4171Z" fill="#FFCE87"/>
<path d="M41.4763 30.4171H44.011V32.9518H41.4763V30.4171Z" fill="#FF945E"/>
<path d="M38.9413 30.4171H41.476V32.9518H38.9413V30.4171Z" fill="#FF945E"/>
<path d="M36.4069 30.4171H38.9416V32.9518H36.4069V30.4171Z" fill="#FF945E"/>
<path d="M33.8719 30.4171H36.4066V32.9518H33.8719V30.4171Z" fill="#FF945E"/>
<path d="M31.3369 30.4171H33.8716V32.9518H31.3369V30.4171Z" fill="#FF945E"/>
<path d="M28.8019 30.4171H31.3366V32.9518H28.8019V30.4171Z" fill="#FF945E"/>
<path d="M26.2675 30.4171H28.8022V32.9518H26.2675V30.4171Z" fill="#FF945E"/>
<path d="M23.733 30.4171H26.2678V32.9518H23.733V30.4171Z" fill="#FF945E"/>
<path d="M21.198 30.4171H23.7328V32.9518H21.198V30.4171Z" fill="#FF945E"/>
<path d="M18.6636 30.4171H21.1984V32.9518H18.6636V30.4171Z" fill="#FF945E"/>
<path d="M16.1286 30.4171H18.6634V32.9518H16.1286V30.4171Z" fill="#FF945E"/>
<path d="M13.5936 30.4171H16.1284V32.9518H13.5936V30.4171Z" fill="#FF945E"/>
<path d="M11.0592 30.4171H13.594V32.9518H11.0592V30.4171Z" fill="#FF945E"/>
<path d="M8.52421 30.4171H11.059V32.9518H8.52421V30.4171Z" fill="#FF945E"/>
<path d="M5.98923 30.4171H8.52399V32.9518H5.98923V30.4171Z" fill="#FF945E"/>
<path d="M3.45482 30.4171H5.98956V32.9518H3.45482V30.4171Z" fill="#FFCE87"/>
<path d="M0.919814 30.4171H3.45456V32.9518H0.919814V30.4171Z" fill="black"/>
<path d="M46.5457 32.9517H49.0804V35.4865H46.5457V32.9517Z" fill="black"/>
<path d="M44.0107 32.9517H46.5454V35.4865H44.0107V32.9517Z" fill="#FF945E"/>
<path d="M41.4763 32.9517H44.011V35.4865H41.4763V32.9517Z" fill="#FF945E"/>
<path d="M38.9413 32.9517H41.476V35.4865H38.9413V32.9517Z" fill="#FF945E"/>
<path d="M36.4069 32.9517H38.9416V35.4865H36.4069V32.9517Z" fill="#FF945E"/>
<path d="M33.8719 32.9517H36.4066V35.4865H33.8719V32.9517Z" fill="#FF945E"/>
<path d="M31.3369 32.9517H33.8716V35.4865H31.3369V32.9517Z" fill="#FF945E"/>
<path d="M28.8019 32.9517H31.3366V35.4865H28.8019V32.9517Z" fill="#FF945E"/>
<path d="M26.2675 32.9517H28.8022V35.4865H26.2675V32.9517Z" fill="#FF945E"/>
<path d="M23.733 32.9517H26.2678V35.4865H23.733V32.9517Z" fill="#FF945E"/>
<path d="M21.198 32.9517H23.7328V35.4865H21.198V32.9517Z" fill="#FF945E"/>
<path d="M18.6636 32.9517H21.1984V35.4865H18.6636V32.9517Z" fill="#FF945E"/>
<path d="M16.1286 32.9517H18.6634V35.4865H16.1286V32.9517Z" fill="#FF945E"/>
<path d="M13.5936 32.9517H16.1284V35.4865H13.5936V32.9517Z" fill="#FF945E"/>
<path d="M11.0592 32.9517H13.594V35.4865H11.0592V32.9517Z" fill="#FF945E"/>
<path d="M8.52421 32.9517H11.059V35.4865H8.52421V32.9517Z" fill="#FF945E"/>
<path d="M5.98923 32.9517H8.52399V35.4865H5.98923V32.9517Z" fill="#FF945E"/>
<path d="M3.45482 32.9517H5.98956V35.4865H3.45482V32.9517Z" fill="#FF945E"/>
<path d="M0.919814 32.9517H3.45456V35.4865H0.919814V32.9517Z" fill="black"/>
<path d="M46.5457 35.4865H49.0804V38.0212H46.5457V35.4865Z" fill="black"/>
<path d="M44.0107 35.4865H46.5454V38.0212H44.0107V35.4865Z" fill="#FF945E"/>
<path d="M41.4763 35.4865H44.011V38.0212H41.4763V35.4865Z" fill="#FF945E"/>
<path d="M38.9413 35.4865H41.476V38.0212H38.9413V35.4865Z" fill="#FF945E"/>
<path d="M36.4069 35.4865H38.9416V38.0212H36.4069V35.4865Z" fill="#FF945E"/>
<path d="M33.8719 35.4865H36.4066V38.0212H33.8719V35.4865Z" fill="#FF945E"/>
<path d="M31.3369 35.4865H33.8716V38.0212H31.3369V35.4865Z" fill="#FF945E"/>
<path d="M28.8019 35.4865H31.3366V38.0212H28.8019V35.4865Z" fill="#FF945E"/>
<path d="M26.2675 35.4865H28.8022V38.0212H26.2675V35.4865Z" fill="#FF945E"/>
<path d="M23.733 35.4865H26.2678V38.0212H23.733V35.4865Z" fill="#FF945E"/>
<path d="M21.198 35.4865H23.7328V38.0212H21.198V35.4865Z" fill="#FF945E"/>
<path d="M18.6636 35.4865H21.1984V38.0212H18.6636V35.4865Z" fill="#FF945E"/>
<path d="M16.1286 35.4865H18.6634V38.0212H16.1286V35.4865Z" fill="#FF945E"/>
<path d="M13.5936 35.4865H16.1284V38.0212H13.5936V35.4865Z" fill="#FF945E"/>
<path d="M11.0592 35.4865H13.594V38.0212H11.0592V35.4865Z" fill="#FF945E"/>
<path d="M8.52421 35.4865H11.059V38.0212H8.52421V35.4865Z" fill="#FF945E"/>
<path d="M5.98923 35.4865H8.52399V38.0212H5.98923V35.4865Z" fill="#FF945E"/>
<path d="M3.45482 35.4865H5.98956V38.0212H3.45482V35.4865Z" fill="#FF945E"/>
<path d="M0.919814 35.4865H3.45456V38.0212H0.919814V35.4865Z" fill="black"/>
<path d="M46.5457 38.0211H49.0804V40.5559H46.5457V38.0211Z" fill="black"/>
<path d="M44.0107 38.0211H46.5454V40.5559H44.0107V38.0211Z" fill="#FF945E"/>
<path d="M41.4763 38.0211H44.011V40.5559H41.4763V38.0211Z" fill="#FF945E"/>
<path d="M38.9413 38.0211H41.476V40.5559H38.9413V38.0211Z" fill="#FF945E"/>
<path d="M36.4069 38.0211H38.9416V40.5559H36.4069V38.0211Z" fill="#FF945E"/>
<path d="M33.8719 38.0211H36.4066V40.5559H33.8719V38.0211Z" fill="#FF945E"/>
<path d="M31.3369 38.0211H33.8716V40.5559H31.3369V38.0211Z" fill="#FF945E"/>
<path d="M28.8019 38.0211H31.3366V40.5559H28.8019V38.0211Z" fill="#FF945E"/>
<path d="M26.2675 38.0211H28.8022V40.5559H26.2675V38.0211Z" fill="black"/>
<path d="M23.733 38.0211H26.2678V40.5559H23.733V38.0211Z" fill="black"/>
<path d="M21.198 38.0211H23.7328V40.5559H21.198V38.0211Z" fill="black"/>
<path d="M18.6636 38.0211H21.1984V40.5559H18.6636V38.0211Z" fill="#FF945E"/>
<path d="M16.1286 38.0211H18.6634V40.5559H16.1286V38.0211Z" fill="#FF945E"/>
<path d="M13.5936 38.0211H16.1284V40.5559H13.5936V38.0211Z" fill="#FF945E"/>
<path d="M11.0592 38.0211H13.594V40.5559H11.0592V38.0211Z" fill="#FF945E"/>
<path d="M8.52421 38.0211H11.059V40.5559H8.52421V38.0211Z" fill="#FF945E"/>
<path d="M5.98923 38.0211H8.52399V40.5559H5.98923V38.0211Z" fill="#FF945E"/>
<path d="M3.45482 38.0211H5.98956V40.5559H3.45482V38.0211Z" fill="#FF945E"/>
<path d="M0.919814 38.0211H3.45456V40.5559H0.919814V38.0211Z" fill="black"/>
<path d="M46.5457 40.556H49.0804V43.0907H46.5457V40.556Z" fill="black"/>
<path d="M44.0107 40.556H46.5454V43.0907H44.0107V40.556Z" fill="#FF945E"/>
<path d="M41.4763 40.556H44.011V43.0907H41.4763V40.556Z" fill="#FF945E"/>
<path d="M38.9413 40.556H41.476V43.0907H38.9413V40.556Z" fill="#FF945E"/>
<path d="M36.4069 40.556H38.9416V43.0907H36.4069V40.556Z" fill="#FF945E"/>
<path d="M33.8719 40.556H36.4066V43.0907H33.8719V40.556Z" fill="#FF945E"/>
<path d="M31.3369 40.556H33.8716V43.0907H31.3369V40.556Z" fill="#FF945E"/>
<path d="M28.8019 40.556H31.3366V43.0907H28.8019V40.556Z" fill="black"/>
<path d="M26.2675 40.556H28.8022V43.0907H26.2675V40.556Z" fill="black"/>
<path d="M23.733 40.556H26.2678V43.0907H23.733V40.556Z" fill="black"/>
<path d="M21.198 40.556H23.7328V43.0907H21.198V40.556Z" fill="black"/>
<path d="M18.6636 40.556H21.1984V43.0907H18.6636V40.556Z" fill="black"/>
<path d="M16.1286 40.556H18.6634V43.0907H16.1286V40.556Z" fill="#FF945E"/>
<path d="M13.5936 40.556H16.1284V43.0907H13.5936V40.556Z" fill="#FF945E"/>
<path d="M11.0592 40.556H13.594V43.0907H11.0592V40.556Z" fill="#FF945E"/>
<path d="M8.52421 40.556H11.059V43.0907H8.52421V40.556Z" fill="#FF945E"/>
<path d="M5.98923 40.556H8.52399V43.0907H5.98923V40.556Z" fill="#FF945E"/>
<path d="M3.45482 40.556H5.98956V43.0907H3.45482V40.556Z" fill="#FF945E"/>
<path d="M0.919814 40.556H3.45456V43.0907H0.919814V40.556Z" fill="black"/>
<path d="M46.5457 43.0907H49.0804V45.6254H46.5457V43.0907Z" fill="black"/>
<path d="M44.0107 43.0907H46.5454V45.6254H44.0107V43.0907Z" fill="#FF945E"/>
<path d="M41.4763 43.0907H44.011V45.6254H41.4763V43.0907Z" fill="#FF945E"/>
<path d="M38.9413 43.0907H41.476V45.6254H38.9413V43.0907Z" fill="#FF945E"/>
<path d="M36.4069 43.0907H38.9416V45.6254H36.4069V43.0907Z" fill="#FF945E"/>
<path d="M33.8719 43.0907H36.4066V45.6254H33.8719V43.0907Z" fill="#FF945E"/>
<path d="M31.3369 43.0907H33.8716V45.6254H31.3369V43.0907Z" fill="#FF945E"/>
<path d="M28.8019 43.0907H31.3366V45.6254H28.8019V43.0907Z" fill="black"/>
<path d="M26.2675 43.0907H28.8022V45.6254H26.2675V43.0907Z" fill="black"/>
<path d="M23.733 43.0907H26.2678V45.6254H23.733V43.0907Z" fill="black"/>
<path d="M21.198 43.0907H23.7328V45.6254H21.198V43.0907Z" fill="black"/>
<path d="M18.6636 43.0907H21.1984V45.6254H18.6636V43.0907Z" fill="black"/>
<path d="M16.1286 43.0907H18.6634V45.6254H16.1286V43.0907Z" fill="#FF945E"/>
<path d="M13.5936 43.0907H16.1284V45.6254H13.5936V43.0907Z" fill="#FF945E"/>
<path d="M11.0592 43.0907H13.594V45.6254H11.0592V43.0907Z" fill="#FF945E"/>
<path d="M8.52421 43.0907H11.059V45.6254H8.52421V43.0907Z" fill="#FF945E"/>
<path d="M5.98923 43.0907H8.52399V45.6254H5.98923V43.0907Z" fill="#FF945E"/>
<path d="M3.45482 43.0907H5.98956V45.6254H3.45482V43.0907Z" fill="#FF945E"/>
<path d="M0.919814 43.0907H3.45456V45.6254H0.919814V43.0907Z" fill="black"/>
<path d="M46.5457 45.6254H49.0804V48.1602H46.5457V45.6254Z" fill="black"/>
<path d="M44.0107 45.6254H46.5454V48.1602H44.0107V45.6254Z" fill="#FF945E"/>
<path d="M41.4763 45.6254H44.011V48.1602H41.4763V45.6254Z" fill="#FF945E"/>
<path d="M38.9413 45.6254H41.476V48.1602H38.9413V45.6254Z" fill="#FF945E"/>
<path d="M36.4069 45.6254H38.9416V48.1602H36.4069V45.6254Z" fill="#FF945E"/>
<path d="M33.8719 45.6254H36.4066V48.1602H33.8719V45.6254Z" fill="#FF945E"/>
<path d="M31.3369 45.6254H33.8716V48.1602H31.3369V45.6254Z" fill="#FF945E"/>
<path d="M28.8019 45.6254H31.3366V48.1602H28.8019V45.6254Z" fill="black"/>
<path d="M26.2675 45.6254H28.8022V48.1602H26.2675V45.6254Z" fill="black"/>
<path d="M23.733 45.6254H26.2678V48.1602H23.733V45.6254Z" fill="black"/>
<path d="M21.198 45.6254H23.7328V48.1602H21.198V45.6254Z" fill="black"/>
<path d="M18.6636 45.6254H21.1984V48.1602H18.6636V45.6254Z" fill="black"/>
<path d="M16.1286 45.6254H18.6634V48.1602H16.1286V45.6254Z" fill="#FF945E"/>
<path d="M13.5936 45.6254H16.1284V48.1602H13.5936V45.6254Z" fill="#FF945E"/>
<path d="M11.0592 45.6254H13.594V48.1602H11.0592V45.6254Z" fill="#FF945E"/>
<path d="M8.52421 45.6254H11.059V48.1602H8.52421V45.6254Z" fill="#FF945E"/>
<path d="M5.98923 45.6254H8.52399V48.1602H5.98923V45.6254Z" fill="#FF945E"/>
<path d="M3.45482 45.6254H5.98956V48.1602H3.45482V45.6254Z" fill="#FF945E"/>
<path d="M0.919814 45.6254H3.45456V48.1602H0.919814V45.6254Z" fill="black"/>
<path d="M46.5457 48.1601H49.0804V50.6948H46.5457V48.1601Z" fill="black"/>
<path d="M44.0107 48.1601H46.5454V50.6948H44.0107V48.1601Z" fill="#FF945E"/>
<path d="M41.4763 48.1601H44.011V50.6948H41.4763V48.1601Z" fill="#FF945E"/>
<path d="M38.9413 48.1601H41.476V50.6948H38.9413V48.1601Z" fill="#FF945E"/>
<path d="M36.4069 48.1601H38.9416V50.6948H36.4069V48.1601Z" fill="#FF945E"/>
<path d="M33.8719 48.1601H36.4066V50.6948H33.8719V48.1601Z" fill="#FF945E"/>
<path d="M31.3369 48.1601H33.8716V50.6948H31.3369V48.1601Z" fill="#FF945E"/>
<path d="M28.8019 48.1601H31.3366V50.6948H28.8019V48.1601Z" fill="#FF945E"/>
<path d="M26.2675 48.1601H28.8022V50.6948H26.2675V48.1601Z" fill="black"/>
<path d="M23.733 48.1601H26.2678V50.6948H23.733V48.1601Z" fill="black"/>
<path d="M21.198 48.1601H23.7328V50.6948H21.198V48.1601Z" fill="black"/>
<path d="M18.6636 48.1601H21.1984V50.6948H18.6636V48.1601Z" fill="#FF945E"/>
<path d="M16.1286 48.1601H18.6634V50.6948H16.1286V48.1601Z" fill="#FF945E"/>
<path d="M13.5936 48.1601H16.1284V50.6948H13.5936V48.1601Z" fill="#FF945E"/>
<path d="M11.0592 48.1601H13.594V50.6948H11.0592V48.1601Z" fill="#FF945E"/>
<path d="M8.52421 48.1601H11.059V50.6948H8.52421V48.1601Z" fill="#FF945E"/>
<path d="M5.98923 48.1601H8.52399V50.6948H5.98923V48.1601Z" fill="#FF945E"/>
<path d="M3.45482 48.1601H5.98956V50.6948H3.45482V48.1601Z" fill="#FF945E"/>
<path d="M0.919814 48.1601H3.45456V50.6948H0.919814V48.1601Z" fill="black"/>
<path d="M46.5457 50.6949H49.0804V53.2297H46.5457V50.6949Z" fill="black"/>
<path d="M44.0107 50.6949H46.5454V53.2297H44.0107V50.6949Z" fill="#F86B40"/>
<path d="M41.4763 50.6949H44.011V53.2297H41.4763V50.6949Z" fill="#F86B40"/>
<path d="M38.9413 50.6949H41.476V53.2297H38.9413V50.6949Z" fill="#F86B40"/>
<path d="M36.4069 50.6949H38.9416V53.2297H36.4069V50.6949Z" fill="#FF945E"/>
<path d="M33.8719 50.6949H36.4066V53.2297H33.8719V50.6949Z" fill="#FF945E"/>
<path d="M31.3369 50.6949H33.8716V53.2297H31.3369V50.6949Z" fill="#FF945E"/>
<path d="M28.8019 50.6949H31.3366V53.2297H28.8019V50.6949Z" fill="#FF945E"/>
<path d="M26.2675 50.6949H28.8022V53.2297H26.2675V50.6949Z" fill="#FF945E"/>
<path d="M23.733 50.6949H26.2678V53.2297H23.733V50.6949Z" fill="#FF945E"/>
<path d="M21.198 50.6949H23.7328V53.2297H21.198V50.6949Z" fill="#FF945E"/>
<path d="M18.6636 50.6949H21.1984V53.2297H18.6636V50.6949Z" fill="#FF945E"/>
<path d="M16.1286 50.6949H18.6634V53.2297H16.1286V50.6949Z" fill="#FF945E"/>
<path d="M13.5936 50.6949H16.1284V53.2297H13.5936V50.6949Z" fill="#FF945E"/>
<path d="M11.0592 50.6949H13.594V53.2297H11.0592V50.6949Z" fill="#FF945E"/>
<path d="M8.52421 50.6949H11.059V53.2297H8.52421V50.6949Z" fill="#F86B40"/>
<path d="M5.98923 50.6949H8.52399V53.2297H5.98923V50.6949Z" fill="#F86B40"/>
<path d="M3.45482 50.6949H5.98956V53.2297H3.45482V50.6949Z" fill="#F86B40"/>
<path d="M0.919814 50.6949H3.45456V53.2297H0.919814V50.6949Z" fill="black"/>
<path d="M46.5457 53.2297H49.0804V55.7644H46.5457V53.2297Z" fill="black"/>
<path d="M44.0107 53.2297H46.5454V55.7644H44.0107V53.2297Z" fill="#F86B40"/>
<path d="M41.4763 53.2297H44.011V55.7644H41.4763V53.2297Z" fill="#F86B40"/>
<path d="M38.9413 53.2297H41.476V55.7644H38.9413V53.2297Z" fill="#F86B40"/>
<path d="M36.4069 53.2297H38.9416V55.7644H36.4069V53.2297Z" fill="#F86B40"/>
<path d="M33.8719 53.2297H36.4066V55.7644H33.8719V53.2297Z" fill="#F86B40"/>
<path d="M31.3369 53.2297H33.8716V55.7644H31.3369V53.2297Z" fill="#F86B40"/>
<path d="M28.8019 53.2297H31.3366V55.7644H28.8019V53.2297Z" fill="#FF945E"/>
<path d="M26.2675 53.2297H28.8022V55.7644H26.2675V53.2297Z" fill="#FF945E"/>
<path d="M23.733 53.2297H26.2678V55.7644H23.733V53.2297Z" fill="#FF945E"/>
<path d="M21.198 53.2297H23.7328V55.7644H21.198V53.2297Z" fill="#FF945E"/>
<path d="M18.6636 53.2297H21.1984V55.7644H18.6636V53.2297Z" fill="#FF945E"/>
<path d="M16.1286 53.2297H18.6634V55.7644H16.1286V53.2297Z" fill="#F86B40"/>
<path d="M13.5936 53.2297H16.1284V55.7644H13.5936V53.2297Z" fill="#F86B40"/>
<path d="M11.0592 53.2297H13.594V55.7644H11.0592V53.2297Z" fill="#F86B40"/>
<path d="M8.52421 53.2297H11.059V55.7644H8.52421V53.2297Z" fill="#F86B40"/>
<path d="M5.98923 53.2297H8.52399V55.7644H5.98923V53.2297Z" fill="#F86B40"/>
<path d="M3.45482 53.2297H5.98956V55.7644H3.45482V53.2297Z" fill="#F86B40"/>
<path d="M0.919814 53.2297H3.45456V55.7644H0.919814V53.2297Z" fill="black"/>
<path d="M44.0107 55.7645H46.5454V58.2993H44.0107V55.7645Z" fill="black"/>
<path d="M41.4763 55.7645H44.011V58.2993H41.4763V55.7645Z" fill="#F86B40"/>
<path d="M38.9413 55.7645H41.476V58.2993H38.9413V55.7645Z" fill="#F86B40"/>
<path d="M36.4069 55.7645H38.9416V58.2993H36.4069V55.7645Z" fill="#F86B40"/>
<path d="M33.8719 55.7645H36.4066V58.2993H33.8719V55.7645Z" fill="#F86B40"/>
<path d="M31.3369 55.7645H33.8716V58.2993H31.3369V55.7645Z" fill="#F86B40"/>
<path d="M28.8019 55.7645H31.3366V58.2993H28.8019V55.7645Z" fill="#F86B40"/>
<path d="M26.2675 55.7645H28.8022V58.2993H26.2675V55.7645Z" fill="#F86B40"/>
<path d="M23.733 55.7645H26.2678V58.2993H23.733V55.7645Z" fill="#F86B40"/>
<path d="M21.198 55.7645H23.7328V58.2993H21.198V55.7645Z" fill="#F86B40"/>
<path d="M18.6636 55.7645H21.1984V58.2993H18.6636V55.7645Z" fill="#F86B40"/>
<path d="M16.1286 55.7645H18.6634V58.2993H16.1286V55.7645Z" fill="#F86B40"/>
<path d="M13.5936 55.7645H16.1284V58.2993H13.5936V55.7645Z" fill="#F86B40"/>
<path d="M11.0592 55.7645H13.594V58.2993H11.0592V55.7645Z" fill="#F86B40"/>
<path d="M8.52421 55.7645H11.059V58.2993H8.52421V55.7645Z" fill="#F86B40"/>
<path d="M5.98923 55.7645H8.52399V58.2993H5.98923V55.7645Z" fill="#F86B40"/>
<path d="M3.45482 55.7645H5.98956V58.2993H3.45482V55.7645Z" fill="black"/>
<path d="M41.4763 58.2991H44.011V60.8338H41.4763V58.2991Z" fill="black"/>
<path d="M38.9413 58.2991H41.476V60.8338H38.9413V58.2991Z" fill="#F86B40"/>
<path d="M36.4069 58.2991H38.9416V60.8338H36.4069V58.2991Z" fill="#F86B40"/>
<path d="M33.8719 58.2991H36.4066V60.8338H33.8719V58.2991Z" fill="#F86B40"/>
<path d="M31.3369 58.2991H33.8716V60.8338H31.3369V58.2991Z" fill="#F86B40"/>
<path d="M28.8019 58.2991H31.3366V60.8338H28.8019V58.2991Z" fill="#F86B40"/>
<path d="M26.2675 58.2991H28.8022V60.8338H26.2675V58.2991Z" fill="#F86B40"/>
<path d="M23.733 58.2991H26.2678V60.8338H23.733V58.2991Z" fill="#F86B40"/>
<path d="M21.198 58.2991H23.7328V60.8338H21.198V58.2991Z" fill="#F86B40"/>
<path d="M18.6636 58.2991H21.1984V60.8338H18.6636V58.2991Z" fill="#F86B40"/>
<path d="M16.1286 58.2991H18.6634V60.8338H16.1286V58.2991Z" fill="#F86B40"/>
<path d="M13.5936 58.2991H16.1284V60.8338H13.5936V58.2991Z" fill="#F86B40"/>
<path d="M11.0592 58.2991H13.594V60.8338H11.0592V58.2991Z" fill="#F86B40"/>
<path d="M8.52421 58.2991H11.059V60.8338H8.52421V58.2991Z" fill="#F86B40"/>
<path d="M5.98923 58.2991H8.52399V60.8338H5.98923V58.2991Z" fill="black"/>
<path d="M38.9413 60.8339H41.476V63.3687H38.9413V60.8339Z" fill="black"/>
<path d="M36.4069 60.8339H38.9416V63.3687H36.4069V60.8339Z" fill="black"/>
<path d="M33.8719 60.8339H36.4066V63.3687H33.8719V60.8339Z" fill="black"/>
<path d="M31.3369 60.8339H33.8716V63.3687H31.3369V60.8339Z" fill="black"/>
<path d="M28.8019 60.8339H31.3366V63.3687H28.8019V60.8339Z" fill="black"/>
<path d="M26.2675 60.8339H28.8022V63.3687H26.2675V60.8339Z" fill="black"/>
<path d="M23.733 60.8339H26.2678V63.3687H23.733V60.8339Z" fill="black"/>
<path d="M21.198 60.8339H23.7328V63.3687H21.198V60.8339Z" fill="black"/>
<path d="M18.6636 60.8339H21.1984V63.3687H18.6636V60.8339Z" fill="black"/>
<path d="M16.1286 60.8339H18.6634V63.3687H16.1286V60.8339Z" fill="black"/>
<path d="M13.5936 60.8339H16.1284V63.3687H13.5936V60.8339Z" fill="black"/>
<path d="M11.0592 60.8339H13.594V63.3687H11.0592V60.8339Z" fill="black"/>
<path d="M8.52421 60.8339H11.059V63.3687H8.52421V60.8339Z" fill="black"/>
</svg>
