<svg width="24" height="24" viewBox="0 0 24 24" fill="none" xmlns="http://www.w3.org/2000/svg">
<circle cx="12" cy="12.0004" r="12" fill="white"/>
<path d="M7.43897 14.8434C7.52212 14.7602 7.63646 14.7117 7.75772 14.7117H18.7545C18.9555 14.7117 19.056 14.9543 18.9139 15.0963L16.7416 17.2686C16.6584 17.3518 16.5441 17.4003 16.4228 17.4003H5.426C5.22505 17.4003 5.12458 17.1578 5.26663 17.0157L7.43897 14.8434Z" fill="black"/>
<path d="M7.439 6.73218C7.52562 6.64903 7.63995 6.60052 7.75775 6.60052H18.7546C18.9555 6.60052 19.056 6.84305 18.914 6.9851L16.7416 9.15744C16.6585 9.24059 16.5441 9.2891 16.4229 9.2891H5.42604C5.22509 9.2891 5.12461 9.04657 5.26666 8.90452L7.439 6.73218Z" fill="black"/>
<path d="M16.7415 10.7617C16.6584 10.6786 16.5441 10.6301 16.4228 10.6301H5.42597C5.22502 10.6301 5.12455 10.8726 5.2666 11.0146L7.43894 13.187C7.52209 13.2701 7.63643 13.3186 7.75769 13.3186H18.7545C18.9555 13.3186 19.0559 13.0761 18.9139 12.9341L16.7415 10.7617Z" fill="black"/>
</svg>
