<svg width="16" height="16" viewBox="0 0 16 16" fill="none" xmlns="http://www.w3.org/2000/svg">
<g clip-path="url(#clip0_11730_5251)">
<path fill-rule="evenodd" clip-rule="evenodd" d="M11.3332 0.667419H4.6665V2.00075H3.33317V3.33409H1.99984V4.66742H0.666504V11.3341H1.99984V12.6674H3.33317V14.0008H4.6665V15.3341H11.3332V14.0008H12.6665V12.6674H13.9998V11.3341H15.3332V4.66742H13.9998V3.33409H12.6665V2.00075H11.3332V0.667419ZM11.3332 2.00075V3.33409H12.6665V4.66742H13.9998V11.3341H11.3332V14.0008H4.6665V12.6674H3.33317V11.3341H1.99984V4.66742H4.6665V2.00075H11.3332ZM6.6665 5.33409H9.33317V8.00075H7.33317V10.3341H8.6665V9.33409H9.33317V8.00075H10.6665V5.33409H9.33317V4.00075H6.6665V5.33409ZM6.6665 5.33409H5.33317V7.33409H6.6665V5.33409ZM7.33317 11.0008V12.3341H8.6665V11.0008H7.33317Z" fill="white"/>
</g>
<defs>
<clipPath id="clip0_11730_5251">
<rect width="16" height="16" fill="white" transform="translate(0 0.000732422)"/>
</clipPath>
</defs>
</svg>
