<svg width="178" height="34" viewBox="0 0 178 34" fill="none" xmlns="http://www.w3.org/2000/svg">
<g clip-path="url(#clip0_1152_28050)">
<rect x="68.5" y="2" width="41" height="30" rx="2" fill="#A19900"/>
<g clip-path="url(#clip1_1152_28050)">
<rect x="68.5" y="2" width="41" height="26" rx="2" fill="#FFEA96"/>
<rect width="41" height="24" transform="translate(68.5 4)" fill="#FCD845"/>
<path d="M78.077 20.6098V21H77.6867V20.6098H78.077ZM78.077 20.2195V20.6098H77.6867V20.2195H78.077ZM78.077 19.8293V20.2195H77.6867V19.8293H78.077ZM78.077 19.439V19.8293H77.6867V19.439H78.077ZM78.077 19.0488V19.439H77.6867V19.0488H78.077ZM78.077 18.6585V19.0488H77.6867V18.6585H78.077ZM78.077 18.2683V18.6585H77.6867V18.2683H78.077ZM78.077 17.878V18.2683H77.6867V17.878H78.077ZM78.077 17.4878V17.878H77.6867V17.4878H78.077ZM78.077 17.0976V17.4878H77.6867V17.0976H78.077ZM78.077 16.7073V17.0976H77.6867V16.7073H78.077ZM78.077 16.3171V16.7073H77.6867V16.3171H78.077ZM78.077 15.9268V16.3171H77.6867V15.9268H78.077ZM78.077 15.5366V15.9268H77.6867V15.5366H78.077ZM78.077 15.1463V15.5366H77.6867V15.1463H78.077ZM78.4672 15.1463V15.5366H78.077V15.1463H78.4672ZM78.4672 15.5366V15.9268H78.077V15.5366H78.4672ZM78.4672 15.9268V16.3171H78.077V15.9268H78.4672ZM78.4672 16.3171V16.7073H78.077V16.3171H78.4672ZM78.4672 16.7073V17.0976H78.077V16.7073H78.4672ZM78.4672 17.0976V17.4878H78.077V17.0976H78.4672ZM78.4672 17.4878V17.878H78.077V17.4878H78.4672ZM78.8575 17.878V18.2683H78.4672V17.878H78.8575ZM78.8575 18.2683V18.6585H78.4672V18.2683H78.8575ZM78.8575 18.6585V19.0488H78.4672V18.6585H78.8575ZM78.8575 19.0488V19.439H78.4672V19.0488H78.8575ZM78.8575 19.439V19.8293H78.4672V19.439H78.8575ZM78.8575 19.8293V20.2195H78.4672V19.8293H78.8575ZM78.8575 20.2195V20.6098H78.4672V20.2195H78.8575ZM78.8575 20.6098V21H78.4672V20.6098H78.8575ZM79.2477 20.6098V21H78.8575V20.6098H79.2477ZM79.638 20.6098V21H79.2477V20.6098H79.638ZM79.638 20.2195V20.6098H79.2477V20.2195H79.638ZM79.638 19.8293V20.2195H79.2477V19.8293H79.638ZM79.638 19.439V19.8293H79.2477V19.439H79.638ZM79.638 19.0488V19.439H79.2477V19.0488H79.638ZM79.638 18.6585V19.0488H79.2477V18.6585H79.638ZM79.638 18.2683V18.6585H79.2477V18.2683H79.638ZM79.638 17.878V18.2683H79.2477V17.878H79.638ZM79.2477 17.878V18.2683H78.8575V17.878H79.2477ZM79.2477 17.4878V17.878H78.8575V17.4878H79.2477ZM79.2477 18.2683V18.6585H78.8575V18.2683H79.2477ZM79.2477 18.6585V19.0488H78.8575V18.6585H79.2477ZM79.2477 19.0488V19.439H78.8575V19.0488H79.2477ZM79.2477 19.439V19.8293H78.8575V19.439H79.2477ZM79.2477 19.8293V20.2195H78.8575V19.8293H79.2477ZM79.2477 20.2195V20.6098H78.8575V20.2195H79.2477ZM78.4672 20.6098V21H78.077V20.6098H78.4672ZM78.4672 20.2195V20.6098H78.077V20.2195H78.4672ZM78.4672 19.8293V20.2195H78.077V19.8293H78.4672ZM78.4672 19.439V19.8293H78.077V19.439H78.4672ZM78.4672 19.0488V19.439H78.077V19.0488H78.4672ZM78.4672 18.6585V19.0488H78.077V18.6585H78.4672ZM78.4672 18.2683V18.6585H78.077V18.2683H78.4672ZM78.4672 17.878V18.2683H78.077V17.878H78.4672ZM78.077 11.2439V11.6341H77.6867V11.2439H78.077ZM78.077 11.6341V12.0244H77.6867V11.6341H78.077ZM78.077 12.0244V12.4146H77.6867V12.0244H78.077ZM78.077 12.4146V12.8049H77.6867V12.4146H78.077ZM78.077 12.8049V13.1951H77.6867V12.8049H78.077ZM78.077 13.1951V13.5854H77.6867V13.1951H78.077ZM78.077 13.5854V13.9756H77.6867V13.5854H78.077ZM78.077 13.9756V14.3659H77.6867V13.9756H78.077ZM78.077 14.3659V14.7561H77.6867V14.3659H78.077ZM78.077 14.7561V15.1463H77.6867V14.7561H78.077ZM79.2477 11.2439V11.6341H78.8575V11.2439H79.2477ZM79.2477 11.6341V12.0244H78.8575V11.6341H79.2477ZM79.2477 12.0244V12.4146H78.8575V12.0244H79.2477ZM79.2477 12.4146V12.8049H78.8575V12.4146H79.2477ZM79.2477 12.8049V13.1951H78.8575V12.8049H79.2477ZM79.2477 13.1951V13.5854H78.8575V13.1951H79.2477ZM79.2477 13.9756V14.3659H78.8575V13.9756H79.2477ZM79.2477 14.3659V14.7561H78.8575V14.3659H79.2477ZM79.2477 14.7561V15.1463H78.8575V14.7561H79.2477ZM79.2477 15.1463V15.5366H78.8575V15.1463H79.2477ZM79.2477 15.5366V15.9268H78.8575V15.5366H79.2477ZM79.2477 15.9268V16.3171H78.8575V15.9268H79.2477ZM79.2477 16.3171V16.7073H78.8575V16.3171H79.2477ZM79.638 16.7073V17.0976H79.2477V16.7073H79.638ZM79.638 17.0976V17.4878H79.2477V17.0976H79.638ZM79.638 17.4878V17.878H79.2477V17.4878H79.638ZM79.638 16.3171V16.7073H79.2477V16.3171H79.638ZM79.638 15.9268V16.3171H79.2477V15.9268H79.638ZM79.638 15.5366V15.9268H79.2477V15.5366H79.638ZM79.638 15.1463V15.5366H79.2477V15.1463H79.638ZM79.638 14.7561V15.1463H79.2477V14.7561H79.638ZM79.638 14.3659V14.7561H79.2477V14.3659H79.638ZM79.638 13.9756V14.3659H79.2477V13.9756H79.638ZM79.638 13.5854V13.9756H79.2477V13.5854H79.638ZM79.638 13.1951V13.5854H79.2477V13.1951H79.638ZM79.638 12.8049V13.1951H79.2477V12.8049H79.638ZM79.2477 13.5854V13.9756H78.8575V13.5854H79.2477ZM79.638 12.4146V12.8049H79.2477V12.4146H79.638ZM79.638 12.0244V12.4146H79.2477V12.0244H79.638ZM79.638 11.6341V12.0244H79.2477V11.6341H79.638ZM79.638 11.2439V11.6341H79.2477V11.2439H79.638ZM78.8575 11.2439V11.6341H78.4672V11.2439H78.8575ZM78.4672 11.2439V11.6341H78.077V11.2439H78.4672ZM78.4672 11.6341V12.0244H78.077V11.6341H78.4672ZM78.8575 11.6341V12.0244H78.4672V11.6341H78.8575ZM78.8575 12.0244V12.4146H78.4672V12.0244H78.8575ZM78.8575 12.4146V12.8049H78.4672V12.4146H78.8575ZM78.8575 12.8049V13.1951H78.4672V12.8049H78.8575ZM78.8575 13.1951V13.5854H78.4672V13.1951H78.8575ZM78.8575 13.5854V13.9756H78.4672V13.5854H78.8575ZM78.8575 13.9756V14.3659H78.4672V13.9756H78.8575ZM78.4672 14.3659V14.7561H78.077V14.3659H78.4672ZM78.4672 14.7561V15.1463H78.077V14.7561H78.4672ZM78.4672 13.9756V14.3659H78.077V13.9756H78.4672ZM78.4672 13.5854V13.9756H78.077V13.5854H78.4672ZM78.4672 13.1951V13.5854H78.077V13.1951H78.4672ZM78.4672 12.8049V13.1951H78.077V12.8049H78.4672ZM78.4672 12.4146V12.8049H78.077V12.4146H78.4672ZM78.4672 12.0244V12.4146H78.077V12.0244H78.4672ZM78.8575 14.3659V14.7561H78.4672V14.3659H78.8575ZM78.8575 14.7561V15.1463H78.4672V14.7561H78.8575ZM78.8575 15.1463V15.5366H78.4672V15.1463H78.8575ZM78.8575 15.5366V15.9268H78.4672V15.5366H78.8575ZM78.8575 15.9268V16.3171H78.4672V15.9268H78.8575ZM78.8575 16.3171V16.7073H78.4672V16.3171H78.8575ZM78.8575 16.7073V17.0976H78.4672V16.7073H78.8575ZM78.8575 17.0976V17.4878H78.4672V17.0976H78.8575ZM78.8575 17.4878V17.878H78.4672V17.4878H78.8575ZM79.2477 17.0976V17.4878H78.8575V17.0976H79.2477ZM79.2477 16.7073V17.0976H78.8575V16.7073H79.2477ZM80.0282 15.9268V16.3171H79.638V15.9268H80.0282ZM80.4184 15.9268V16.3171H80.0282V15.9268H80.4184ZM80.4184 16.3171V16.7073H80.0282V16.3171H80.4184ZM80.0282 16.3171V16.7073H79.638V16.3171H80.0282ZM80.0282 15.1463V15.5366H79.638V15.1463H80.0282ZM80.4184 15.1463V15.5366H80.0282V15.1463H80.4184ZM80.0282 16.7073V17.0976H79.638V16.7073H80.0282ZM80.4184 16.7073V17.0976H80.0282V16.7073H80.4184ZM80.4184 15.5366V15.9268H80.0282V15.5366H80.4184ZM80.0282 15.5366V15.9268H79.638V15.5366H80.0282ZM80.0282 11.2439V11.6341H79.638V11.2439H80.0282ZM80.4184 11.2439V11.6341H80.0282V11.2439H80.4184ZM80.4184 11.6341V12.0244H80.0282V11.6341H80.4184ZM80.0282 11.6341V12.0244H79.638V11.6341H80.0282ZM80.0282 12.0244V12.4146H79.638V12.0244H80.0282ZM80.4184 12.0244V12.4146H80.0282V12.0244H80.4184ZM80.4184 12.4146V12.8049H80.0282V12.4146H80.4184ZM80.0282 12.4146V12.8049H79.638V12.4146H80.0282ZM80.0282 12.8049V13.1951H79.638V12.8049H80.0282ZM80.4184 12.8049V13.1951H80.0282V12.8049H80.4184ZM80.0282 20.6098V21H79.638V20.6098H80.0282ZM80.4184 20.6098V21H80.0282V20.6098H80.4184ZM80.4184 20.2195V20.6098H80.0282V20.2195H80.4184ZM80.4184 19.8293V20.2195H80.0282V19.8293H80.4184ZM80.4184 19.439V19.8293H80.0282V19.439H80.4184ZM80.4184 19.0488V19.439H80.0282V19.0488H80.4184ZM80.0282 19.0488V19.439H79.638V19.0488H80.0282ZM80.0282 19.439V19.8293H79.638V19.439H80.0282ZM80.0282 19.8293V20.2195H79.638V19.8293H80.0282ZM80.0282 20.2195V20.6098H79.638V20.2195H80.0282ZM80.8087 15.1463V15.5366H80.4184V15.1463H80.8087ZM81.1989 15.1463V15.5366H80.8087V15.1463H81.1989ZM81.5892 15.1463V15.5366H81.1989V15.1463H81.5892ZM81.9794 14.7561V15.1463H81.5892V14.7561H81.9794ZM82.3697 14.3659V14.7561H81.9794V14.3659H82.3697ZM82.3697 13.9756V14.3659H81.9794V13.9756H82.3697ZM82.3697 13.5854V13.9756H81.9794V13.5854H82.3697ZM81.9794 13.1951V13.5854H81.5892V13.1951H81.9794ZM81.5892 12.8049V13.1951H81.1989V12.8049H81.5892ZM81.1989 12.8049V13.1951H80.8087V12.8049H81.1989ZM80.8087 12.8049V13.1951H80.4184V12.8049H80.8087ZM80.8087 11.2439V11.6341H80.4184V11.2439H80.8087ZM81.1989 11.2439V11.6341H80.8087V11.2439H81.1989ZM81.5892 11.2439V11.6341H81.1989V11.2439H81.5892ZM81.9794 11.2439V11.6341H81.5892V11.2439H81.9794ZM81.9794 11.6341V12.0244H81.5892V11.6341H81.9794ZM81.9794 12.0244V12.4146H81.5892V12.0244H81.9794ZM81.9794 12.4146V12.8049H81.5892V12.4146H81.9794ZM81.5892 12.4146V12.8049H81.1989V12.4146H81.5892ZM81.5892 12.0244V12.4146H81.1989V12.0244H81.5892ZM81.1989 12.0244V12.4146H80.8087V12.0244H81.1989ZM80.8087 12.0244V12.4146H80.4184V12.0244H80.8087ZM80.8087 11.6341V12.0244H80.4184V11.6341H80.8087ZM81.1989 11.6341V12.0244H80.8087V11.6341H81.1989ZM81.5892 11.6341V12.0244H81.1989V11.6341H81.5892ZM80.8087 12.4146V12.8049H80.4184V12.4146H80.8087ZM81.1989 12.4146V12.8049H80.8087V12.4146H81.1989ZM81.9794 12.8049V13.1951H81.5892V12.8049H81.9794ZM82.3697 13.1951V13.5854H81.9794V13.1951H82.3697ZM82.3697 12.8049V13.1951H81.9794V12.8049H82.3697ZM82.3697 12.4146V12.8049H81.9794V12.4146H82.3697ZM82.3697 12.0244V12.4146H81.9794V12.0244H82.3697ZM82.3697 11.6341V12.0244H81.9794V11.6341H82.3697ZM82.3697 11.2439V11.6341H81.9794V11.2439H82.3697ZM82.3697 14.7561V15.1463H81.9794V14.7561H82.3697ZM82.3697 15.1463V15.5366H81.9794V15.1463H82.3697ZM82.3697 15.5366V15.9268H81.9794V15.5366H82.3697ZM82.3697 15.9268V16.3171H81.9794V15.9268H82.3697ZM81.9794 15.9268V16.3171H81.5892V15.9268H81.9794ZM81.5892 15.9268V16.3171H81.1989V15.9268H81.5892ZM81.1989 15.9268V16.3171H80.8087V15.9268H81.1989ZM80.8087 15.9268V16.3171H80.4184V15.9268H80.8087ZM80.8087 15.5366V15.9268H80.4184V15.5366H80.8087ZM81.1989 15.5366V15.9268H80.8087V15.5366H81.1989ZM81.5892 15.5366V15.9268H81.1989V15.5366H81.5892ZM81.9794 15.5366V15.9268H81.5892V15.5366H81.9794ZM81.9794 15.1463V15.5366H81.5892V15.1463H81.9794ZM80.8087 16.3171V16.7073H80.4184V16.3171H80.8087ZM81.1989 16.3171V16.7073H80.8087V16.3171H81.1989ZM81.5892 16.3171V16.7073H81.1989V16.3171H81.5892ZM81.9794 16.3171V16.7073H81.5892V16.3171H81.9794ZM82.3697 16.3171V16.7073H81.9794V16.3171H82.3697ZM82.3697 16.7073V17.0976H81.9794V16.7073H82.3697ZM81.9794 16.7073V17.0976H81.5892V16.7073H81.9794ZM81.5892 16.7073V17.0976H81.1989V16.7073H81.5892ZM81.1989 16.7073V17.0976H80.8087V16.7073H81.1989ZM80.8087 16.7073V17.0976H80.4184V16.7073H80.8087ZM81.9794 17.0976V17.4878H81.5892V17.0976H81.9794ZM82.3697 17.4878V17.878H81.9794V17.4878H82.3697ZM82.3697 17.0976V17.4878H81.9794V17.0976H82.3697ZM82.3697 17.878V18.2683H81.9794V17.878H82.3697ZM82.3697 18.2683V18.6585H81.9794V18.2683H82.3697ZM80.8087 19.0488V19.439H80.4184V19.0488H80.8087ZM81.1989 19.0488V19.439H80.8087V19.0488H81.1989ZM81.5892 19.0488V19.439H81.1989V19.0488H81.5892ZM81.9794 18.6585V19.0488H81.5892V18.6585H81.9794ZM82.3697 18.6585V19.0488H81.9794V18.6585H82.3697ZM82.3697 19.0488V19.439H81.9794V19.0488H82.3697ZM81.9794 19.0488V19.439H81.5892V19.0488H81.9794ZM82.3697 19.439V19.8293H81.9794V19.439H82.3697ZM82.3697 19.8293V20.2195H81.9794V19.8293H82.3697ZM82.3697 20.2195V20.6098H81.9794V20.2195H82.3697ZM82.3697 20.6098V21H81.9794V20.6098H82.3697ZM81.9794 20.6098V21H81.5892V20.6098H81.9794ZM81.9794 20.2195V20.6098H81.5892V20.2195H81.9794ZM81.5892 20.2195V20.6098H81.1989V20.2195H81.5892ZM81.1989 20.6098V21H80.8087V20.6098H81.1989ZM80.8087 20.6098V21H80.4184V20.6098H80.8087ZM81.5892 20.6098V21H81.1989V20.6098H81.5892ZM81.1989 20.2195V20.6098H80.8087V20.2195H81.1989ZM80.8087 20.2195V20.6098H80.4184V20.2195H80.8087ZM80.8087 19.8293V20.2195H80.4184V19.8293H80.8087ZM81.1989 19.8293V20.2195H80.8087V19.8293H81.1989ZM81.5892 19.8293V20.2195H81.1989V19.8293H81.5892ZM81.9794 19.8293V20.2195H81.5892V19.8293H81.9794ZM81.9794 19.439V19.8293H81.5892V19.439H81.9794ZM81.5892 19.439V19.8293H81.1989V19.439H81.5892ZM81.1989 19.439V19.8293H80.8087V19.439H81.1989ZM80.8087 19.439V19.8293H80.4184V19.439H80.8087ZM82.7599 11.6341V12.0244H82.3697V11.6341H82.7599ZM83.1502 11.6341V12.0244H82.7599V11.6341H83.1502ZM83.1502 12.0244V12.4146H82.7599V12.0244H83.1502ZM83.5404 12.0244V12.4146H83.1502V12.0244H83.5404ZM83.5404 12.4146V12.8049H83.1502V12.4146H83.5404ZM83.5404 12.8049V13.1951H83.1502V12.8049H83.5404ZM83.9306 12.8049V13.1951H83.5404V12.8049H83.9306ZM83.9306 13.1951V13.5854H83.5404V13.1951H83.9306ZM83.9306 13.5854V13.9756H83.5404V13.5854H83.9306ZM83.9306 13.9756V14.3659H83.5404V13.9756H83.9306ZM83.9306 14.3659V14.7561H83.5404V14.3659H83.9306ZM83.9306 14.7561V15.1463H83.5404V14.7561H83.9306ZM83.9306 15.1463V15.5366H83.5404V15.1463H83.9306ZM83.5404 15.5366V15.9268H83.1502V15.5366H83.5404ZM83.1502 15.9268V16.3171H82.7599V15.9268H83.1502ZM83.5404 16.3171V16.7073H83.1502V16.3171H83.5404ZM83.9306 16.7073V17.0976H83.5404V16.7073H83.9306ZM82.7599 20.2195V20.6098H82.3697V20.2195H82.7599ZM83.1502 20.2195V20.6098H82.7599V20.2195H83.1502ZM83.5404 19.8293V20.2195H83.1502V19.8293H83.5404ZM83.9306 19.0488V19.439H83.5404V19.0488H83.9306ZM83.1502 19.8293V20.2195H82.7599V19.8293H83.1502ZM83.1502 19.439V19.8293H82.7599V19.439H83.1502ZM83.5404 19.439V19.8293H83.1502V19.439H83.5404ZM83.9306 18.6585V19.0488H83.5404V18.6585H83.9306ZM83.9306 18.2683V18.6585H83.5404V18.2683H83.9306ZM83.9306 17.878V18.2683H83.5404V17.878H83.9306ZM83.9306 17.4878V17.878H83.5404V17.4878H83.9306ZM83.9306 17.0976V17.4878H83.5404V17.0976H83.9306ZM82.7599 16.3171V16.7073H82.3697V16.3171H82.7599ZM83.1502 16.3171V16.7073H82.7599V16.3171H83.1502ZM83.1502 16.7073V17.0976H82.7599V16.7073H83.1502ZM82.7599 16.7073V17.0976H82.3697V16.7073H82.7599ZM83.5404 16.7073V17.0976H83.1502V16.7073H83.5404ZM83.5404 17.0976V17.4878H83.1502V17.0976H83.5404ZM83.5404 17.4878V17.878H83.1502V17.4878H83.5404ZM83.5404 17.878V18.2683H83.1502V17.878H83.5404ZM83.5404 18.2683V18.6585H83.1502V18.2683H83.5404ZM83.5404 18.6585V19.0488H83.1502V18.6585H83.5404ZM83.5404 19.0488V19.439H83.1502V19.0488H83.5404ZM83.1502 19.0488V19.439H82.7599V19.0488H83.1502ZM83.1502 18.6585V19.0488H82.7599V18.6585H83.1502ZM83.1502 18.2683V18.6585H82.7599V18.2683H83.1502ZM83.1502 17.878V18.2683H82.7599V17.878H83.1502ZM83.1502 17.4878V17.878H82.7599V17.4878H83.1502ZM83.1502 17.0976V17.4878H82.7599V17.0976H83.1502ZM82.7599 17.0976V17.4878H82.3697V17.0976H82.7599ZM82.7599 17.4878V17.878H82.3697V17.4878H82.7599ZM82.7599 17.878V18.2683H82.3697V17.878H82.7599ZM82.7599 18.2683V18.6585H82.3697V18.2683H82.7599ZM82.7599 18.6585V19.0488H82.3697V18.6585H82.7599ZM82.7599 19.0488V19.439H82.3697V19.0488H82.7599ZM82.7599 19.439V19.8293H82.3697V19.439H82.7599ZM82.7599 19.8293V20.2195H82.3697V19.8293H82.7599ZM82.7599 12.0244V12.4146H82.3697V12.0244H82.7599ZM82.7599 12.4146V12.8049H82.3697V12.4146H82.7599ZM82.7599 12.8049V13.1951H82.3697V12.8049H82.7599ZM82.7599 13.1951V13.5854H82.3697V13.1951H82.7599ZM82.7599 13.5854V13.9756H82.3697V13.5854H82.7599ZM82.7599 13.9756V14.3659H82.3697V13.9756H82.7599ZM82.7599 14.3659V14.7561H82.3697V14.3659H82.7599ZM82.7599 14.7561V15.1463H82.3697V14.7561H82.7599ZM82.7599 15.1463V15.5366H82.3697V15.1463H82.7599ZM82.7599 15.5366V15.9268H82.3697V15.5366H82.7599ZM82.7599 15.9268V16.3171H82.3697V15.9268H82.7599ZM83.1502 15.5366V15.9268H82.7599V15.5366H83.1502ZM83.1502 15.1463V15.5366H82.7599V15.1463H83.1502ZM83.1502 14.7561V15.1463H82.7599V14.7561H83.1502ZM83.1502 14.3659V14.7561H82.7599V14.3659H83.1502ZM83.1502 13.9756V14.3659H82.7599V13.9756H83.1502ZM83.1502 13.5854V13.9756H82.7599V13.5854H83.1502ZM83.1502 13.1951V13.5854H82.7599V13.1951H83.1502ZM83.1502 12.8049V13.1951H82.7599V12.8049H83.1502ZM83.1502 12.4146V12.8049H82.7599V12.4146H83.1502ZM83.5404 13.1951V13.5854H83.1502V13.1951H83.5404ZM83.5404 13.5854V13.9756H83.1502V13.5854H83.5404ZM83.5404 13.9756V14.3659H83.1502V13.9756H83.5404ZM83.5404 14.3659V14.7561H83.1502V14.3659H83.5404ZM83.5404 14.7561V15.1463H83.1502V14.7561H83.5404ZM83.5404 15.1463V15.5366H83.1502V15.1463H83.5404ZM85.8895 19.0488V19.439H85.4992V19.0488H85.8895ZM85.8895 18.6585V19.0488H85.4992V18.6585H85.8895ZM85.8895 18.2683V18.6585H85.4992V18.2683H85.8895ZM85.8895 17.878V18.2683H85.4992V17.878H85.8895ZM85.8895 17.4878V17.878H85.4992V17.4878H85.8895ZM85.8895 17.0976V17.4878H85.4992V17.0976H85.8895ZM85.8895 16.7073V17.0976H85.4992V16.7073H85.8895ZM85.8895 16.3171V16.7073H85.4992V16.3171H85.8895ZM85.8895 15.9268V16.3171H85.4992V15.9268H85.8895ZM85.8895 15.5366V15.9268H85.4992V15.5366H85.8895ZM85.8895 15.1463V15.5366H85.4992V15.1463H85.8895ZM86.2797 15.1463V15.5366H85.8895V15.1463H86.2797ZM86.2797 15.5366V15.9268H85.8895V15.5366H86.2797ZM86.2797 15.9268V16.3171H85.8895V15.9268H86.2797ZM86.2797 16.3171V16.7073H85.8895V16.3171H86.2797ZM86.2797 16.7073V17.0976H85.8895V16.7073H86.2797ZM86.2797 17.0976V17.4878H85.8895V17.0976H86.2797ZM86.2797 17.4878V17.878H85.8895V17.4878H86.2797ZM86.67 17.878V18.2683H86.2797V17.878H86.67ZM86.67 18.2683V18.6585H86.2797V18.2683H86.67ZM86.67 18.6585V19.0488H86.2797V18.6585H86.67ZM86.67 19.0488V19.439H86.2797V19.0488H86.67ZM86.67 19.439V19.8293H86.2797V19.439H86.67ZM86.67 19.8293V20.2195H86.2797V19.8293H86.67ZM86.67 20.2195V20.6098H86.2797V20.2195H86.67ZM87.4505 20.6098V21H87.0602V20.6098H87.4505ZM87.4505 20.2195V20.6098H87.0602V20.2195H87.4505ZM87.4505 19.8293V20.2195H87.0602V19.8293H87.4505ZM87.4505 19.439V19.8293H87.0602V19.439H87.4505ZM87.4505 19.0488V19.439H87.0602V19.0488H87.4505ZM87.4505 18.6585V19.0488H87.0602V18.6585H87.4505ZM87.4505 18.2683V18.6585H87.0602V18.2683H87.4505ZM87.4505 17.878V18.2683H87.0602V17.878H87.4505ZM87.0602 17.878V18.2683H86.67V17.878H87.0602ZM87.0602 17.4878V17.878H86.67V17.4878H87.0602ZM87.0602 18.2683V18.6585H86.67V18.2683H87.0602ZM87.0602 18.6585V19.0488H86.67V18.6585H87.0602ZM87.0602 19.0488V19.439H86.67V19.0488H87.0602ZM87.0602 19.439V19.8293H86.67V19.439H87.0602ZM87.0602 19.8293V20.2195H86.67V19.8293H87.0602ZM87.0602 20.2195V20.6098H86.67V20.2195H87.0602ZM86.2797 19.8293V20.2195H85.8895V19.8293H86.2797ZM86.2797 19.439V19.8293H85.8895V19.439H86.2797ZM86.2797 19.0488V19.439H85.8895V19.0488H86.2797ZM86.2797 18.6585V19.0488H85.8895V18.6585H86.2797ZM86.2797 18.2683V18.6585H85.8895V18.2683H86.2797ZM86.2797 17.878V18.2683H85.8895V17.878H86.2797ZM85.8895 14.7561V15.1463H85.4992V14.7561H85.8895ZM87.0602 14.7561V15.1463H86.67V14.7561H87.0602ZM87.0602 15.1463V15.5366H86.67V15.1463H87.0602ZM87.0602 15.5366V15.9268H86.67V15.5366H87.0602ZM87.0602 15.9268V16.3171H86.67V15.9268H87.0602ZM87.0602 16.3171V16.7073H86.67V16.3171H87.0602ZM87.4505 16.7073V17.0976H87.0602V16.7073H87.4505ZM87.4505 17.0976V17.4878H87.0602V17.0976H87.4505ZM87.4505 17.4878V17.878H87.0602V17.4878H87.4505ZM87.4505 16.3171V16.7073H87.0602V16.3171H87.4505ZM87.4505 15.9268V16.3171H87.0602V15.9268H87.4505ZM87.4505 15.5366V15.9268H87.0602V15.5366H87.4505ZM87.4505 15.1463V15.5366H87.0602V15.1463H87.4505ZM87.4505 14.7561V15.1463H87.0602V14.7561H87.4505ZM86.2797 14.7561V15.1463H85.8895V14.7561H86.2797ZM86.67 14.7561V15.1463H86.2797V14.7561H86.67ZM86.67 15.1463V15.5366H86.2797V15.1463H86.67ZM86.67 15.5366V15.9268H86.2797V15.5366H86.67ZM86.67 15.9268V16.3171H86.2797V15.9268H86.67ZM86.67 16.3171V16.7073H86.2797V16.3171H86.67ZM86.67 16.7073V17.0976H86.2797V16.7073H86.67ZM86.67 17.0976V17.4878H86.2797V17.0976H86.67ZM86.67 17.4878V17.878H86.2797V17.4878H86.67ZM87.0602 17.0976V17.4878H86.67V17.0976H87.0602ZM87.0602 16.7073V17.0976H86.67V16.7073H87.0602ZM90.5724 20.6098V21H90.1822V20.6098H90.5724ZM90.5724 20.2195V20.6098H90.1822V20.2195H90.5724ZM90.5724 19.8293V20.2195H90.1822V19.8293H90.5724ZM90.5724 19.439V19.8293H90.1822V19.439H90.5724ZM90.5724 19.0488V19.439H90.1822V19.0488H90.5724ZM90.5724 18.6585V19.0488H90.1822V18.6585H90.5724ZM90.5724 18.2683V18.6585H90.1822V18.2683H90.5724ZM90.5724 17.878V18.2683H90.1822V17.878H90.5724ZM90.5724 17.4878V17.878H90.1822V17.4878H90.5724ZM90.5724 17.0976V17.4878H90.1822V17.0976H90.5724ZM90.5724 16.7073V17.0976H90.1822V16.7073H90.5724ZM90.5724 16.3171V16.7073H90.1822V16.3171H90.5724ZM90.5724 15.9268V16.3171H90.1822V15.9268H90.5724ZM90.5724 15.5366V15.9268H90.1822V15.5366H90.5724ZM90.5724 15.1463V15.5366H90.1822V15.1463H90.5724ZM90.9627 15.1463V15.5366H90.5724V15.1463H90.9627ZM90.9627 15.5366V15.9268H90.5724V15.5366H90.9627ZM90.9627 15.9268V16.3171H90.5724V15.9268H90.9627ZM90.9627 16.3171V16.7073H90.5724V16.3171H90.9627ZM90.9627 16.7073V17.0976H90.5724V16.7073H90.9627ZM90.9627 17.0976V17.4878H90.5724V17.0976H90.9627ZM90.9627 17.4878V17.878H90.5724V17.4878H90.9627ZM91.3529 17.878V18.2683H90.9627V17.878H91.3529ZM91.3529 18.2683V18.6585H90.9627V18.2683H91.3529ZM91.3529 18.6585V19.0488H90.9627V18.6585H91.3529ZM91.3529 19.0488V19.439H90.9627V19.0488H91.3529ZM91.3529 19.439V19.8293H90.9627V19.439H91.3529ZM91.3529 19.8293V20.2195H90.9627V19.8293H91.3529ZM91.3529 20.2195V20.6098H90.9627V20.2195H91.3529ZM92.1334 19.0488V19.439H91.7431V19.0488H92.1334ZM92.1334 18.6585V19.0488H91.7431V18.6585H92.1334ZM92.1334 18.2683V18.6585H91.7431V18.2683H92.1334ZM92.1334 17.878V18.2683H91.7431V17.878H92.1334ZM91.7431 17.878V18.2683H91.3529V17.878H91.7431ZM91.7431 17.4878V17.878H91.3529V17.4878H91.7431ZM91.7431 18.2683V18.6585H91.3529V18.2683H91.7431ZM91.7431 18.6585V19.0488H91.3529V18.6585H91.7431ZM91.7431 19.0488V19.439H91.3529V19.0488H91.7431ZM91.7431 19.439V19.8293H91.3529V19.439H91.7431ZM91.7431 19.8293V20.2195H91.3529V19.8293H91.7431ZM90.9627 20.2195V20.6098H90.5724V20.2195H90.9627ZM90.9627 19.8293V20.2195H90.5724V19.8293H90.9627ZM90.9627 19.439V19.8293H90.5724V19.439H90.9627ZM90.9627 19.0488V19.439H90.5724V19.0488H90.9627ZM90.9627 18.6585V19.0488H90.5724V18.6585H90.9627ZM90.9627 18.2683V18.6585H90.5724V18.2683H90.9627ZM90.9627 17.878V18.2683H90.5724V17.878H90.9627ZM90.5724 14.7561V15.1463H90.1822V14.7561H90.5724ZM91.7431 14.7561V15.1463H91.3529V14.7561H91.7431ZM91.7431 15.1463V15.5366H91.3529V15.1463H91.7431ZM91.7431 15.5366V15.9268H91.3529V15.5366H91.7431ZM91.7431 15.9268V16.3171H91.3529V15.9268H91.7431ZM91.7431 16.3171V16.7073H91.3529V16.3171H91.7431ZM92.1334 16.7073V17.0976H91.7431V16.7073H92.1334ZM92.1334 17.0976V17.4878H91.7431V17.0976H92.1334ZM92.1334 17.4878V17.878H91.7431V17.4878H92.1334ZM92.1334 16.3171V16.7073H91.7431V16.3171H92.1334ZM92.1334 15.9268V16.3171H91.7431V15.9268H92.1334ZM92.1334 15.5366V15.9268H91.7431V15.5366H92.1334ZM92.1334 15.1463V15.5366H91.7431V15.1463H92.1334ZM92.1334 14.7561V15.1463H91.7431V14.7561H92.1334ZM90.9627 14.7561V15.1463H90.5724V14.7561H90.9627ZM91.3529 14.7561V15.1463H90.9627V14.7561H91.3529ZM91.3529 15.1463V15.5366H90.9627V15.1463H91.3529ZM91.3529 15.5366V15.9268H90.9627V15.5366H91.3529ZM91.3529 15.9268V16.3171H90.9627V15.9268H91.3529ZM91.3529 16.3171V16.7073H90.9627V16.3171H91.3529ZM91.3529 16.7073V17.0976H90.9627V16.7073H91.3529ZM91.3529 17.0976V17.4878H90.9627V17.0976H91.3529ZM91.3529 17.4878V17.878H90.9627V17.4878H91.3529ZM91.7431 17.0976V17.4878H91.3529V17.0976H91.7431ZM91.7431 16.7073V17.0976H91.3529V16.7073H91.7431ZM87.8407 20.6098V21H87.4505V20.6098H87.8407ZM88.2309 20.6098V21H87.8407V20.6098H88.2309ZM89.0114 20.6098V21H88.6212V20.6098H89.0114ZM89.4017 20.6098V21H89.0114V20.6098H89.4017ZM89.7919 20.6098V21H89.4017V20.6098H89.7919ZM90.1822 20.6098V21H89.7919V20.6098H90.1822ZM90.1822 20.2195V20.6098H89.7919V20.2195H90.1822ZM89.7919 20.2195V20.6098H89.4017V20.2195H89.7919ZM89.4017 20.2195V20.6098H89.0114V20.2195H89.4017ZM89.0114 20.2195V20.6098H88.6212V20.2195H89.0114ZM88.2309 20.2195V20.6098H87.8407V20.2195H88.2309ZM87.8407 20.2195V20.6098H87.4505V20.2195H87.8407ZM87.8407 19.8293V20.2195H87.4505V19.8293H87.8407ZM88.2309 19.8293V20.2195H87.8407V19.8293H88.2309ZM89.0114 19.8293V20.2195H88.6212V19.8293H89.0114ZM89.4017 19.8293V20.2195H89.0114V19.8293H89.4017ZM89.7919 19.8293V20.2195H89.4017V19.8293H89.7919ZM90.1822 19.8293V20.2195H89.7919V19.8293H90.1822ZM90.1822 19.439V19.8293H89.7919V19.439H90.1822ZM89.7919 19.439V19.8293H89.4017V19.439H89.7919ZM89.4017 19.439V19.8293H89.0114V19.439H89.4017ZM89.0114 19.439V19.8293H88.6212V19.439H89.0114ZM88.2309 19.439V19.8293H87.8407V19.439H88.2309ZM87.8407 19.439V19.8293H87.4505V19.439H87.8407ZM87.8407 19.0488V19.439H87.4505V19.0488H87.8407ZM90.1822 19.0488V19.439H89.7919V19.0488H90.1822ZM91.7431 13.1951V12.8049H92.1334V13.1951H91.7431ZM91.7431 13.5854V13.1951H92.1334V13.5854H91.7431ZM91.7431 13.9756V13.5854H92.1334V13.9756H91.7431ZM90.9627 13.9756V13.5854H91.3529V13.9756H90.9627ZM90.9627 13.5854V13.1951H91.3529V13.5854H90.9627ZM90.9627 13.1951V12.8049H91.3529V13.1951H90.9627ZM90.9627 12.8049V12.4146H91.3529V12.8049H90.9627ZM90.9627 12.4146V12.0244H91.3529V12.4146H90.9627ZM90.9627 12.0244V11.6341H91.3529V12.0244H90.9627ZM90.1822 11.6341V11.2439H90.5724V11.6341H90.1822ZM90.1822 12.0244V11.6341H90.5724V12.0244H90.1822ZM90.1822 12.4146V12.0244H90.5724V12.4146H90.1822ZM90.1822 12.8049V12.4146H90.5724V12.8049H90.1822ZM90.1822 13.1951V12.8049H90.5724V13.1951H90.1822ZM90.1822 13.5854V13.1951H90.5724V13.5854H90.1822ZM90.1822 13.9756V13.5854H90.5724V13.9756H90.1822ZM90.5724 13.9756V13.5854H90.9627V13.9756H90.5724ZM90.5724 13.5854V13.1951H90.9627V13.5854H90.5724ZM90.5724 13.1951V12.8049H90.9627V13.1951H90.5724ZM90.5724 12.8049V12.4146H90.9627V12.8049H90.5724ZM90.5724 12.4146V12.0244H90.9627V12.4146H90.5724ZM90.5724 12.0244V11.6341H90.9627V12.0244H90.5724ZM91.3529 12.4146V12.0244H91.7431V12.4146H91.3529ZM91.3529 12.8049V12.4146H91.7431V12.8049H91.3529ZM91.3529 13.1951V12.8049H91.7431V13.1951H91.3529ZM91.3529 13.5854V13.1951H91.7431V13.5854H91.3529ZM91.3529 13.9756V13.5854H91.7431V13.9756H91.3529ZM87.0602 11.6341V11.2439H87.4505V11.6341H87.0602ZM87.0602 12.0244V11.6341H87.4505V12.0244H87.0602ZM87.0602 12.4146V12.0244H87.4505V12.4146H87.0602ZM87.0602 12.8049V12.4146H87.4505V12.8049H87.0602ZM87.0602 13.1951V12.8049H87.4505V13.1951H87.0602ZM87.0602 13.5854V13.1951H87.4505V13.5854H87.0602ZM87.0602 13.9756V13.5854H87.4505V13.9756H87.0602ZM86.2797 13.9756V13.5854H86.67V13.9756H86.2797ZM86.2797 13.5854V13.1951H86.67V13.5854H86.2797ZM86.2797 13.1951V12.8049H86.67V13.1951H86.2797ZM86.2797 12.8049V12.4146H86.67V12.8049H86.2797ZM86.2797 12.4146V12.0244H86.67V12.4146H86.2797ZM86.2797 12.0244V11.6341H86.67V12.0244H86.2797ZM85.4992 13.1951V12.8049H85.8895V13.1951H85.4992ZM85.4992 13.5854V13.1951H85.8895V13.5854H85.4992ZM85.4992 13.9756V13.5854H85.8895V13.9756H85.4992ZM85.8895 13.9756V13.5854H86.2797V13.9756H85.8895ZM85.8895 13.5854V13.1951H86.2797V13.5854H85.8895ZM85.8895 13.1951V12.8049H86.2797V13.1951H85.8895ZM85.8895 12.8049V12.4146H86.2797V12.8049H85.8895ZM85.8895 12.4146V12.0244H86.2797V12.4146H85.8895ZM86.67 12.0244V11.6341H87.0602V12.0244H86.67ZM86.67 12.4146V12.0244H87.0602V12.4146H86.67ZM86.67 12.8049V12.4146H87.0602V12.8049H86.67ZM86.67 13.1951V12.8049H87.0602V13.1951H86.67ZM86.67 13.5854V13.1951H87.0602V13.5854H86.67ZM86.67 13.9756V13.5854H87.0602V13.9756H86.67ZM85.8895 14.3659V14.7561H85.4992V14.3659H85.8895ZM86.2797 14.3659V14.7561H85.8895V14.3659H86.2797ZM85.8895 13.9756V14.3659H85.4992V13.9756H85.8895ZM87.0602 13.9756V14.3659H86.67V13.9756H87.0602ZM87.0602 14.3659V14.7561H86.67V14.3659H87.0602ZM87.4505 14.3659V14.7561H87.0602V14.3659H87.4505ZM87.4505 13.9756V14.3659H87.0602V13.9756H87.4505ZM86.2797 13.9756V14.3659H85.8895V13.9756H86.2797ZM86.67 13.9756V14.3659H86.2797V13.9756H86.67ZM86.67 14.3659V14.7561H86.2797V14.3659H86.67ZM90.5724 14.3659V14.7561H90.1822V14.3659H90.5724ZM90.9627 14.3659V14.7561H90.5724V14.3659H90.9627ZM90.5724 13.9756V14.3659H90.1822V13.9756H90.5724ZM91.7431 13.9756V14.3659H91.3529V13.9756H91.7431ZM91.7431 14.3659V14.7561H91.3529V14.3659H91.7431ZM92.1334 14.3659V14.7561H91.7431V14.3659H92.1334ZM92.1334 13.9756V14.3659H91.7431V13.9756H92.1334ZM90.9627 13.9756V14.3659H90.5724V13.9756H90.9627ZM91.3529 13.9756V14.3659H90.9627V13.9756H91.3529ZM91.3529 14.3659V14.7561H90.9627V14.3659H91.3529ZM88.2309 19.0488V19.439H87.8407V19.0488H88.2309ZM89.0114 19.0488V19.439H88.6212V19.0488H89.0114ZM89.4017 19.0488V19.439H89.0114V19.0488H89.4017ZM89.7919 19.0488V19.439H89.4017V19.0488H89.7919ZM90.1822 18.6585V19.0488H89.7919V18.6585H90.1822ZM87.8407 18.6585V19.0488H87.4505V18.6585H87.8407ZM85.8895 12.4146V12.8049H85.4992V12.4146H85.8895ZM85.8895 12.0244V12.4146H85.4992V12.0244H85.8895ZM85.8895 11.6341V12.0244H85.4992V11.6341H85.8895ZM85.8895 11.2439V11.6341H85.4992V11.2439H85.8895ZM86.2797 11.2439V11.6341H85.8895V11.2439H86.2797ZM86.67 11.2439V11.6341H86.2797V11.2439H86.67ZM87.0602 11.2439V11.6341H86.67V11.2439H87.0602ZM86.2797 11.6341V12.0244H85.8895V11.6341H86.2797ZM90.9627 11.2439V11.6341H90.5724V11.2439H90.9627ZM91.3529 11.2439V11.6341H90.9627V11.2439H91.3529ZM91.7431 11.2439V11.6341H91.3529V11.2439H91.7431ZM92.1334 11.2439V11.6341H91.7431V11.2439H92.1334ZM92.1334 11.6341V12.0244H91.7431V11.6341H92.1334ZM92.1334 12.0244V12.4146H91.7431V12.0244H92.1334ZM92.1334 12.4146V12.8049H91.7431V12.4146H92.1334ZM91.7431 11.6341V12.0244H91.3529V11.6341H91.7431ZM88.6212 19.0488V19.439H88.2309V19.0488H88.6212ZM88.6212 19.439V19.8293H88.2309V19.439H88.6212ZM88.6212 19.8293V20.2195H88.2309V19.8293H88.6212ZM88.6212 20.2195V20.6098H88.2309V20.2195H88.6212ZM88.6212 20.6098V21H88.2309V20.6098H88.6212ZM94.077 11.6341H93.6867V11.2439H94.077V11.6341ZM94.077 12.0244H93.6867V11.6341H94.077V12.0244ZM94.077 12.4146H93.6867V12.0244H94.077V12.4146ZM94.077 12.8049H93.6867V12.4146H94.077V12.8049ZM94.077 13.1951H93.6867V12.8049H94.077V13.1951ZM94.077 13.5854H93.6867V13.1951H94.077V13.5854ZM94.077 13.9756H93.6867V13.5854H94.077V13.9756ZM94.077 14.3659H93.6867V13.9756H94.077V14.3659ZM94.4672 14.3659H94.077V13.9756H94.4672V14.3659ZM94.4672 13.9756H94.077V13.5854H94.4672V13.9756ZM94.4672 13.5854H94.077V13.1951H94.4672V13.5854ZM94.4672 13.1951H94.077V12.8049H94.4672V13.1951ZM94.4672 12.8049H94.077V12.4146H94.4672V12.8049ZM94.4672 12.4146H94.077V12.0244H94.4672V12.4146ZM94.4672 12.0244H94.077V11.6341H94.4672V12.0244ZM94.8575 11.6341H94.4672V11.2439H94.8575V11.6341ZM95.638 11.6341H95.2477V11.2439H95.638V11.6341ZM95.2477 11.6341H94.8575V11.2439H95.2477V11.6341ZM95.2477 12.0244H94.8575V11.6341H95.2477V12.0244ZM94.4672 11.6341H94.077V11.2439H94.4672V11.6341ZM94.077 15.5366H93.6867V15.1463H94.077V15.5366ZM94.077 15.1463H93.6867V14.7561H94.077V15.1463ZM94.077 14.7561H93.6867V14.3659H94.077V14.7561ZM95.2477 16.3171H94.8575V15.9268H95.2477V16.3171ZM95.2477 15.5366H94.8575V15.1463H95.2477V15.5366ZM95.2477 15.1463H94.8575V14.7561H95.2477V15.1463ZM95.2477 14.7561H94.8575V14.3659H95.2477V14.7561ZM95.2477 14.3659H94.8575V13.9756H95.2477V14.3659ZM95.2477 13.9756H94.8575V13.5854H95.2477V13.9756ZM95.2477 13.5854H94.8575V13.1951H95.2477V13.5854ZM95.2477 13.1951H94.8575V12.8049H95.2477V13.1951ZM95.638 12.8049H95.2477V12.4146H95.638V12.8049ZM95.638 12.4146H95.2477V12.0244H95.638V12.4146ZM95.638 12.0244H95.2477V11.6341H95.638V12.0244ZM95.638 13.1951H95.2477V12.8049H95.638V13.1951ZM95.638 13.5854H95.2477V13.1951H95.638V13.5854ZM95.638 13.9756H95.2477V13.5854H95.638V13.9756ZM95.638 14.3659H95.2477V13.9756H95.638V14.3659ZM95.638 14.7561H95.2477V14.3659H95.638V14.7561ZM95.638 15.1463H95.2477V14.7561H95.638V15.1463ZM95.638 15.5366H95.2477V15.1463H95.638V15.5366ZM95.638 15.9268H95.2477V15.5366H95.638V15.9268ZM95.638 16.3171H95.2477V15.9268H95.638V16.3171ZM95.638 16.7073H95.2477V16.3171H95.638V16.7073ZM95.2477 15.9268H94.8575V15.5366H95.2477V15.9268ZM95.638 17.0976H95.2477V16.7073H95.638V17.0976ZM95.638 17.4878H95.2477V17.0976H95.638V17.4878ZM94.8575 16.3171H94.4672V15.9268H94.8575V16.3171ZM94.8575 15.9268H94.4672V15.5366H94.8575V15.9268ZM94.8575 15.5366H94.4672V15.1463H94.8575V15.5366ZM94.4672 15.1463H94.077V14.7561H94.4672V15.1463ZM94.4672 14.7561H94.077V14.3659H94.4672V14.7561ZM94.4672 15.5366H94.077V15.1463H94.4672V15.5366ZM94.4672 15.9268H94.077V15.5366H94.4672V15.9268ZM94.8575 15.1463H94.4672V14.7561H94.8575V15.1463ZM94.8575 14.7561H94.4672V14.3659H94.8575V14.7561ZM94.8575 14.3659H94.4672V13.9756H94.8575V14.3659ZM94.8575 13.9756H94.4672V13.5854H94.8575V13.9756ZM94.8575 13.5854H94.4672V13.1951H94.8575V13.5854ZM94.8575 13.1951H94.4672V12.8049H94.8575V13.1951ZM94.8575 12.8049H94.4672V12.4146H94.8575V12.8049ZM94.8575 12.4146H94.4672V12.0244H94.8575V12.4146ZM94.8575 12.0244H94.4672V11.6341H94.8575V12.0244ZM95.2477 12.4146H94.8575V12.0244H95.2477V12.4146ZM95.2477 12.8049H94.8575V12.4146H95.2477V12.8049ZM98.7599 11.6341H98.3697V11.2439H98.7599V11.6341ZM98.7599 12.0244H98.3697V11.6341H98.7599V12.0244ZM98.7599 12.4146H98.3697V12.0244H98.7599V12.4146ZM98.7599 12.8049H98.3697V12.4146H98.7599V12.8049ZM98.7599 13.1951H98.3697V12.8049H98.7599V13.1951ZM98.7599 13.5854H98.3697V13.1951H98.7599V13.5854ZM98.7599 13.9756H98.3697V13.5854H98.7599V13.9756ZM98.7599 14.3659H98.3697V13.9756H98.7599V14.3659ZM99.1502 14.3659H98.7599V13.9756H99.1502V14.3659ZM99.1502 13.9756H98.7599V13.5854H99.1502V13.9756ZM99.1502 13.5854H98.7599V13.1951H99.1502V13.5854ZM99.1502 13.1951H98.7599V12.8049H99.1502V13.1951ZM99.1502 12.8049H98.7599V12.4146H99.1502V12.8049ZM99.1502 12.4146H98.7599V12.0244H99.1502V12.4146ZM99.1502 12.0244H98.7599V11.6341H99.1502V12.0244ZM99.5404 11.6341H99.1502V11.2439H99.5404V11.6341ZM100.321 11.6341H99.9306V11.2439H100.321V11.6341ZM99.9306 11.6341H99.5404V11.2439H99.9306V11.6341ZM99.9306 12.0244H99.5404V11.6341H99.9306V12.0244ZM99.1502 11.6341H98.7599V11.2439H99.1502V11.6341ZM98.7599 17.4878H98.3697V17.0976H98.7599V17.4878ZM98.7599 17.0976H98.3697V16.7073H98.7599V17.0976ZM98.7599 16.7073H98.3697V16.3171H98.7599V16.7073ZM98.7599 16.3171H98.3697V15.9268H98.7599V16.3171ZM98.7599 15.9268H98.3697V15.5366H98.7599V15.9268ZM98.7599 15.5366H98.3697V15.1463H98.7599V15.5366ZM98.7599 15.1463H98.3697V14.7561H98.7599V15.1463ZM98.7599 14.7561H98.3697V14.3659H98.7599V14.7561ZM99.9306 16.3171H99.5404V15.9268H99.9306V16.3171ZM99.9306 15.5366H99.5404V15.1463H99.9306V15.5366ZM99.9306 15.1463H99.5404V14.7561H99.9306V15.1463ZM99.9306 14.7561H99.5404V14.3659H99.9306V14.7561ZM99.9306 14.3659H99.5404V13.9756H99.9306V14.3659ZM99.9306 13.9756H99.5404V13.5854H99.9306V13.9756ZM99.9306 13.5854H99.5404V13.1951H99.9306V13.5854ZM99.9306 13.1951H99.5404V12.8049H99.9306V13.1951ZM100.321 12.8049H99.9306V12.4146H100.321V12.8049ZM100.321 12.4146H99.9306V12.0244H100.321V12.4146ZM100.321 12.0244H99.9306V11.6341H100.321V12.0244ZM100.321 13.1951H99.9306V12.8049H100.321V13.1951ZM100.321 13.5854H99.9306V13.1951H100.321V13.5854ZM100.321 13.9756H99.9306V13.5854H100.321V13.9756ZM100.321 14.3659H99.9306V13.9756H100.321V14.3659ZM100.321 14.7561H99.9306V14.3659H100.321V14.7561ZM100.321 15.1463H99.9306V14.7561H100.321V15.1463ZM100.321 15.5366H99.9306V15.1463H100.321V15.5366ZM100.321 15.9268H99.9306V15.5366H100.321V15.9268ZM99.9306 15.9268H99.5404V15.5366H99.9306V15.9268ZM99.5404 16.7073H99.1502V16.3171H99.5404V16.7073ZM99.5404 16.3171H99.1502V15.9268H99.5404V16.3171ZM99.5404 15.9268H99.1502V15.5366H99.5404V15.9268ZM99.5404 15.5366H99.1502V15.1463H99.5404V15.5366ZM99.1502 15.1463H98.7599V14.7561H99.1502V15.1463ZM99.1502 14.7561H98.7599V14.3659H99.1502V14.7561ZM99.1502 15.5366H98.7599V15.1463H99.1502V15.5366ZM99.1502 15.9268H98.7599V15.5366H99.1502V15.9268ZM99.1502 16.3171H98.7599V15.9268H99.1502V16.3171ZM99.1502 16.7073H98.7599V16.3171H99.1502V16.7073ZM99.1502 17.0976H98.7599V16.7073H99.1502V17.0976ZM99.5404 15.1463H99.1502V14.7561H99.5404V15.1463ZM99.5404 14.7561H99.1502V14.3659H99.5404V14.7561ZM99.5404 14.3659H99.1502V13.9756H99.5404V14.3659ZM99.5404 13.9756H99.1502V13.5854H99.5404V13.9756ZM99.5404 13.5854H99.1502V13.1951H99.5404V13.5854ZM99.5404 13.1951H99.1502V12.8049H99.5404V13.1951ZM99.5404 12.8049H99.1502V12.4146H99.5404V12.8049ZM99.5404 12.4146H99.1502V12.0244H99.5404V12.4146ZM99.5404 12.0244H99.1502V11.6341H99.5404V12.0244ZM99.9306 12.4146H99.5404V12.0244H99.9306V12.4146ZM99.9306 12.8049H99.5404V12.4146H99.9306V12.8049ZM96.4184 18.2683H96.0282V17.878H96.4184V18.2683ZM96.8087 18.2683H96.4184V17.878H96.8087V18.2683ZM97.5892 18.2683H97.1989V17.878H97.5892V18.2683ZM97.9794 18.2683H97.5892V17.878H97.9794V18.2683ZM98.3697 17.878H97.9794V17.4878H98.3697V17.878ZM97.9794 17.878H97.5892V17.4878H97.9794V17.878ZM97.5892 17.878H97.1989V17.4878H97.5892V17.878ZM96.8087 17.878H96.4184V17.4878H96.8087V17.878ZM96.4184 17.878H96.0282V17.4878H96.4184V17.878ZM96.0282 17.878H95.638V17.4878H96.0282V17.878ZM96.0282 17.4878H95.638V17.0976H96.0282V17.4878ZM96.0282 17.0976H95.638V16.7073H96.0282V17.0976ZM96.4184 17.4878H96.0282V17.0976H96.4184V17.4878ZM96.8087 17.4878H96.4184V17.0976H96.8087V17.4878ZM97.5892 17.4878H97.1989V17.0976H97.5892V17.4878ZM97.9794 17.4878H97.5892V17.0976H97.9794V17.4878ZM98.3697 17.4878H97.9794V17.0976H98.3697V17.4878ZM98.3697 17.0976H97.9794V16.7073H98.3697V17.0976ZM97.9794 17.0976H97.5892V16.7073H97.9794V17.0976ZM97.5892 17.0976H97.1989V16.7073H97.5892V17.0976ZM96.8087 17.0976H96.4184V16.7073H96.8087V17.0976ZM96.4184 17.0976H96.0282V16.7073H96.4184V17.0976ZM96.0282 16.7073H95.638V16.3171H96.0282V16.7073ZM96.4184 16.7073H96.0282V16.3171H96.4184V16.7073ZM98.3697 16.7073H97.9794V16.3171H98.3697V16.7073ZM97.9794 16.7073H97.5892V16.3171H97.9794V16.7073ZM98.3697 16.3171H97.9794V15.9268H98.3697V16.3171ZM96.0282 16.3171H95.638V15.9268H96.0282V16.3171ZM95.2477 17.0976H94.8575V16.7073H95.2477V17.0976ZM95.2477 16.7073H94.8575V16.3171H95.2477V16.7073ZM94.8575 16.7073H94.4672V16.3171H94.8575V16.7073ZM94.4672 16.3171H94.077V15.9268H94.4672V16.3171ZM94.077 15.9268H93.6867V15.5366H94.077V15.9268ZM96.0282 15.9268H95.638V15.5366H96.0282V15.9268ZM96.4184 16.3171H96.0282V15.9268H96.4184V16.3171ZM96.8087 16.7073H96.4184V16.3171H96.8087V16.7073ZM97.5892 16.7073H97.1989V16.3171H97.5892V16.7073ZM97.9794 16.3171H97.5892V15.9268H97.9794V16.3171ZM98.3697 15.9268H97.9794V15.5366H98.3697V15.9268ZM96.8087 16.3171H96.4184V15.9268H96.8087V16.3171ZM97.5892 16.3171H97.1989V15.9268H97.5892V16.3171ZM96.4184 15.9268H96.0282V15.5366H96.4184V15.9268ZM96.0282 15.5366H95.638V15.1463H96.0282V15.5366ZM97.9794 15.9268H97.5892V15.5366H97.9794V15.9268ZM98.3697 15.5366H97.9794V15.1463H98.3697V15.5366ZM97.1989 15.9268V16.3171H96.8087V15.9268H97.1989ZM97.1989 16.3171V16.7073H96.8087V16.3171H97.1989ZM97.1989 16.7073V17.0976H96.8087V16.7073H97.1989ZM97.1989 17.0976V17.4878H96.8087V17.0976H97.1989ZM97.1989 17.4878V17.878H96.8087V17.4878H97.1989ZM97.1989 17.878V18.2683H96.8087V17.878H97.1989ZM96.4184 18.2683V18.6585H96.0282V18.2683H96.4184ZM96.8087 18.2683V18.6585H96.4184V18.2683H96.8087ZM97.1989 18.2683V18.6585H96.8087V18.2683H97.1989ZM97.5892 18.2683V18.6585H97.1989V18.2683H97.5892ZM97.9794 18.2683V18.6585H97.5892V18.2683H97.9794ZM97.9794 18.6585V19.0488H97.5892V18.6585H97.9794ZM97.9794 19.0488V19.439H97.5892V19.0488H97.9794ZM97.9794 19.439V19.8293H97.5892V19.439H97.9794ZM97.5892 19.439V19.8293H97.1989V19.439H97.5892ZM97.5892 19.0488V19.439H97.1989V19.0488H97.5892ZM97.5892 18.6585V19.0488H97.1989V18.6585H97.5892ZM97.1989 18.6585V19.0488H96.8087V18.6585H97.1989ZM97.1989 19.0488V19.439H96.8087V19.0488H97.1989ZM97.1989 19.439V19.8293H96.8087V19.439H97.1989ZM96.8087 19.439V19.8293H96.4184V19.439H96.8087ZM96.8087 19.0488V19.439H96.4184V19.0488H96.8087ZM96.8087 18.6585V19.0488H96.4184V18.6585H96.8087ZM96.4184 18.6585V19.0488H96.0282V18.6585H96.4184ZM96.4184 19.0488V19.439H96.0282V19.0488H96.4184ZM96.4184 19.439V19.8293H96.0282V19.439H96.4184ZM96.4184 19.8293V20.2195H96.0282V19.8293H96.4184ZM96.8087 19.8293V20.2195H96.4184V19.8293H96.8087ZM97.1989 19.8293V20.2195H96.8087V19.8293H97.1989ZM97.5892 19.8293V20.2195H97.1989V19.8293H97.5892ZM97.9794 19.8293V20.2195H97.5892V19.8293H97.9794ZM97.9794 20.2195V20.6098H97.5892V20.2195H97.9794ZM97.5892 20.2195V20.6098H97.1989V20.2195H97.5892ZM97.1989 20.2195V20.6098H96.8087V20.2195H97.1989ZM96.8087 20.2195V20.6098H96.4184V20.2195H96.8087ZM96.8087 20.6098V21H96.4184V20.6098H96.8087ZM96.4184 20.6098V21H96.0282V20.6098H96.4184ZM96.4184 20.2195V20.6098H96.0282V20.2195H96.4184ZM97.1989 20.6098V21H96.8087V20.6098H97.1989ZM97.5892 20.6098V21H97.1989V20.6098H97.5892ZM97.9794 20.6098V21H97.5892V20.6098H97.9794Z" fill="black"/>
</g>
<rect x="69" y="2.5" width="40" height="25" rx="1.5" stroke="black"/>
</g>
<rect x="69" y="2.5" width="40" height="29" rx="1.5" stroke="black"/>
<defs>
<clipPath id="clip0_1152_28050">
<rect x="68.5" y="2" width="41" height="30" rx="2" fill="white"/>
</clipPath>
<clipPath id="clip1_1152_28050">
<rect x="68.5" y="2" width="41" height="26" rx="2" fill="white"/>
</clipPath>
</defs>
</svg>
