<svg width="129" height="127" viewBox="0 0 129 127" fill="none" xmlns="http://www.w3.org/2000/svg">
<g id="Group 2147227460">
<g id="Group 2147227459">
<g id="Vector" filter="url(#filter0_f_1152_27360)">
<path d="M77.7273 43.9V39H48.2727V43.9H36V56.15H38.4545V61.05H40.9091V63.5H43.3636V65.95H45.8182V68.4H48.2727V70.85H55.6364V73.3H60.5455V80.65H50.7273V88H75.2727V80.65H65.4545V73.3H70.3636V70.85H77.7273V68.4H80.1818V65.95H82.6364V63.5H85.0909V61.05H87.5455V56.15H90V43.9H77.7273ZM45.8182 63.5V61.05H43.3636V56.15H40.9091V48.8H45.8182V51.25H48.2727V56.15H50.7273V63.5H53.1818V65.95H48.2727V63.5H45.8182ZM85.0909 56.15H82.6364V61.05H80.1818V63.5H77.7273V65.95H72.8182V63.5H75.2727V58.6H77.7273V51.25H80.1818V48.8H85.0909V56.15Z" fill="#FF8DF7"/>
</g>
<path id="Vector_2" d="M77.7273 43.9V39H48.2727V43.9H36V56.15H38.4545V61.05H40.9091V63.5H43.3636V65.95H45.8182V68.4H48.2727V70.85H55.6364V73.3H60.5455V80.65H50.7273V88H75.2727V80.65H65.4545V73.3H70.3636V70.85H77.7273V68.4H80.1818V65.95H82.6364V63.5H85.0909V61.05H87.5455V56.15H90V43.9H77.7273ZM45.8182 63.5V61.05H43.3636V56.15H40.9091V48.8H45.8182V51.25H48.2727V56.15H50.7273V63.5H53.1818V65.95H48.2727V63.5H45.8182ZM85.0909 56.15H82.6364V61.05H80.1818V63.5H77.7273V65.95H72.8182V63.5H75.2727V58.6H77.7273V51.25H80.1818V48.8H85.0909V56.15Z" fill="#FF8DF7"/>
</g>
</g>
<defs>
<filter id="filter0_f_1152_27360" x="-2.9" y="0.0999985" width="131.8" height="126.8" filterUnits="userSpaceOnUse" color-interpolation-filters="sRGB">
<feFlood flood-opacity="0" result="BackgroundImageFix"/>
<feBlend mode="normal" in="SourceGraphic" in2="BackgroundImageFix" result="shape"/>
<feGaussianBlur stdDeviation="19.45" result="effect1_foregroundBlur_1152_27360"/>
</filter>
</defs>
</svg>
