<svg width="173" height="139" viewBox="0 0 173 139" fill="none" xmlns="http://www.w3.org/2000/svg">
<g opacity="0.12">
<path d="M26.265 115.084H19.4961V121.853H26.265V115.084Z" fill="#BF8AB8"/>
<path d="M26.265 108.313H19.4961V115.082H26.265V108.313Z" fill="#BF8AB8"/>
<path d="M26.265 101.547H19.4961V108.316H26.265V101.547Z" fill="#72466C"/>
<path d="M26.265 94.7751H19.4961V101.544H26.265V94.7751Z" fill="#732F3B"/>
<path d="M26.265 88.0098H19.4961V94.7787H26.265V88.0098Z" fill="#91588A"/>
<path d="M26.265 81.2397H19.4961V88.0087H26.265V81.2397Z" fill="#732F3B"/>
<path d="M26.265 74.47H19.4961V81.2388H26.265V74.47Z" fill="#72466C"/>
<path d="M26.265 67.7017H19.4961V74.4706H26.265V67.7017Z" fill="#BF8AB8"/>
<path d="M26.265 60.9326H19.4961V67.7015H26.265V60.9326Z" fill="#BF8AB8"/>
<path d="M26.265 54.1636H19.4961V60.9325H26.265V54.1636Z" fill="#BF8AB8"/>
<path d="M26.265 47.3938H19.4961V54.1627H26.265V47.3938Z" fill="#AEB8BA"/>
<path d="M26.265 40.6255H19.4961V47.3944H26.265V40.6255Z" fill="#AEB8BA"/>
<path d="M26.265 33.8557H19.4961V40.6246H26.265V33.8557Z" fill="#AEB8BA"/>
<path d="M26.265 27.072H19.4961V33.8546H26.265V27.072Z" fill="#794D72"/>
<path d="M33.0331 115.084H26.2642V121.853H33.0331V115.084Z" fill="#BF8AB8"/>
<path d="M33.0331 108.313H26.2642V115.082H33.0331V108.313Z" fill="#BF8AB8"/>
<path d="M33.0331 101.547H26.2642V108.316H33.0331V101.547Z" fill="#72466C"/>
<path d="M33.0331 94.7751H26.2642V101.544H33.0331V94.7751Z" fill="#732F3B"/>
<path d="M33.0331 88.0098H26.2642V94.7787H33.0331V88.0098Z" fill="#91588A"/>
<path d="M33.0331 81.2397H26.2642V88.0087H33.0331V81.2397Z" fill="#732F3B"/>
<path d="M33.0331 74.47H26.2642V81.2388H33.0331V74.47Z" fill="#72466C"/>
<path d="M33.0331 67.7017H26.2642V74.4706H33.0331V67.7017Z" fill="#BF8AB8"/>
<path d="M33.0331 60.9326H26.2642V67.7015H33.0331V60.9326Z" fill="#BF8AB8"/>
<path d="M33.0331 54.1636H26.2642V60.9325H33.0331V54.1636Z" fill="#BF8AB8"/>
<path d="M33.0331 47.3938H26.2642V54.1627H33.0331V47.3938Z" fill="#EDEFEF"/>
<path d="M33.0331 40.6255H26.2642V47.3944H33.0331V40.6255Z" fill="#EDEFEF"/>
<path d="M33.0331 33.8557H26.2642V40.6246H33.0331V33.8557Z" fill="#732F3B"/>
<path d="M33.0331 27.072H26.2642V33.8546H33.0331V27.072Z" fill="#794D72"/>
<path d="M39.803 115.084H33.0342V121.853H39.803V115.084Z" fill="#BF8AB8"/>
<path d="M39.803 108.313H33.0342V115.082H39.803V108.313Z" fill="#BF8AB8"/>
<path d="M39.803 101.547H33.0342V108.316H39.803V101.547Z" fill="#72466C"/>
<path d="M39.803 94.7751H33.0342V101.544H39.803V94.7751Z" fill="#732F3B"/>
<path d="M39.803 88.0098H33.0342V94.7787H39.803V88.0098Z" fill="#91588A"/>
<path d="M39.803 81.2397H33.0342V88.0087H39.803V81.2397Z" fill="#732F3B"/>
<path d="M39.803 74.47H33.0342V81.2388H39.803V74.47Z" fill="#72466C"/>
<path d="M39.803 67.7017H33.0342V74.4706H39.803V67.7017Z" fill="#BF8AB8"/>
<path d="M39.803 60.9326H33.0342V67.7015H39.803V60.9326Z" fill="#BF8AB8"/>
<path d="M39.803 54.1636H33.0342V60.9325H39.803V54.1636Z" fill="#BF8AB8"/>
<path d="M39.803 47.3938H33.0342V54.1627H39.803V47.3938Z" fill="#EDEFEF"/>
<path d="M39.803 40.6255H33.0342V47.3944H39.803V40.6255Z" fill="#EDEFEF"/>
<path d="M39.803 33.8557H33.0342V40.6246H39.803V33.8557Z" fill="#AEB8BA"/>
<path d="M39.803 27.072H33.0342V33.8546H39.803V27.072Z" fill="#794D72"/>
<path d="M46.5702 115.084H39.8013V121.853H46.5702V115.084Z" fill="#BF8AB8"/>
<path d="M46.5702 108.313H39.8013V115.082H46.5702V108.313Z" fill="#BF8AB8"/>
<path d="M46.5702 101.547H39.8013V108.316H46.5702V101.547Z" fill="#72466C"/>
<path d="M46.5702 94.7751H39.8013V101.544H46.5702V94.7751Z" fill="#732F3B"/>
<path d="M46.5702 88.0098H39.8013V94.7787H46.5702V88.0098Z" fill="#91588A"/>
<path d="M46.5702 81.2397H39.8013V88.0087H46.5702V81.2397Z" fill="#732F3B"/>
<path d="M46.5702 74.47H39.8013V81.2388H46.5702V74.47Z" fill="#72466C"/>
<path d="M46.5702 67.7017H39.8013V74.4706H46.5702V67.7017Z" fill="#BF8AB8"/>
<path d="M46.5702 60.9326H39.8013V67.7015H46.5702V60.9326Z" fill="#BF8AB8"/>
<path d="M46.5702 54.1636H39.8013V60.9325H46.5702V54.1636Z" fill="#BF8AB8"/>
<path d="M46.5702 47.3938H39.8013V54.1627H46.5702V47.3938Z" fill="#EDEFEF"/>
<path d="M46.5702 40.6255H39.8013V47.3944H46.5702V40.6255Z" fill="#EDEFEF"/>
<path d="M46.5702 33.8557H39.8013V40.6246H46.5702V33.8557Z" fill="#794D72"/>
<path d="M46.5702 27.072H39.8013V33.8546H46.5702V27.072Z" fill="#794D72"/>
<path d="M53.3412 115.084H46.5723V121.853H53.3412V115.084Z" fill="#965F8E"/>
<path d="M53.3412 108.313H46.5723V115.082H53.3412V108.313Z" fill="#965F8E"/>
<path d="M53.3412 101.547H46.5723V108.316H53.3412V101.547Z" fill="#BF8AB8"/>
<path d="M53.3412 94.7751H46.5723V101.544H53.3412V94.7751Z" fill="#52364F"/>
<path d="M53.3412 88.0098H46.5723V94.7787H53.3412V88.0098Z" fill="#965F8E"/>
<path d="M53.3412 81.2397H46.5723V88.0087H53.3412V81.2397Z" fill="#52364F"/>
<path d="M53.3412 74.47H46.5723V81.2388H53.3412V74.47Z" fill="#BF8AB8"/>
<path d="M53.3412 67.7017H46.5723V74.4706H53.3412V67.7017Z" fill="#965F8E"/>
<path d="M53.3412 60.9326H46.5723V67.7015H53.3412V60.9326Z" fill="#965F8E"/>
<path d="M53.3412 54.1636H46.5723V60.9325H53.3412V54.1636Z" fill="#965F8E"/>
<path d="M53.3412 47.3938H46.5723V54.1627H53.3412V47.3938Z" fill="#EDEFEF"/>
<path d="M53.3412 40.6255H46.5723V47.3944H53.3412V40.6255Z" fill="#AEB8BA"/>
<path d="M53.3412 33.8557H46.5723V40.6246H53.3412V33.8557Z" fill="#AEB8BA"/>
<path d="M53.3412 27.072H46.5723V33.8546H53.3412V27.072Z" fill="#794D72"/>
<path d="M60.1082 115.084H53.3394V121.853H60.1082V115.084Z" fill="#965F8E"/>
<path d="M60.1082 108.313H53.3394V115.082H60.1082V108.313Z" fill="#965F8E"/>
<path d="M60.1082 101.547H53.3394V108.316H60.1082V101.547Z" fill="#BF8AB8"/>
<path d="M60.1082 94.7751H53.3394V101.544H60.1082V94.7751Z" fill="#52364F"/>
<path d="M60.1082 88.0098H53.3394V94.7787H60.1082V88.0098Z" fill="#965F8E"/>
<path d="M60.1082 81.2397H53.3394V88.0087H60.1082V81.2397Z" fill="#52364F"/>
<path d="M60.1082 74.47H53.3394V81.2388H60.1082V74.47Z" fill="#BF8AB8"/>
<path d="M60.1082 67.7017H53.3394V74.4706H60.1082V67.7017Z" fill="#965F8E"/>
<path d="M60.1082 60.9326H53.3394V67.7015H60.1082V60.9326Z" fill="#965F8E"/>
<path d="M60.1082 54.1636H53.3394V60.9325H60.1082V54.1636Z" fill="#965F8E"/>
<path d="M60.1082 47.3938H53.3394V54.1627H60.1082V47.3938Z" fill="#EDEFEF"/>
<path d="M60.1082 40.6255H53.3394V47.3944H60.1082V40.6255Z" fill="#EDEFEF"/>
<path d="M60.1082 33.8557H53.3394V40.6246H60.1082V33.8557Z" fill="#732F3B"/>
<path d="M60.1082 27.072H53.3394V33.8546H60.1082V27.072Z" fill="#794D72"/>
<path d="M60.1082 20.304H53.3394V27.0729H60.1082V20.304Z" fill="#794D72"/>
<path d="M60.1082 13.5359H53.3394V20.3048H60.1082V13.5359Z" fill="#794D72"/>
<path d="M60.1082 6.76587H53.3394V13.5348H60.1082V6.76587Z" fill="#794D72"/>
<path d="M60.1082 -0.000488281H53.3394V6.76837H60.1082V-0.000488281Z" fill="#794D72"/>
<path d="M66.8773 115.084H60.1084V121.853H66.8773V115.084Z" fill="#965F8E"/>
<path d="M66.8773 108.313H60.1084V115.082H66.8773V108.313Z" fill="#965F8E"/>
<path d="M66.8773 101.547H60.1084V108.316H66.8773V101.547Z" fill="#BF8AB8"/>
<path d="M66.8773 94.7751H60.1084V101.544H66.8773V94.7751Z" fill="#52364F"/>
<path d="M66.8773 88.0098H60.1084V94.7787H66.8773V88.0098Z" fill="#965F8E"/>
<path d="M66.8773 81.2397H60.1084V88.0087H66.8773V81.2397Z" fill="#52364F"/>
<path d="M66.8773 74.47H60.1084V81.2388H66.8773V74.47Z" fill="#BF8AB8"/>
<path d="M66.8773 67.7017H60.1084V74.4706H66.8773V67.7017Z" fill="#965F8E"/>
<path d="M66.8773 60.9326H60.1084V67.7015H66.8773V60.9326Z" fill="#965F8E"/>
<path d="M66.8773 54.1636H60.1084V60.9325H66.8773V54.1636Z" fill="#965F8E"/>
<path d="M66.8773 47.3938H60.1084V54.1627H66.8773V47.3938Z" fill="#EDEFEF"/>
<path d="M66.8773 40.6255H60.1084V47.3944H66.8773V40.6255Z" fill="#EDEFEF"/>
<path d="M66.8773 33.8557H60.1084V40.6246H66.8773V33.8557Z" fill="#AEB8BA"/>
<path d="M66.8773 27.072H60.1084V33.8546H66.8773V27.072Z" fill="#794D72"/>
<path d="M66.8773 20.304H60.1084V27.0729H66.8773V20.304Z" fill="#794D72"/>
<path d="M66.8773 13.5359H60.1084V20.3048H66.8773V13.5359Z" fill="#29632D"/>
<path d="M66.8773 6.76587H60.1084V13.5348H66.8773V6.76587Z" fill="#57995E"/>
<path d="M66.8773 -0.000488281H60.1084V6.76837H66.8773V-0.000488281Z" fill="#794D72"/>
<path d="M73.6463 115.084H66.8774V121.853H73.6463V115.084Z" fill="#965F8E"/>
<path d="M73.6463 108.313H66.8774V115.082H73.6463V108.313Z" fill="#965F8E"/>
<path d="M73.6463 101.547H66.8774V108.316H73.6463V101.547Z" fill="#BF8AB8"/>
<path d="M73.6463 94.7751H66.8774V101.544H73.6463V94.7751Z" fill="#52364F"/>
<path d="M73.6463 88.0098H66.8774V94.7787H73.6463V88.0098Z" fill="#965F8E"/>
<path d="M73.6463 81.2397H66.8774V88.0087H73.6463V81.2397Z" fill="#52364F"/>
<path d="M73.6463 74.47H66.8774V81.2388H73.6463V74.47Z" fill="#BF8AB8"/>
<path d="M73.6463 67.7017H66.8774V74.4706H73.6463V67.7017Z" fill="#965F8E"/>
<path d="M73.6463 60.9326H66.8774V67.7015H73.6463V60.9326Z" fill="#965F8E"/>
<path d="M73.6463 54.1636H66.8774V60.9325H73.6463V54.1636Z" fill="#965F8E"/>
<path d="M73.6463 47.3938H66.8774V54.1627H73.6463V47.3938Z" fill="#EDEFEF"/>
<path d="M73.6463 40.6255H66.8774V47.3944H73.6463V40.6255Z" fill="#EDEFEF"/>
<path d="M73.6463 33.8557H66.8774V40.6246H73.6463V33.8557Z" fill="#52364F"/>
<path d="M73.6463 27.072H66.8774V33.8546H73.6463V27.072Z" fill="#52364F"/>
<path d="M73.6463 20.304H66.8774V27.0729H73.6463V20.304Z" fill="#91588A"/>
<path d="M73.6463 13.5359H66.8774V20.3048H73.6463V13.5359Z" fill="#29632D"/>
<path d="M73.6463 6.76587H66.8774V13.5348H73.6463V6.76587Z" fill="#57995E"/>
<path d="M73.6463 -0.000488281H66.8774V6.76837H73.6463V-0.000488281Z" fill="#57995E"/>
<path d="M80.4164 115.084H73.6475V121.853H80.4164V115.084Z" fill="#965F8E"/>
<path d="M80.4164 108.313H73.6475V115.082H80.4164V108.313Z" fill="#965F8E"/>
<path d="M80.4164 101.547H73.6475V108.316H80.4164V101.547Z" fill="#BF8AB8"/>
<path d="M80.4164 94.7751H73.6475V101.544H80.4164V94.7751Z" fill="#52364F"/>
<path d="M80.4164 88.0098H73.6475V94.7787H80.4164V88.0098Z" fill="#965F8E"/>
<path d="M80.4164 81.2397H73.6475V88.0087H80.4164V81.2397Z" fill="#52364F"/>
<path d="M80.4164 74.47H73.6475V81.2388H80.4164V74.47Z" fill="#BF8AB8"/>
<path d="M80.4164 67.7017H73.6475V74.4706H80.4164V67.7017Z" fill="#965F8E"/>
<path d="M80.4164 60.9326H73.6475V67.7015H80.4164V60.9326Z" fill="#965F8E"/>
<path d="M80.4164 54.1636H73.6475V60.9325H80.4164V54.1636Z" fill="#965F8E"/>
<path d="M80.4164 47.3938H73.6475V54.1627H80.4164V47.3938Z" fill="#EDEFEF"/>
<path d="M80.4164 40.6255H73.6475V47.3944H80.4164V40.6255Z" fill="#AEB8BA"/>
<path d="M80.4164 33.8557H73.6475V40.6246H80.4164V33.8557Z" fill="#AEB8BA"/>
<path d="M80.4164 27.072H73.6475V33.8546H80.4164V27.072Z" fill="#732F3B"/>
<path d="M80.4164 20.304H73.6475V27.0729H80.4164V20.304Z" fill="#91588A"/>
<path d="M80.4164 13.5359H73.6475V20.3048H80.4164V13.5359Z" fill="#91588A"/>
<path d="M87.1844 115.084H80.4155V121.853H87.1844V115.084Z" fill="#965F8E"/>
<path d="M87.1844 108.313H80.4155V115.082H87.1844V108.313Z" fill="#965F8E"/>
<path d="M87.1844 101.547H80.4155V108.316H87.1844V101.547Z" fill="#BF8AB8"/>
<path d="M87.1844 94.7751H80.4155V101.544H87.1844V94.7751Z" fill="#52364F"/>
<path d="M87.1844 88.0098H80.4155V94.7787H87.1844V88.0098Z" fill="#965F8E"/>
<path d="M87.1844 81.2397H80.4155V88.0087H87.1844V81.2397Z" fill="#52364F"/>
<path d="M87.1844 74.47H80.4155V81.2388H87.1844V74.47Z" fill="#BF8AB8"/>
<path d="M87.1844 67.7017H80.4155V74.4706H87.1844V67.7017Z" fill="#965F8E"/>
<path d="M87.1844 60.9326H80.4155V67.7015H87.1844V60.9326Z" fill="#965F8E"/>
<path d="M87.1844 54.1636H80.4155V60.9325H87.1844V54.1636Z" fill="#965F8E"/>
<path d="M87.1844 47.3938H80.4155V54.1627H87.1844V47.3938Z" fill="#EDEFEF"/>
<path d="M87.1844 40.6255H80.4155V47.3944H87.1844V40.6255Z" fill="#EDEFEF"/>
<path d="M87.1844 33.8557H80.4155V40.6246H87.1844V33.8557Z" fill="#AEB8BA"/>
<path d="M87.1844 27.072H80.4155V33.8546H87.1844V27.072Z" fill="#732F3B"/>
<path d="M87.1844 20.304H80.4155V27.0729H87.1844V20.304Z" fill="#732F3B"/>
<path d="M87.1844 13.5359H80.4155V20.3048H87.1844V13.5359Z" fill="#91588A"/>
<path d="M93.9544 115.084H87.1855V121.853H93.9544V115.084Z" fill="#965F8E"/>
<path d="M93.9544 108.313H87.1855V115.082H93.9544V108.313Z" fill="#965F8E"/>
<path d="M93.9544 101.547H87.1855V108.316H93.9544V101.547Z" fill="#BF8AB8"/>
<path d="M93.9544 94.7751H87.1855V101.544H93.9544V94.7751Z" fill="#52364F"/>
<path d="M93.9544 88.0098H87.1855V94.7787H93.9544V88.0098Z" fill="#965F8E"/>
<path d="M93.9544 81.2397H87.1855V88.0087H93.9544V81.2397Z" fill="#52364F"/>
<path d="M93.9544 74.47H87.1855V81.2388H93.9544V74.47Z" fill="#BF8AB8"/>
<path d="M93.9544 67.7017H87.1855V74.4706H93.9544V67.7017Z" fill="#965F8E"/>
<path d="M93.9544 60.9326H87.1855V67.7015H93.9544V60.9326Z" fill="#965F8E"/>
<path d="M93.9544 54.1636H87.1855V60.9325H93.9544V54.1636Z" fill="#965F8E"/>
<path d="M93.9544 47.3938H87.1855V54.1627H93.9544V47.3938Z" fill="#EDEFEF"/>
<path d="M93.9544 40.6255H87.1855V47.3944H93.9544V40.6255Z" fill="#EDEFEF"/>
<path d="M93.9544 33.8557H87.1855V40.6246H93.9544V33.8557Z" fill="#AEB8BA"/>
<path d="M93.9544 27.072H87.1855V33.8546H93.9544V27.072Z" fill="#732F3B"/>
<path d="M93.9544 20.304H87.1855V27.0729H93.9544V20.304Z" fill="#732F3B"/>
<path d="M93.9544 13.5359H87.1855V20.3048H93.9544V13.5359Z" fill="#732F3B"/>
<path d="M100.723 115.084H93.9546V121.853H100.723V115.084Z" fill="#965F8E"/>
<path d="M100.723 108.313H93.9546V115.082H100.723V108.313Z" fill="#965F8E"/>
<path d="M100.723 101.547H93.9546V108.316H100.723V101.547Z" fill="#BF8AB8"/>
<path d="M100.723 94.7751H93.9546V101.544H100.723V94.7751Z" fill="#52364F"/>
<path d="M100.723 88.0098H93.9546V94.7787H100.723V88.0098Z" fill="#965F8E"/>
<path d="M100.723 81.2397H93.9546V88.0087H100.723V81.2397Z" fill="#52364F"/>
<path d="M100.723 74.47H93.9546V81.2388H100.723V74.47Z" fill="#BF8AB8"/>
<path d="M100.723 67.7017H93.9546V74.4706H100.723V67.7017Z" fill="#965F8E"/>
<path d="M100.723 60.9326H93.9546V67.7015H100.723V60.9326Z" fill="#965F8E"/>
<path d="M100.723 54.1636H93.9546V60.9325H100.723V54.1636Z" fill="#965F8E"/>
<path d="M100.723 47.3938H93.9546V54.1627H100.723V47.3938Z" fill="#EDEFEF"/>
<path d="M100.723 40.6255H93.9546V47.3944H100.723V40.6255Z" fill="#EDEFEF"/>
<path d="M100.723 33.8557H93.9546V40.6246H100.723V33.8557Z" fill="#732F3B"/>
<path d="M100.723 27.072H93.9546V33.8546H100.723V27.072Z" fill="#732F3B"/>
<path d="M107.491 115.084H100.722V121.853H107.491V115.084Z" fill="#965F8E"/>
<path d="M107.491 108.313H100.722V115.082H107.491V108.313Z" fill="#965F8E"/>
<path d="M107.491 101.547H100.722V108.316H107.491V101.547Z" fill="#BF8AB8"/>
<path d="M107.491 94.7751H100.722V101.544H107.491V94.7751Z" fill="#52364F"/>
<path d="M107.491 88.0098H100.722V94.7787H107.491V88.0098Z" fill="#965F8E"/>
<path d="M107.491 81.2397H100.722V88.0087H107.491V81.2397Z" fill="#52364F"/>
<path d="M107.491 74.47H100.722V81.2388H107.491V74.47Z" fill="#BF8AB8"/>
<path d="M107.491 67.7017H100.722V74.4706H107.491V67.7017Z" fill="#965F8E"/>
<path d="M107.491 60.9326H100.722V67.7015H107.491V60.9326Z" fill="#965F8E"/>
<path d="M107.491 54.1636H100.722V60.9325H107.491V54.1636Z" fill="#965F8E"/>
<path d="M107.491 47.3938H100.722V54.1627H107.491V47.3938Z" fill="#EDEFEF"/>
<path d="M107.491 40.6255H100.722V47.3944H107.491V40.6255Z" fill="#AEB8BA"/>
<path d="M107.491 33.8557H100.722V40.6246H107.491V33.8557Z" fill="#AEB8BA"/>
<path d="M114.274 115.084H107.492V121.853H114.274V115.084Z" fill="#965F8E"/>
<path d="M114.274 108.313H107.492V115.082H114.274V108.313Z" fill="#965F8E"/>
<path d="M114.274 101.547H107.492V108.316H114.274V101.547Z" fill="#BF8AB8"/>
<path d="M114.274 94.7751H107.492V101.544H114.274V94.7751Z" fill="#52364F"/>
<path d="M114.274 88.0098H107.492V94.7787H114.274V88.0098Z" fill="#965F8E"/>
<path d="M114.274 81.2397H107.492V88.0087H114.274V81.2397Z" fill="#52364F"/>
<path d="M114.274 74.47H107.492V81.2388H114.274V74.47Z" fill="#BF8AB8"/>
<path d="M114.274 67.7017H107.492V74.4706H114.274V67.7017Z" fill="#965F8E"/>
<path d="M114.274 60.9326H107.492V67.7015H114.274V60.9326Z" fill="#965F8E"/>
<path d="M114.274 54.1636H107.492V60.9325H114.274V54.1636Z" fill="#965F8E"/>
<path d="M114.274 47.3938H107.492V54.1627H114.274V47.3938Z" fill="#EDEFEF"/>
<path d="M114.274 40.6255H107.492V47.3944H114.274V40.6255Z" fill="#EDEFEF"/>
<path d="M114.274 33.8557H107.492V40.6246H114.274V33.8557Z" fill="#732F3B"/>
<path d="M121.044 115.084H114.275V121.853H121.044V115.084Z" fill="#965F8E"/>
<path d="M121.044 108.313H114.275V115.082H121.044V108.313Z" fill="#965F8E"/>
<path d="M121.044 101.547H114.275V108.316H121.044V101.547Z" fill="#BF8AB8"/>
<path d="M121.044 94.7751H114.275V101.544H121.044V94.7751Z" fill="#52364F"/>
<path d="M121.044 88.0098H114.275V94.7787H121.044V88.0098Z" fill="#965F8E"/>
<path d="M121.044 81.2397H114.275V88.0087H121.044V81.2397Z" fill="#52364F"/>
<path d="M121.044 74.47H114.275V81.2388H121.044V74.47Z" fill="#BF8AB8"/>
<path d="M121.044 67.7017H114.275V74.4706H121.044V67.7017Z" fill="#965F8E"/>
<path d="M121.044 60.9326H114.275V67.7015H121.044V60.9326Z" fill="#965F8E"/>
<path d="M121.044 54.1636H114.275V60.9325H121.044V54.1636Z" fill="#965F8E"/>
<path d="M121.044 47.3938H114.275V54.1627H121.044V47.3938Z" fill="#EDEFEF"/>
<path d="M121.044 40.6255H114.275V47.3944H121.044V40.6255Z" fill="#EDEFEF"/>
<path d="M121.044 33.8557H114.275V40.6246H121.044V33.8557Z" fill="#AEB8BA"/>
<path d="M127.811 115.084H121.042V121.853H127.811V115.084Z" fill="#965F8E"/>
<path d="M127.811 108.313H121.042V115.082H127.811V108.313Z" fill="#965F8E"/>
<path d="M127.811 101.547H121.042V108.316H127.811V101.547Z" fill="#BF8AB8"/>
<path d="M127.811 94.7751H121.042V101.544H127.811V94.7751Z" fill="#52364F"/>
<path d="M127.811 88.0098H121.042V94.7787H127.811V88.0098Z" fill="#965F8E"/>
<path d="M127.811 81.2397H121.042V88.0087H127.811V81.2397Z" fill="#52364F"/>
<path d="M127.811 74.47H121.042V81.2388H127.811V74.47Z" fill="#BF8AB8"/>
<path d="M127.811 67.7017H121.042V74.4706H127.811V67.7017Z" fill="#965F8E"/>
<path d="M127.811 60.9326H121.042V67.7015H127.811V60.9326Z" fill="#965F8E"/>
<path d="M127.811 54.1636H121.042V60.9325H127.811V54.1636Z" fill="#965F8E"/>
<path d="M127.811 47.3938H121.042V54.1627H127.811V47.3938Z" fill="#EDEFEF"/>
<path d="M127.811 40.6255H121.042V47.3944H127.811V40.6255Z" fill="#EDEFEF"/>
<path d="M134.581 115.084H127.812V121.853H134.581V115.084Z" fill="#965F8E"/>
<path d="M134.581 108.313H127.812V115.082H134.581V108.313Z" fill="#965F8E"/>
<path d="M134.581 101.547H127.812V108.316H134.581V101.547Z" fill="#BF8AB8"/>
<path d="M134.581 94.7751H127.812V101.544H134.581V94.7751Z" fill="#52364F"/>
<path d="M134.581 88.0098H127.812V94.7787H134.581V88.0098Z" fill="#965F8E"/>
<path d="M134.581 81.2397H127.812V88.0087H134.581V81.2397Z" fill="#52364F"/>
<path d="M134.581 74.47H127.812V81.2388H134.581V74.47Z" fill="#BF8AB8"/>
<path d="M134.581 67.7017H127.812V74.4706H134.581V67.7017Z" fill="#965F8E"/>
<path d="M134.581 60.9326H127.812V67.7015H134.581V60.9326Z" fill="#965F8E"/>
<path d="M134.581 54.1636H127.812V60.9325H134.581V54.1636Z" fill="#965F8E"/>
<path d="M134.581 47.3938H127.812V54.1627H134.581V47.3938Z" fill="#EDEFEF"/>
<path d="M134.581 40.6255H127.812V47.3944H134.581V40.6255Z" fill="#AEB8BA"/>
<path d="M134.581 33.8557H127.812V40.6246H134.581V33.8557Z" fill="#AEB8BA"/>
<path d="M141.35 115.084H134.582V121.853H141.35V115.084Z" fill="#965F8E"/>
<path d="M141.35 108.313H134.582V115.082H141.35V108.313Z" fill="#965F8E"/>
<path d="M141.35 101.547H134.582V108.316H141.35V101.547Z" fill="#BF8AB8"/>
<path d="M141.35 94.7751H134.582V101.544H141.35V94.7751Z" fill="#52364F"/>
<path d="M141.35 88.0098H134.582V94.7787H141.35V88.0098Z" fill="#965F8E"/>
<path d="M141.35 81.2397H134.582V88.0087H141.35V81.2397Z" fill="#52364F"/>
<path d="M141.35 74.47H134.582V81.2388H141.35V74.47Z" fill="#BF8AB8"/>
<path d="M141.35 67.7017H134.582V74.4706H141.35V67.7017Z" fill="#965F8E"/>
<path d="M141.35 60.9326H134.582V67.7015H141.35V60.9326Z" fill="#965F8E"/>
<path d="M141.35 54.1636H134.582V60.9325H141.35V54.1636Z" fill="#965F8E"/>
<path d="M141.35 47.3938H134.582V54.1627H141.35V47.3938Z" fill="#EDEFEF"/>
<path d="M141.35 40.6255H134.582V47.3944H141.35V40.6255Z" fill="#EDEFEF"/>
<path d="M141.35 33.8557H134.582V40.6246H141.35V33.8557Z" fill="#732F3B"/>
<path d="M148.119 115.084H141.35V121.853H148.119V115.084Z" fill="#965F8E"/>
<path d="M148.119 108.313H141.35V115.082H148.119V108.313Z" fill="#965F8E"/>
<path d="M148.119 101.547H141.35V108.316H148.119V101.547Z" fill="#BF8AB8"/>
<path d="M148.119 94.7751H141.35V101.544H148.119V94.7751Z" fill="#52364F"/>
<path d="M148.119 88.0098H141.35V94.7787H148.119V88.0098Z" fill="#965F8E"/>
<path d="M148.119 81.2397H141.35V88.0087H148.119V81.2397Z" fill="#52364F"/>
<path d="M148.119 74.47H141.35V81.2388H148.119V74.47Z" fill="#BF8AB8"/>
<path d="M148.119 67.7017H141.35V74.4706H148.119V67.7017Z" fill="#965F8E"/>
<path d="M148.119 60.9326H141.35V67.7015H148.119V60.9326Z" fill="#965F8E"/>
<path d="M148.119 54.1636H141.35V60.9325H148.119V54.1636Z" fill="#965F8E"/>
<path d="M148.119 47.3938H141.35V54.1627H148.119V47.3938Z" fill="#EDEFEF"/>
<path d="M148.119 40.6255H141.35V47.3944H148.119V40.6255Z" fill="#EDEFEF"/>
<path d="M148.119 33.8557H141.35V40.6246H148.119V33.8557Z" fill="#AEB8BA"/>
<path d="M154.889 47.3938H148.121V54.1627H154.889V47.3938Z" fill="#EDEFEF"/>
<path d="M154.889 40.6255H148.121V47.3944H154.889V40.6255Z" fill="#EDEFEF"/>
</g>
<g opacity="0.12">
<path d="M6.64116 134.438H0V141.079H6.64116V134.438Z" fill="#52A0B2"/>
<path d="M6.64116 127.795H0V134.436H6.64116V127.795Z" fill="#52A0B2"/>
<path d="M6.64116 121.155H0V127.796H6.64116V121.155Z" fill="#52A0B2"/>
<path d="M13.2808 134.438H6.63965V141.079H13.2808V134.438Z" fill="#52A0B2"/>
<path d="M13.2808 127.795H6.63965V134.436H13.2808V127.795Z" fill="#EDEFEF"/>
<path d="M13.2808 121.155H6.63965V127.796H13.2808V121.155Z" fill="#EDEFEF"/>
<path d="M19.9234 134.438H13.2822V141.079H19.9234V134.438Z" fill="#52A0B2"/>
<path d="M19.9234 127.795H13.2822V134.436H19.9234V127.795Z" fill="#EDEFEF"/>
<path d="M19.9234 121.155H13.2822V127.796H19.9234V121.155Z" fill="#EDEFEF"/>
<path d="M26.565 134.438H19.9238V141.079H26.565V134.438Z" fill="#AEB8BA"/>
<path d="M26.565 127.795H19.9238V134.436H26.565V127.795Z" fill="#EDEFEF"/>
<path d="M26.565 121.155H19.9238V127.796H26.565V121.155Z" fill="#EDEFEF"/>
<path d="M33.2061 134.438H26.5649V141.079H33.2061V134.438Z" fill="#AEB8BA"/>
<path d="M33.2061 127.795H26.5649V134.436H33.2061V127.795Z" fill="#EDEFEF"/>
<path d="M33.2061 121.155H26.5649V127.796H33.2061V121.155Z" fill="#EDEFEF"/>
<path d="M39.8477 134.438H33.2065V141.079H39.8477V134.438Z" fill="#AEB8BA"/>
<path d="M39.8477 127.795H33.2065V134.436H39.8477V127.795Z" fill="#EDEFEF"/>
<path d="M39.8477 121.155H33.2065V127.796H39.8477V121.155Z" fill="#EDEFEF"/>
<path d="M46.4873 134.438H39.8462V141.079H46.4873V134.438Z" fill="#AEB8BA"/>
<path d="M46.4873 127.795H39.8462V134.436H46.4873V127.795Z" fill="#EDEFEF"/>
<path d="M46.4873 121.155H39.8462V127.796H46.4873V121.155Z" fill="#EDEFEF"/>
<path d="M53.129 134.438H46.4878V141.079H53.129V134.438Z" fill="#AEB8BA"/>
<path d="M53.129 127.795H46.4878V134.436H53.129V127.795Z" fill="#EDEFEF"/>
<path d="M53.129 121.155H46.4878V127.796H53.129V121.155Z" fill="#EDEFEF"/>
<path d="M59.7715 134.438H53.1304V141.079H59.7715V134.438Z" fill="#AEB8BA"/>
<path d="M59.7715 127.795H53.1304V134.436H59.7715V127.795Z" fill="#EDEFEF"/>
<path d="M59.7715 121.155H53.1304V127.796H59.7715V121.155Z" fill="#EDEFEF"/>
<path d="M66.4131 134.438H59.772V141.079H66.4131V134.438Z" fill="#AEB8BA"/>
<path d="M66.4131 127.795H59.772V134.436H66.4131V127.795Z" fill="#EDEFEF"/>
<path d="M66.4131 121.155H59.772V127.796H66.4131V121.155Z" fill="#EDEFEF"/>
<path d="M73.0528 134.438H66.4116V141.079H73.0528V134.438Z" fill="#AEB8BA"/>
<path d="M73.0528 127.795H66.4116V134.436H73.0528V127.795Z" fill="#EDEFEF"/>
<path d="M73.0528 121.155H66.4116V127.796H73.0528V121.155Z" fill="#EDEFEF"/>
<path d="M79.6929 134.438H73.0518V141.079H79.6929V134.438Z" fill="#AEB8BA"/>
<path d="M79.6929 127.795H73.0518V134.436H79.6929V127.795Z" fill="#EDEFEF"/>
<path d="M79.6929 121.155H73.0518V127.796H79.6929V121.155Z" fill="#EDEFEF"/>
<path d="M86.3355 134.438H79.6943V141.079H86.3355V134.438Z" fill="#AEB8BA"/>
<path d="M86.3355 127.795H79.6943V134.436H86.3355V127.795Z" fill="#EDEFEF"/>
<path d="M86.3355 121.155H79.6943V127.796H86.3355V121.155Z" fill="#EDEFEF"/>
<path d="M92.9771 134.438H86.3359V141.079H92.9771V134.438Z" fill="#AEB8BA"/>
<path d="M92.9771 127.795H86.3359V134.436H92.9771V127.795Z" fill="#EDEFEF"/>
<path d="M92.9771 121.155H86.3359V127.796H92.9771V121.155Z" fill="#EDEFEF"/>
<path d="M99.6177 134.438H92.9766V141.079H99.6177V134.438Z" fill="#AEB8BA"/>
<path d="M99.6177 127.795H92.9766V134.436H99.6177V127.795Z" fill="#EDEFEF"/>
<path d="M99.6177 121.155H92.9766V127.796H99.6177V121.155Z" fill="#EDEFEF"/>
<path d="M106.259 134.438H99.6182V141.079H106.259V134.438Z" fill="#AEB8BA"/>
<path d="M106.259 127.795H99.6182V134.436H106.259V127.795Z" fill="#EDEFEF"/>
<path d="M106.259 121.155H99.6182V127.796H106.259V121.155Z" fill="#EDEFEF"/>
<path d="M112.9 134.438H106.259V141.079H112.9V134.438Z" fill="#AEB8BA"/>
<path d="M112.9 127.795H106.259V134.436H112.9V127.795Z" fill="#EDEFEF"/>
<path d="M112.9 121.155H106.259V127.796H112.9V121.155Z" fill="#EDEFEF"/>
<path d="M119.554 134.438H112.9V141.079H119.554V134.438Z" fill="#AEB8BA"/>
<path d="M119.554 127.795H112.9V134.436H119.554V127.795Z" fill="#EDEFEF"/>
<path d="M119.554 121.155H112.9V127.796H119.554V121.155Z" fill="#EDEFEF"/>
<path d="M126.195 134.438H119.554V141.079H126.195V134.438Z" fill="#AEB8BA"/>
<path d="M126.195 127.795H119.554V134.436H126.195V127.795Z" fill="#EDEFEF"/>
<path d="M126.195 121.155H119.554V127.796H126.195V121.155Z" fill="#EDEFEF"/>
<path d="M132.834 134.438H126.193V141.079H132.834V134.438Z" fill="#AEB8BA"/>
<path d="M132.834 127.795H126.193V134.436H132.834V127.795Z" fill="#EDEFEF"/>
<path d="M132.834 121.155H126.193V127.796H132.834V121.155Z" fill="#EDEFEF"/>
<path d="M139.479 134.438H132.837V141.079H139.479V134.438Z" fill="#AEB8BA"/>
<path d="M139.479 127.795H132.837V134.436H139.479V127.795Z" fill="#EDEFEF"/>
<path d="M139.479 121.155H132.837V127.796H139.479V121.155Z" fill="#EDEFEF"/>
<path d="M146.12 134.438H139.479V141.079H146.12V134.438Z" fill="#AEB8BA"/>
<path d="M146.12 127.795H139.479V134.436H146.12V127.795Z" fill="#EDEFEF"/>
<path d="M146.12 121.155H139.479V127.796H146.12V121.155Z" fill="#EDEFEF"/>
<path d="M152.761 134.438H146.12V141.079H152.761V134.438Z" fill="#AEB8BA"/>
<path d="M152.761 127.795H146.12V134.436H152.761V127.795Z" fill="#EDEFEF"/>
<path d="M152.761 121.155H146.12V127.796H152.761V121.155Z" fill="#EDEFEF"/>
<path d="M159.401 134.438H152.76V141.079H159.401V134.438Z" fill="#AEB8BA"/>
<path d="M159.401 127.795H152.76V134.436H159.401V127.795Z" fill="#EDEFEF"/>
<path d="M159.401 121.155H152.76V127.796H159.401V121.155Z" fill="#EDEFEF"/>
<path d="M166.041 127.795H159.399V134.436H166.041V127.795Z" fill="#EDEFEF"/>
<path d="M166.041 121.155H159.399V127.796H166.041V121.155Z" fill="#EDEFEF"/>
<path d="M172.685 127.795H166.043V134.436H172.685V127.795Z" fill="#EDEFEF"/>
<path d="M172.685 121.155H166.043V127.796H172.685V121.155Z" fill="#EDEFEF"/>
</g>
</svg>
