<svg width="14" height="14" viewBox="0 0 14 14" fill="none" xmlns="http://www.w3.org/2000/svg">
<path d="M12.9195 3.88705L12.2058 3.28629L8.90158 7.21173L9.6153 7.81249L12.9195 3.88705Z" fill="black"/>
<path d="M9.05429 7.13879L8.5083 6.6792L8.05172 7.22162L8.59771 7.68121L9.05429 7.13879Z" fill="black"/>
<path d="M8.24448 7.26858L7.53076 6.66782L3.32538 11.6638L4.0391 12.2646L8.24448 7.26858Z" fill="black"/>
<path d="M11.7136 2.87129L11.1711 2.4147L8.42263 5.67996L8.96505 6.13654L11.7136 2.87129Z" fill="black"/>
<path d="M3.68215 11.9633L2.61157 11.0622L2.0108 11.7759L3.08138 12.677L3.68215 11.9633Z" fill="black"/>
<path d="M7.17392 6.36624L6.46021 5.76547L2.25482 10.7615L2.96854 11.3623L7.17392 6.36624Z" fill="black"/>
<path d="M10.6285 1.95828L10.0825 1.49869L7.334 4.76394L7.88 5.22353L10.6285 1.95828Z" fill="black"/>
<path d="M6.87739 5.30717L6.33496 4.85059L5.87838 5.39301L6.4208 5.84959L6.87739 5.30717Z" fill="black"/>
<path d="M9.70786 1.18344L8.99414 0.582672L5.68991 4.50811L6.40363 5.10888L9.70786 1.18344Z" fill="black"/>
</svg>
