<svg width="44" height="11" viewBox="0 0 44 11" fill="none" xmlns="http://www.w3.org/2000/svg">
<path d="M1.66677 3.68591H0V5.35266H1.66677V3.68591Z" fill="#101010"/>
<path d="M1.66677 2.01907H0V3.68581H1.66677V2.01907Z" fill="#101010"/>
<path d="M1.66677 0.353882H0V2.02063H1.66677V0.353882Z" fill="#101010"/>
<path d="M3.33399 3.68591H1.66724V5.35266H3.33399V3.68591Z" fill="#101010"/>
<path d="M3.33399 2.01907H1.66724V3.68581H3.33399V2.01907Z" fill="#EDEFEF"/>
<path d="M3.33399 0.353882H1.66724V2.02063H3.33399V0.353882Z" fill="#EDEFEF"/>
<path d="M5.00045 5.35437H3.33368V7.02111H5.00045V5.35437Z" fill="#101010"/>
<path d="M5.00045 3.68591H3.33368V5.35266H5.00045V3.68591Z" fill="#101010"/>
<path d="M5.00045 2.01907H3.33368V3.68581H5.00045V2.01907Z" fill="#EDEFEF"/>
<path d="M5.00045 0.353882H3.33368V2.02063H5.00045V0.353882Z" fill="#EDEFEF"/>
<path d="M6.66726 7.02118H5.00049V8.68793H6.66726V7.02118Z" fill="#101010"/>
<path d="M6.66726 5.35437H5.00049V7.02111H6.66726V5.35437Z" fill="#101010"/>
<path d="M6.66726 3.68591H5.00049V5.35266H6.66726V3.68591Z" fill="#AEB8BA"/>
<path d="M6.66726 2.01907H5.00049V3.68581H6.66726V2.01907Z" fill="#EDEFEF"/>
<path d="M6.66726 0.353882H5.00049V2.02063H6.66726V0.353882Z" fill="#EDEFEF"/>
<path d="M8.33369 8.6864H6.66693V10.3531H8.33369V8.6864Z" fill="#101010"/>
<path d="M8.33369 7.02118H6.66693V8.68793H8.33369V7.02118Z" fill="#101010"/>
<path d="M8.33369 5.35437H6.66693V7.02111H8.33369V5.35437Z" fill="#EDEFEF"/>
<path d="M8.33369 3.68591H6.66693V5.35266H8.33369V3.68591Z" fill="#AEB8BA"/>
<path d="M8.33369 2.01907H6.66693V3.68581H8.33369V2.01907Z" fill="#EDEFEF"/>
<path d="M8.33369 0.353882H6.66693V2.02063H8.33369V0.353882Z" fill="#EDEFEF"/>
<path d="M10.0009 8.6864H8.33411V10.3531H10.0009V8.6864Z" fill="#101010"/>
<path d="M10.0009 7.02118H8.33411V8.68793H10.0009V7.02118Z" fill="#EDEFEF"/>
<path d="M10.0009 5.35437H8.33411V7.02111H10.0009V5.35437Z" fill="#EDEFEF"/>
<path d="M10.0009 3.68591H8.33411V5.35266H10.0009V3.68591Z" fill="#AEB8BA"/>
<path d="M10.0009 2.01907H8.33411V3.68581H10.0009V2.01907Z" fill="#EDEFEF"/>
<path d="M10.0009 0.353882H8.33411V2.02063H10.0009V0.353882Z" fill="#EDEFEF"/>
<path d="M11.6677 8.6864H10.001V10.3531H11.6677V8.6864Z" fill="#101010"/>
<path d="M11.6677 7.02118H10.001V8.68793H11.6677V7.02118Z" fill="#EDEFEF"/>
<path d="M11.6677 5.35437H10.001V7.02111H11.6677V5.35437Z" fill="#EDEFEF"/>
<path d="M11.6677 3.68591H10.001V5.35266H11.6677V3.68591Z" fill="#AEB8BA"/>
<path d="M11.6677 2.01907H10.001V3.68581H11.6677V2.01907Z" fill="#EDEFEF"/>
<path d="M11.6677 0.353882H10.001V2.02063H11.6677V0.353882Z" fill="#EDEFEF"/>
<path d="M13.3341 8.6864H11.6674V10.3531H13.3341V8.6864Z" fill="#101010"/>
<path d="M13.3341 7.02118H11.6674V8.68793H13.3341V7.02118Z" fill="#EDEFEF"/>
<path d="M13.3341 5.35437H11.6674V7.02111H13.3341V5.35437Z" fill="#EDEFEF"/>
<path d="M13.3341 3.68591H11.6674V5.35266H13.3341V3.68591Z" fill="#AEB8BA"/>
<path d="M13.3341 2.01907H11.6674V3.68581H13.3341V2.01907Z" fill="#EDEFEF"/>
<path d="M13.3341 0.353882H11.6674V2.02063H13.3341V0.353882Z" fill="#EDEFEF"/>
<path d="M15.0014 8.6864H13.3346V10.3531H15.0014V8.6864Z" fill="#101010"/>
<path d="M15.0014 7.02118H13.3346V8.68793H15.0014V7.02118Z" fill="#EDEFEF"/>
<path d="M15.0014 5.35437H13.3346V7.02111H15.0014V5.35437Z" fill="#EDEFEF"/>
<path d="M15.0014 3.68591H13.3346V5.35266H15.0014V3.68591Z" fill="#AEB8BA"/>
<path d="M15.0014 2.01907H13.3346V3.68581H15.0014V2.01907Z" fill="#EDEFEF"/>
<path d="M15.0014 0.353882H13.3346V2.02063H15.0014V0.353882Z" fill="#EDEFEF"/>
<path d="M16.6678 8.6864H15.001V10.3531H16.6678V8.6864Z" fill="#101010"/>
<path d="M16.6678 7.02118H15.001V8.68793H16.6678V7.02118Z" fill="#EDEFEF"/>
<path d="M16.6678 5.35437H15.001V7.02111H16.6678V5.35437Z" fill="#EDEFEF"/>
<path d="M16.6678 3.68591H15.001V5.35266H16.6678V3.68591Z" fill="#AEB8BA"/>
<path d="M16.6678 2.01907H15.001V3.68581H16.6678V2.01907Z" fill="#EDEFEF"/>
<path d="M16.6678 0.353882H15.001V2.02063H16.6678V0.353882Z" fill="#EDEFEF"/>
<path d="M18.3346 8.6864H16.6678V10.3531H18.3346V8.6864Z" fill="#101010"/>
<path d="M18.3346 7.02118H16.6678V8.68793H18.3346V7.02118Z" fill="#EDEFEF"/>
<path d="M18.3346 5.35437H16.6678V7.02111H18.3346V5.35437Z" fill="#EDEFEF"/>
<path d="M18.3346 3.68591H16.6678V5.35266H18.3346V3.68591Z" fill="#AEB8BA"/>
<path d="M18.3346 2.01907H16.6678V3.68581H18.3346V2.01907Z" fill="#EDEFEF"/>
<path d="M18.3346 0.353882H16.6678V2.02063H18.3346V0.353882Z" fill="#EDEFEF"/>
<path d="M20.001 8.6864H18.3343V10.3531H20.001V8.6864Z" fill="#101010"/>
<path d="M20.001 7.02118H18.3343V8.68793H20.001V7.02118Z" fill="#EDEFEF"/>
<path d="M20.001 5.35437H18.3343V7.02111H20.001V5.35437Z" fill="#EDEFEF"/>
<path d="M20.001 3.68591H18.3343V5.35266H20.001V3.68591Z" fill="#AEB8BA"/>
<path d="M20.001 2.01907H18.3343V3.68581H20.001V2.01907Z" fill="#EDEFEF"/>
<path d="M20.001 0.353882H18.3343V2.02063H20.001V0.353882Z" fill="#EDEFEF"/>
<path d="M21.6683 8.6864H20.0015V10.3531H21.6683V8.6864Z" fill="#101010"/>
<path d="M21.6683 7.02118H20.0015V8.68793H21.6683V7.02118Z" fill="#EDEFEF"/>
<path d="M21.6683 5.35437H20.0015V7.02111H21.6683V5.35437Z" fill="#EDEFEF"/>
<path d="M21.6683 3.68591H20.0015V5.35266H21.6683V3.68591Z" fill="#AEB8BA"/>
<path d="M21.6683 2.01907H20.0015V3.68581H21.6683V2.01907Z" fill="#EDEFEF"/>
<path d="M21.6683 0.353882H20.0015V2.02063H21.6683V0.353882Z" fill="#EDEFEF"/>
<path d="M23.3347 8.6864H21.668V10.3531H23.3347V8.6864Z" fill="#101010"/>
<path d="M23.3347 7.02118H21.668V8.68793H23.3347V7.02118Z" fill="#EDEFEF"/>
<path d="M23.3347 5.35437H21.668V7.02111H23.3347V5.35437Z" fill="#EDEFEF"/>
<path d="M23.3347 3.68591H21.668V5.35266H23.3347V3.68591Z" fill="#AEB8BA"/>
<path d="M23.3347 2.01907H21.668V3.68581H23.3347V2.01907Z" fill="#EDEFEF"/>
<path d="M23.3347 0.353882H21.668V2.02063H23.3347V0.353882Z" fill="#EDEFEF"/>
<path d="M25.0015 8.6864H23.3347V10.3531H25.0015V8.6864Z" fill="#101010"/>
<path d="M25.0015 7.02118H23.3347V8.68793H25.0015V7.02118Z" fill="#EDEFEF"/>
<path d="M25.0015 5.35437H23.3347V7.02111H25.0015V5.35437Z" fill="#EDEFEF"/>
<path d="M25.0015 3.68591H23.3347V5.35266H25.0015V3.68591Z" fill="#AEB8BA"/>
<path d="M25.0015 2.01907H23.3347V3.68581H25.0015V2.01907Z" fill="#EDEFEF"/>
<path d="M25.0015 0.353882H23.3347V2.02063H25.0015V0.353882Z" fill="#EDEFEF"/>
<path d="M26.668 7.02118H25.0012V8.68793H26.668V7.02118Z" fill="#EDEFEF"/>
<path d="M26.668 5.35437H25.0012V7.02111H26.668V5.35437Z" fill="#EDEFEF"/>
<path d="M26.668 3.68591H25.0012V5.35266H26.668V3.68591Z" fill="#AEB8BA"/>
<path d="M26.668 2.01907H25.0012V3.68581H26.668V2.01907Z" fill="#EDEFEF"/>
<path d="M26.668 0.353882H25.0012V2.02063H26.668V0.353882Z" fill="#EDEFEF"/>
<path d="M28.3352 7.02118H26.6685V8.68793H28.3352V7.02118Z" fill="#EDEFEF"/>
<path d="M28.3352 5.35437H26.6685V7.02111H28.3352V5.35437Z" fill="#EDEFEF"/>
<path d="M28.3352 3.68591H26.6685V5.35266H28.3352V3.68591Z" fill="#AEB8BA"/>
<path d="M28.3352 2.01907H26.6685V3.68581H28.3352V2.01907Z" fill="#EDEFEF"/>
<path d="M28.3352 0.353882H26.6685V2.02063H28.3352V0.353882Z" fill="#EDEFEF"/>
<path d="M30.005 7.02118H28.3348V8.68793H30.005V7.02118Z" fill="#EDEFEF"/>
<path d="M30.005 5.35437H28.3348V7.02111H30.005V5.35437Z" fill="#EDEFEF"/>
<path d="M30.005 3.68591H28.3348V5.35266H30.005V3.68591Z" fill="#AEB8BA"/>
<path d="M30.005 2.01907H28.3348V3.68581H30.005V2.01907Z" fill="#EDEFEF"/>
<path d="M30.005 0.353882H28.3348V2.02063H30.005V0.353882Z" fill="#EDEFEF"/>
<path d="M31.6721 7.02118H30.0054V8.68793H31.6721V7.02118Z" fill="#EDEFEF"/>
<path d="M31.6721 5.35437H30.0054V7.02111H31.6721V5.35437Z" fill="#EDEFEF"/>
<path d="M31.6721 3.68591H30.0054V5.35266H31.6721V3.68591Z" fill="#AEB8BA"/>
<path d="M31.6721 2.01907H30.0054V3.68581H31.6721V2.01907Z" fill="#EDEFEF"/>
<path d="M31.6721 0.353882H30.0054V2.02063H31.6721V0.353882Z" fill="#EDEFEF"/>
<path d="M33.3385 7.02118H31.6718V8.68793H33.3385V7.02118Z" fill="#EDEFEF"/>
<path d="M33.3385 5.35437H31.6718V7.02111H33.3385V5.35437Z" fill="#EDEFEF"/>
<path d="M33.3385 3.68591H31.6718V5.35266H33.3385V3.68591Z" fill="#AEB8BA"/>
<path d="M33.3385 2.01907H31.6718V3.68581H33.3385V2.01907Z" fill="#EDEFEF"/>
<path d="M33.3385 0.353882H31.6718V2.02063H33.3385V0.353882Z" fill="#EDEFEF"/>
<path d="M35.0049 7.02118H33.3381V8.68793H35.0049V7.02118Z" fill="#EDEFEF"/>
<path d="M35.0049 5.35437H33.3381V7.02111H35.0049V5.35437Z" fill="#EDEFEF"/>
<path d="M35.0049 3.68591H33.3381V5.35266H35.0049V3.68591Z" fill="#AEB8BA"/>
<path d="M35.0049 2.01907H33.3381V3.68581H35.0049V2.01907Z" fill="#EDEFEF"/>
<path d="M35.0049 0.353882H33.3381V2.02063H35.0049V0.353882Z" fill="#EDEFEF"/>
<path d="M36.6721 7.02118H35.0054V8.68793H36.6721V7.02118Z" fill="#EDEFEF"/>
<path d="M36.6721 5.35437H35.0054V7.02111H36.6721V5.35437Z" fill="#EDEFEF"/>
<path d="M36.6721 3.68591H35.0054V5.35266H36.6721V3.68591Z" fill="#AEB8BA"/>
<path d="M36.6721 2.01907H35.0054V3.68581H36.6721V2.01907Z" fill="#EDEFEF"/>
<path d="M36.6721 0.353882H35.0054V2.02063H36.6721V0.353882Z" fill="#EDEFEF"/>
<path d="M38.339 5.35437H36.6722V7.02111H38.339V5.35437Z" fill="#EDEFEF"/>
<path d="M38.339 3.68591H36.6722V5.35266H38.339V3.68591Z" fill="#AEB8BA"/>
<path d="M38.339 2.01907H36.6722V3.68581H38.339V2.01907Z" fill="#EDEFEF"/>
<path d="M38.339 0.353882H36.6722V2.02063H38.339V0.353882Z" fill="#EDEFEF"/>
<path d="M40.0054 3.68591H38.3386V5.35266H40.0054V3.68591Z" fill="#AEB8BA"/>
<path d="M40.0054 2.01907H38.3386V3.68581H40.0054V2.01907Z" fill="#EDEFEF"/>
<path d="M40.0054 0.353882H38.3386V2.02063H40.0054V0.353882Z" fill="#EDEFEF"/>
<path d="M41.6726 2.01907H40.0059V3.68581H41.6726V2.01907Z" fill="#EDEFEF"/>
<path d="M41.6726 0.353882H40.0059V2.02063H41.6726V0.353882Z" fill="#EDEFEF"/>
<path d="M43.3391 2.01907H41.6724V3.68581H43.3391V2.01907Z" fill="#EDEFEF"/>
<path d="M43.3391 0.353882H41.6724V2.02063H43.3391V0.353882Z" fill="#EDEFEF"/>
</svg>
