<svg width="195" height="52" viewBox="0 0 195 52" fill="none" xmlns="http://www.w3.org/2000/svg">
<rect x="1.42057" y="1.55111" width="191.85" height="49.0285" rx="3.19751" fill="url(#paint0_linear_1282_9124)"/>
<rect x="1.42057" y="1.55111" width="191.85" height="49.0285" rx="3.19751" stroke="#FCD845" stroke-width="2.13167"/>
<path d="M58.1192 25.483L41.9223 2.61679H2.48633V50.5794H34.4614H40.8564L57.8772 30.7219C59.1494 29.2376 59.2491 27.0783 58.1192 25.483Z" fill="#FCD845"/>
<path d="M47.2491 26.6736L41.6766 24.6091C41.2016 22.508 40.014 21.3021 40.014 21.3021C39.303 20.5901 38.4586 20.0252 37.5291 19.6397C36.5995 19.2543 35.6031 19.0559 34.5969 19.0559C33.5906 19.0559 32.5942 19.2543 31.6647 19.6397C30.7351 20.0252 29.8907 20.5901 29.1797 21.3021L26.4757 24.0062L14.3625 11.1438C12.5354 18.452 14.3625 25.7601 18.8387 31.6432L8.88135 41.2899C8.88135 41.2899 25.1237 44.944 34.5877 37.5445C39.6304 33.5981 40.7631 31.296 41.4757 28.8661L47.2491 26.6736ZM37.5841 27.0756C36.8715 27.7881 35.7022 27.7881 34.9897 27.0756C34.8203 26.9066 34.6859 26.7058 34.5943 26.4848C34.5026 26.2637 34.4554 26.0268 34.4554 25.7875C34.4554 25.5482 34.5026 25.3113 34.5943 25.0903C34.6859 24.8693 34.8203 24.6685 34.9897 24.4995C35.7022 23.7869 36.8715 23.7869 37.5841 24.4995C38.2966 25.212 38.2966 26.363 37.5841 27.0756Z" fill="black"/>
<path d="M81.6703 31.4259V35.0653H70.0241V16.8681H81.6703V20.5076H73.6636V24.147H80.2146V27.7865H73.6636V31.4259H81.6703ZM90.8123 27.0586V22.6912H90.0844V21.9634H89.3565V21.2355H87.9007V21.9634H87.1728V22.6912H86.4449V27.0586H90.8123ZM83.5334 21.2355V20.5076H84.2613V19.7797H84.9892V19.0518H85.7171V18.3239H86.4449V17.596H87.1728V16.8681H90.0844V17.596H90.8123V18.3239H91.5402V19.0518H92.268V19.7797H92.9959V20.5076H93.7238V21.2355H94.4517V35.0653H90.8123V30.698H86.4449V35.0653H82.8055V21.2355H83.5334ZM102.866 21.2355V20.5076H99.2263V25.6028H102.866V24.8749H103.594V21.2355H102.866ZM106.505 28.5143H107.233V35.0653H103.594V29.2422H99.2263V35.0653H95.5869V16.8681H104.322V17.596H105.777V18.3239H106.505V19.7797H107.233V26.3307H106.505V27.0586H105.777V27.7865H106.505V28.5143ZM117.831 31.4259V35.0653H108.368V16.8681H112.008V31.4259H117.831ZM123.331 29.2422H122.603V28.5143H121.875V27.7865H121.147V27.0586H120.42V26.3307H119.692V25.6028H118.964V16.8681H122.603V24.147H123.331V24.8749H124.059V25.6028H126.243V24.8749H126.971V24.147H127.698V16.8681H131.338V25.6028H130.61V26.3307H129.882V27.0586H129.154V27.7865H128.426V28.5143H127.698V29.2422H126.971V35.0653H123.331V29.2422ZM145.219 21.2355V20.5076H141.579V24.147H145.219V23.4191H145.947V21.2355H145.219ZM145.219 28.5143V27.7865H141.579V31.4259H145.219V30.698H145.947V28.5143H145.219ZM148.13 26.3307H148.858V27.0586H149.586V32.1538H148.858V33.6096H148.13V34.3375H146.675V35.0653H137.94V16.8681H146.675V17.596H148.13V18.3239H148.858V19.7797H149.586V24.8749H148.858V25.6028H148.13V26.3307ZM154.361 16.8681V35.0653H150.721V16.8681H154.361ZM162.767 21.2355V20.5076H159.128V25.6028H162.767V24.8749H163.495V21.2355H162.767ZM166.407 28.5143H167.134V35.0653H163.495V29.2422H159.128V35.0653H155.488V16.8681H164.223V17.596H165.679V18.3239H166.407V19.7797H167.134V26.3307H166.407V27.0586H165.679V27.7865H166.407V28.5143ZM175.548 21.2355V20.5076H171.909V31.4259H175.548V30.698H176.276V21.2355H175.548ZM179.916 19.7797V32.1538H179.188V33.6096H178.46V34.3375H177.004V35.0653H168.27V16.8681H177.004V17.596H178.46V18.3239H179.188V19.7797H179.916Z" fill="#FCD845"/>
<defs>
<linearGradient id="paint0_linear_1282_9124" x1="46.243" y1="26.0653" x2="291.328" y2="26.0653" gradientUnits="userSpaceOnUse">
<stop offset="0.0784205" stop-color="#1D131B"/>
<stop offset="1" stop-color="#FCD845" stop-opacity="0"/>
</linearGradient>
</defs>
</svg>
