<svg width="56" height="28" viewBox="0 0 56 28" fill="none" xmlns="http://www.w3.org/2000/svg">
<path d="M14.0677 0C10.163 0.0364583 6.87865 1.35005 4.21464 3.94078C1.55063 6.53151 0.145711 9.8525 -0.00012207 13.9037C0.145711 17.8449 1.51417 21.1199 4.10527 23.7289C6.69636 26.3382 9.98071 27.6793 13.9583 27.7523C17.9359 27.6429 21.211 26.3018 23.7835 23.7289C26.3563 21.1564 27.7157 17.9178 27.8615 14.0131C27.7521 9.92578 26.3746 6.59568 23.7288 4.02281C21.0834 1.45031 17.863 0.109375 14.0677 0ZM12.9182 20.8004H6.02097V7.93734L7.66324 7.88211L9.14144 7.93734V18.0638L12.9182 18.2279L12.9728 19.5962C12.9728 19.9976 12.9546 20.399 12.9182 20.8004ZM19.3773 20.8004L18.8846 20.8277C18.5561 20.846 18.1182 20.8551 17.571 20.8551H16.2574L15.71 20.7998C14.0679 16.8587 12.8637 12.6257 12.0973 8.10086C13.1189 7.95466 14.1406 7.88156 15.1625 7.88156C15.4546 9.56047 15.8013 11.221 16.2027 12.863C16.6041 14.5051 17.042 16.0743 17.5163 17.5705H17.571C18.0088 16.1472 18.4467 14.578 18.8846 12.863C19.3224 11.148 19.6691 9.48755 19.9247 7.88156C20.3261 7.88156 20.7458 7.89997 21.1836 7.9368L22.99 8.04617C22.2601 12.3887 21.0558 16.6405 19.3773 20.8004ZM54.7382 1.4782H24.4682C24.2855 1.44138 24.1395 1.47784 24.0301 1.58758C24.103 1.73341 24.2126 1.86102 24.3588 1.97039C25.5995 3.17461 26.6941 4.50661 27.6428 5.96641C28.3362 7.09771 28.911 8.26547 29.3671 9.46969C29.8232 10.6739 30.1061 11.9512 30.2158 13.3016C30.3252 14.9437 30.1518 16.5036 29.6957 17.9812C29.2396 19.4593 28.5555 20.8553 27.6433 22.1692C26.5849 23.629 25.326 24.9975 23.8666 26.2746H54.9034C55.6697 26.2746 56.0345 25.8914 55.9977 25.1251V2.73711C56.0345 1.89784 55.6143 1.4782 54.7382 1.4782Z" fill="#FF8DF7"/>
</svg>
