<svg width="405" height="482" viewBox="0 0 405 482" fill="none" xmlns="http://www.w3.org/2000/svg">
<g filter="url(#filter0_di_2421_2)">
<rect x="18" y="8" width="369" height="442" fill="#130511" shape-rendering="crispEdges"/>
<rect x="18.5" y="8.5" width="368" height="441" stroke="#332231" shape-rendering="crispEdges"/>
<path d="M72.0488 64.7561V63.5854H66.1951V71.7805H72.0488V70.6098H73.2195V64.7561H72.0488ZM77.9024 76.4634H79.0732V87H73.2195V77.6341H66.1951V87H60.3415V57.7317H74.3902V58.9024H76.7317V60.0732H77.9024V62.4146H79.0732V72.9512H77.9024V74.122H76.7317V75.2927H77.9024V76.4634ZM99.6307 81.1463V87H80.899V57.7317H99.6307V63.5854H86.7526V69.439H97.2892V75.2927H86.7526V81.1463H99.6307ZM103.798 81.1463H102.627V79.9756H101.456V57.7317H107.31V77.6341H108.481V78.8049H109.652V79.9756H110.822V78.8049H111.993V77.6341H113.164V57.7317H119.017V77.6341H120.188V78.8049H121.359V79.9756H122.53V78.8049H123.7V77.6341H124.871V57.7317H130.725V79.9756H129.554V81.1463H128.383V82.3171H127.213V83.4878H126.042V84.6585H124.871V85.8293H123.7V87H120.188V85.8293H119.017V84.6585H117.847V83.4878H116.676V82.3171H115.505V83.4878H114.335V84.6585H113.164V85.8293H111.993V87H108.481V85.8293H107.31V84.6585H106.139V83.4878H104.969V82.3171H103.798V81.1463ZM145.392 74.122V67.0976H144.221V65.9268H143.051V64.7561H140.709V65.9268H139.538V67.0976H138.368V74.122H145.392ZM133.685 64.7561V63.5854H134.855V62.4146H136.026V61.2439H137.197V60.0732H138.368V58.9024H139.538V57.7317H144.221V58.9024H145.392V60.0732H146.563V61.2439H147.733V62.4146H148.904V63.5854H150.075V64.7561H151.246V87H145.392V79.9756H138.368V87H132.514V64.7561H133.685ZM164.779 64.7561V63.5854H158.925V71.7805H164.779V70.6098H165.95V64.7561H164.779ZM170.632 76.4634H171.803V87H165.95V77.6341H158.925V87H153.071V57.7317H167.12V58.9024H169.462V60.0732H170.632V62.4146H171.803V72.9512H170.632V74.122H169.462V75.2927H170.632V76.4634ZM185.336 64.7561V63.5854H179.483V81.1463H185.336V79.9756H186.507V64.7561H185.336ZM192.361 62.4146V82.3171H191.19V84.6585H190.019V85.8293H187.678V87H173.629V57.7317H187.678V58.9024H190.019V60.0732H191.19V62.4146H192.361ZM217.074 69.439V57.7317H222.928V87H217.074V75.2927H208.879V87H203.025V57.7317H208.879V69.439H217.074ZM231.732 79.9756V81.1463H237.586V79.9756H238.756V57.7317H244.61V82.3171H243.439V84.6585H242.269V85.8293H239.927V87H229.391V85.8293H227.049V84.6585H225.878V82.3171H224.708V57.7317H230.561V79.9756H231.732ZM258.098 64.7561V63.5854H252.244V69.439H258.098V68.2683H259.268V64.7561H258.098ZM258.098 76.4634V75.2927H252.244V81.1463H258.098V79.9756H259.268V76.4634H258.098ZM262.78 72.9512H263.951V74.122H265.122V82.3171H263.951V84.6585H262.78V85.8293H260.439V87H246.39V57.7317H260.439V58.9024H262.78V60.0732H263.951V62.4146H265.122V70.6098H263.951V71.7805H262.78V72.9512Z" fill="#130511"/>
<path d="M62.16 141.4H58.32V140.12H67.28V141.4H63.44V151H62.16V141.4ZM67.6085 149.72H72.0885V151H67.6085V149.72ZM67.6085 143.32H72.0885V144.6H67.6085V143.32ZM67.6085 144.6V149.72H66.3285V144.6H67.6085ZM73.3685 144.6V149.72H72.0885V144.6H73.3685ZM75.0569 143.32V141.4H76.3369V143.32H78.8969V144.6H76.3369V149.72H75.0569V144.6H73.7769V143.32H75.0569ZM78.8969 149.72V151H76.3369V149.72H78.8969ZM84.4969 149.72H83.2169V148.44H84.4969V147.16H80.6569V145.88H84.4969V144.6H85.7769V151H84.4969V149.72ZM80.6569 143.32H84.4969V144.6H80.6569V143.32ZM80.6569 145.88H79.3769V144.6H80.6569V145.88ZM80.6569 149.72H83.2169V151H80.6569V149.72ZM79.3769 147.16H80.6569V149.72H79.3769V147.16ZM87.11 140.12H88.39V151H87.11V140.12ZM92.507 140.12H98.907V141.4H93.787V145.24H98.907V146.52H97.627V147.8H96.347V146.52H93.787V151H92.507V140.12ZM100.187 141.4V145.24H98.907V141.4H100.187ZM98.907 149.72H100.187V151H98.907V149.72ZM97.627 147.8H98.907V149.72H97.627V147.8ZM102.364 144.6V146.52H106.844V144.6H108.124V147.8H102.364V149.72H101.084V144.6H102.364ZM106.844 149.72V151H102.364V149.72H106.844ZM102.364 143.32H106.844V144.6H102.364V143.32ZM106.844 148.44H108.124V149.72H106.844V148.44ZM110.612 140.12V144.6H111.892V145.88H110.612V148.44H111.892V149.72H110.612V151H109.332V140.12H110.612ZM115.093 143.32V144.6H111.892V143.32H115.093ZM115.093 151H111.892V149.72H115.093V151ZM115.093 144.6H116.373V149.72H115.093V144.6ZM122.471 149.72H121.191V148.44H122.471V147.16H118.631V145.88H122.471V144.6H123.751V151H122.471V149.72ZM118.631 143.32H122.471V144.6H118.631V143.32ZM118.631 145.88H117.351V144.6H118.631V145.88ZM118.631 149.72H121.191V151H118.631V149.72ZM117.351 147.16H118.631V149.72H117.351V147.16ZM125.408 143.32V141.4H126.688V143.32H129.248V144.6H126.688V149.72H125.408V144.6H124.128V143.32H125.408ZM129.248 149.72V151H126.688V149.72H129.248ZM131.102 144.6V146.52H135.582V144.6H136.862V147.8H131.102V149.72H129.822V144.6H131.102ZM135.582 149.72V151H131.102V149.72H135.582ZM131.102 143.32H135.582V144.6H131.102V143.32ZM135.582 148.44H136.862V149.72H135.582V148.44ZM140.74 140.12H148.42V141.4H142.02V144.6H147.78V145.88H142.02V149.72H148.42V151H140.74V140.12ZM154.562 149.72H153.282V148.44H154.562V147.16H150.722V145.88H154.562V144.6H155.842V151H154.562V149.72ZM150.722 143.32H154.562V144.6H150.722V143.32ZM150.722 145.88H149.442V144.6H150.722V145.88ZM150.722 149.72H153.282V151H150.722V149.72ZM149.442 147.16H150.722V149.72H149.442V147.16ZM157.175 143.32H158.455V144.6H159.735V145.88H158.455V151H157.175V143.32ZM159.735 143.32H161.655V144.6H159.735V143.32ZM162.215 143.32H163.495V144.6H164.775V145.88H163.495V151H162.215V143.32ZM164.775 143.32H167.335V144.6H164.775V143.32ZM168.615 144.6V151H167.335V144.6H168.615ZM170.999 144.6V146.52H175.479V144.6H176.759V147.8H170.999V149.72H169.719V144.6H170.999ZM175.479 149.72V151H170.999V149.72H175.479ZM170.999 143.32H175.479V144.6H170.999V143.32ZM175.479 148.44H176.759V149.72H175.479V148.44ZM184.783 140.12V151H183.503V149.72H182.223V148.44H183.503V145.88H182.223V144.6H183.503V140.12H184.783ZM179.023 149.72H182.223V151H179.023V149.72ZM177.743 144.6H179.023V149.72H177.743V144.6ZM179.023 143.32H182.223V144.6H179.023V143.32Z" fill="#130511"/>
<path d="M67.6585 169.049V191H63.2683V173.439H59.7561V169.049H67.6585ZM74.2902 184.854V185.732H73.4121V186.61H83.0707V191H69.0219V184.854H69.8999V183.976H70.778V183.098H71.656V182.22H72.5341V181.341H73.4121V180.463H74.2902V179.585H75.1682V178.707H76.0463V177.829H76.9243V176.951H77.8024V176.073H78.6804V174.317H77.8024V173.439H74.2902V174.317H73.4121V175.195H69.0219V172.561H69.8999V170.805H70.778V169.927H72.5341V169.049H79.5585V169.927H81.3146V170.805H82.1926V172.561H83.0707V176.951H82.1926V177.829H81.3146V178.707H80.4365V179.585H79.5585V180.463H78.6804V181.341H77.8024V182.22H76.9243V183.098H76.0463V183.976H75.1682V184.854H74.2902ZM88.8302 186.61V191H84.44V186.61H88.8302ZM102.483 187.488V189.244H101.605V190.122H99.8487V191H93.7024V190.122H91.9463V189.244H91.0682V187.488H90.1902V172.561H91.0682V170.805H91.9463V169.927H93.7024V169.049H99.8487V169.927H101.605V170.805H102.483V172.561H103.361V187.488H102.483ZM95.4585 185.732V186.61H98.0926V185.732H98.9706V174.317H98.0926V173.439H95.4585V174.317H94.5804V185.732H95.4585ZM117.022 187.488V189.244H116.144V190.122H114.388V191H108.242V190.122H106.485V189.244H105.607V187.488H104.729V172.561H105.607V170.805H106.485V169.927H108.242V169.049H114.388V169.927H116.144V170.805H117.022V172.561H117.9V187.488H117.022ZM109.998 185.732V186.61H112.632V185.732H113.51V174.317H112.632V173.439H109.998V174.317H109.12V185.732H109.998ZM131.166 185.732V186.61H135.556V185.732H136.434V183.098H135.556V182.22H129.41V181.341H127.654V180.463H126.776V178.707H125.898V172.561H126.776V170.805H127.654V169.927H129.41V169.049H137.312V169.927H139.068V170.805H139.946V172.561H140.824V175.195H136.434V174.317H135.556V173.439H131.166V174.317H130.288V176.951H131.166V177.829H137.312V178.707H139.068V179.585H139.946V181.341H140.824V187.488H139.946V189.244H139.068V190.122H137.312V191H129.41V190.122H127.654V189.244H126.776V187.488H125.898V183.976H130.288V185.732H131.166ZM156.208 187.488V189.244H155.33V190.122H153.574V191H145.672V190.122H143.916V189.244H143.038V187.488H142.16V172.561H143.038V170.805H143.916V169.927H145.672V169.049H153.574V169.927H155.33V170.805H156.208V172.561H157.086V187.488H156.208ZM147.428 185.732V186.61H151.818V185.732H152.696V174.317H151.818V173.439H147.428V174.317H146.55V185.732H147.428ZM169.836 186.61V191H158.421V169.049H162.812V186.61H169.836Z" fill="#130511"/>
<path d="M262.16 141.4H258.32V140.12H267.28V141.4H263.44V151H262.16V141.4ZM267.609 149.72H272.089V151H267.609V149.72ZM267.609 143.32H272.089V144.6H267.609V143.32ZM267.609 144.6V149.72H266.329V144.6H267.609ZM273.369 144.6V149.72H272.089V144.6H273.369ZM275.057 143.32V141.4H276.337V143.32H278.897V144.6H276.337V149.72H275.057V144.6H273.777V143.32H275.057ZM278.897 149.72V151H276.337V149.72H278.897ZM284.497 149.72H283.217V148.44H284.497V147.16H280.657V145.88H284.497V144.6H285.777V151H284.497V149.72ZM280.657 143.32H284.497V144.6H280.657V143.32ZM280.657 145.88H279.377V144.6H280.657V145.88ZM280.657 149.72H283.217V151H280.657V149.72ZM279.377 147.16H280.657V149.72H279.377V147.16ZM287.11 140.12H288.39V151H287.11V140.12ZM292.507 140.12H298.907V141.4H293.787V145.88H298.907V147.16H293.787V151H292.507V140.12ZM300.187 141.4V145.88H298.907V141.4H300.187ZM302.192 149.72H306.672V151H302.192V149.72ZM302.192 143.32H306.672V144.6H302.192V143.32ZM302.192 144.6V149.72H300.912V144.6H302.192ZM307.952 144.6V149.72H306.672V144.6H307.952ZM309.161 143.32H310.441V151H309.161V143.32ZM309.161 140.76H310.441V142.04H309.161V140.76ZM311.888 143.32H313.168V144.6H314.448V145.88H313.168V151H311.888V143.32ZM314.448 143.32H317.008V144.6H314.448V143.32ZM318.288 144.6V151H317.008V144.6H318.288ZM320.096 143.32V141.4H321.376V143.32H323.936V144.6H321.376V149.72H320.096V144.6H318.816V143.32H320.096ZM323.936 149.72V151H321.376V149.72H323.936Z" fill="#130511"/>
<path d="M272.927 177.829V182.22H259.756V177.829H272.927ZM287.466 177.829V182.22H274.295V177.829H287.466Z" fill="#130511"/>
<rect opacity="0.04" x="302.685" y="385" width="29.6024" height="29.6024" fill="#FF8DF7" fill-opacity="0.57"/>
<rect opacity="0.04" x="272.287" y="263" width="29.6024" height="29.6024" fill="#FF8DF7" fill-opacity="0.73"/>
<rect opacity="0.04" x="331.89" y="263" width="29.6024" height="29.6024" fill="#FF8DF7"/>
<g opacity="0.16">
<rect x="80" y="290" width="16" height="16" fill="#FF8DF7" fill-opacity="0.52"/>
<rect x="37" y="391" width="26" height="18" fill="#FF8DF7" fill-opacity="0.52"/>
</g>
<rect opacity="0.04" x="302.492" y="292" width="29.6024" height="29.6024" fill="#FF8DF7"/>
<rect opacity="0.04" x="332.094" y="355" width="29.6024" height="29.6024" fill="#FF8DF7"/>
<g clip-path="url(#clip0_2421_2)">
<g opacity="0.12">
<path d="M137.177 388.367H130.451V395.094H137.177V388.367Z" fill="#BF8AB8"/>
<path d="M137.177 381.639H130.451V388.366H137.177V381.639Z" fill="#BF8AB8"/>
<path d="M137.177 374.915H130.451V381.641H137.177V374.915Z" fill="#72466C"/>
<path d="M137.177 368.185H130.451V374.912H137.177V368.185Z" fill="#732F3B"/>
<path d="M137.177 361.462H130.451V368.188H137.177V361.462Z" fill="#91588A"/>
<path d="M137.177 354.734H130.451V361.461H137.177V354.734Z" fill="#732F3B"/>
<path d="M137.177 348.006H130.451V354.733H137.177V348.006Z" fill="#72466C"/>
<path d="M137.177 341.28H130.451V348.007H137.177V341.28Z" fill="#BF8AB8"/>
<path d="M137.177 334.553H130.451V341.28H137.177V334.553Z" fill="#BF8AB8"/>
<path d="M137.177 327.826H130.451V334.553H137.177V327.826Z" fill="#BF8AB8"/>
<path d="M137.177 321.099H130.451V327.825H137.177V321.099Z" fill="#AEB8BA"/>
<path d="M137.177 314.373H130.451V321.1H137.177V314.373Z" fill="#AEB8BA"/>
<path d="M137.177 307.645H130.451V314.372H137.177V307.645Z" fill="#AEB8BA"/>
<path d="M137.177 300.904H130.451V307.645H137.177V300.904Z" fill="#794D72"/>
<path d="M143.903 388.367H137.177V395.094H143.903V388.367Z" fill="#BF8AB8"/>
<path d="M143.903 381.639H137.177V388.366H143.903V381.639Z" fill="#BF8AB8"/>
<path d="M143.903 374.915H137.177V381.641H143.903V374.915Z" fill="#72466C"/>
<path d="M143.903 368.185H137.177V374.912H143.903V368.185Z" fill="#732F3B"/>
<path d="M143.903 361.462H137.177V368.188H143.903V361.462Z" fill="#91588A"/>
<path d="M143.903 354.734H137.177V361.461H143.903V354.734Z" fill="#732F3B"/>
<path d="M143.903 348.006H137.177V354.733H143.903V348.006Z" fill="#72466C"/>
<path d="M143.903 341.28H137.177V348.007H143.903V341.28Z" fill="#BF8AB8"/>
<path d="M143.903 334.553H137.177V341.28H143.903V334.553Z" fill="#BF8AB8"/>
<path d="M143.903 327.826H137.177V334.553H143.903V327.826Z" fill="#BF8AB8"/>
<path d="M143.903 321.099H137.177V327.825H143.903V321.099Z" fill="#EDEFEF"/>
<path d="M143.903 314.373H137.177V321.1H143.903V314.373Z" fill="#EDEFEF"/>
<path d="M143.903 307.645H137.177V314.372H143.903V307.645Z" fill="#732F3B"/>
<path d="M143.903 300.904H137.177V307.645H143.903V300.904Z" fill="#794D72"/>
<path d="M150.633 388.367H143.907V395.094H150.633V388.367Z" fill="#BF8AB8"/>
<path d="M150.633 381.639H143.907V388.366H150.633V381.639Z" fill="#BF8AB8"/>
<path d="M150.633 374.915H143.907V381.641H150.633V374.915Z" fill="#72466C"/>
<path d="M150.633 368.185H143.907V374.912H150.633V368.185Z" fill="#732F3B"/>
<path d="M150.633 361.462H143.907V368.188H150.633V361.462Z" fill="#91588A"/>
<path d="M150.633 354.734H143.907V361.461H150.633V354.734Z" fill="#732F3B"/>
<path d="M150.633 348.006H143.907V354.733H150.633V348.006Z" fill="#72466C"/>
<path d="M150.633 341.28H143.907V348.007H150.633V341.28Z" fill="#BF8AB8"/>
<path d="M150.633 334.553H143.907V341.28H150.633V334.553Z" fill="#BF8AB8"/>
<path d="M150.633 327.826H143.907V334.553H150.633V327.826Z" fill="#BF8AB8"/>
<path d="M150.633 321.099H143.907V327.825H150.633V321.099Z" fill="#EDEFEF"/>
<path d="M150.633 314.373H143.907V321.1H150.633V314.373Z" fill="#EDEFEF"/>
<path d="M150.633 307.645H143.907V314.372H150.633V307.645Z" fill="#AEB8BA"/>
<path d="M150.633 300.904H143.907V307.645H150.633V300.904Z" fill="#794D72"/>
<path d="M157.357 388.367H150.63V395.094H157.357V388.367Z" fill="#BF8AB8"/>
<path d="M157.357 381.639H150.63V388.366H157.357V381.639Z" fill="#BF8AB8"/>
<path d="M157.357 374.915H150.63V381.641H157.357V374.915Z" fill="#72466C"/>
<path d="M157.357 368.185H150.63V374.912H157.357V368.185Z" fill="#732F3B"/>
<path d="M157.357 361.462H150.63V368.188H157.357V361.462Z" fill="#91588A"/>
<path d="M157.357 354.734H150.63V361.461H157.357V354.734Z" fill="#732F3B"/>
<path d="M157.357 348.006H150.63V354.733H157.357V348.006Z" fill="#72466C"/>
<path d="M157.357 341.28H150.63V348.007H157.357V341.28Z" fill="#BF8AB8"/>
<path d="M157.357 334.553H150.63V341.28H157.357V334.553Z" fill="#BF8AB8"/>
<path d="M157.357 327.826H150.63V334.553H157.357V327.826Z" fill="#BF8AB8"/>
<path d="M157.357 321.099H150.63V327.825H157.357V321.099Z" fill="#EDEFEF"/>
<path d="M157.357 314.373H150.63V321.1H157.357V314.373Z" fill="#EDEFEF"/>
<path d="M157.357 307.645H150.63V314.372H157.357V307.645Z" fill="#794D72"/>
<path d="M157.357 300.904H150.63V307.645H157.357V300.904Z" fill="#794D72"/>
<path d="M164.085 388.367H157.358V395.094H164.085V388.367Z" fill="#965F8E"/>
<path d="M164.085 381.639H157.358V388.366H164.085V381.639Z" fill="#965F8E"/>
<path d="M164.085 374.915H157.358V381.641H164.085V374.915Z" fill="#BF8AB8"/>
<path d="M164.085 368.185H157.358V374.912H164.085V368.185Z" fill="#52364F"/>
<path d="M164.085 361.462H157.358V368.188H164.085V361.462Z" fill="#965F8E"/>
<path d="M164.085 354.734H157.358V361.461H164.085V354.734Z" fill="#52364F"/>
<path d="M164.085 348.006H157.358V354.733H164.085V348.006Z" fill="#BF8AB8"/>
<path d="M164.085 341.28H157.358V348.007H164.085V341.28Z" fill="#965F8E"/>
<path d="M164.085 334.553H157.358V341.28H164.085V334.553Z" fill="#965F8E"/>
<path d="M164.085 327.826H157.358V334.553H164.085V327.826Z" fill="#965F8E"/>
<path d="M164.085 321.099H157.358V327.825H164.085V321.099Z" fill="#EDEFEF"/>
<path d="M164.085 314.373H157.358V321.1H164.085V314.373Z" fill="#AEB8BA"/>
<path d="M164.085 307.645H157.358V314.372H164.085V307.645Z" fill="#AEB8BA"/>
<path d="M164.085 300.904H157.358V307.645H164.085V300.904Z" fill="#794D72"/>
<path d="M170.81 388.367H164.084V395.094H170.81V388.367Z" fill="#965F8E"/>
<path d="M170.81 381.639H164.084V388.366H170.81V381.639Z" fill="#965F8E"/>
<path d="M170.81 374.915H164.084V381.641H170.81V374.915Z" fill="#BF8AB8"/>
<path d="M170.81 368.185H164.084V374.912H170.81V368.185Z" fill="#52364F"/>
<path d="M170.81 361.462H164.084V368.188H170.81V361.462Z" fill="#965F8E"/>
<path d="M170.81 354.734H164.084V361.461H170.81V354.734Z" fill="#52364F"/>
<path d="M170.81 348.006H164.084V354.733H170.81V348.006Z" fill="#BF8AB8"/>
<path d="M170.81 341.28H164.084V348.007H170.81V341.28Z" fill="#965F8E"/>
<path d="M170.81 334.553H164.084V341.28H170.81V334.553Z" fill="#965F8E"/>
<path d="M170.81 327.826H164.084V334.553H170.81V327.826Z" fill="#965F8E"/>
<path d="M170.81 321.099H164.084V327.825H170.81V321.099Z" fill="#EDEFEF"/>
<path d="M170.81 314.373H164.084V321.1H170.81V314.373Z" fill="#EDEFEF"/>
<path d="M170.81 307.645H164.084V314.372H170.81V307.645Z" fill="#732F3B"/>
<path d="M170.81 300.904H164.084V307.645H170.81V300.904Z" fill="#794D72"/>
<path d="M170.81 294.177H164.084V300.904H170.81V294.177Z" fill="#794D72"/>
<path d="M170.81 287.452H164.084V294.179H170.81V287.452Z" fill="#794D72"/>
<path d="M170.81 280.724H164.084V287.451H170.81V280.724Z" fill="#794D72"/>
<path d="M170.81 274H164.084V280.727H170.81V274Z" fill="#794D72"/>
<path d="M177.538 388.367H170.812V395.094H177.538V388.367Z" fill="#965F8E"/>
<path d="M177.538 381.639H170.812V388.366H177.538V381.639Z" fill="#965F8E"/>
<path d="M177.538 374.915H170.812V381.641H177.538V374.915Z" fill="#BF8AB8"/>
<path d="M177.538 368.185H170.812V374.912H177.538V368.185Z" fill="#52364F"/>
<path d="M177.538 361.462H170.812V368.188H177.538V361.462Z" fill="#965F8E"/>
<path d="M177.538 354.734H170.812V361.461H177.538V354.734Z" fill="#52364F"/>
<path d="M177.538 348.006H170.812V354.733H177.538V348.006Z" fill="#BF8AB8"/>
<path d="M177.538 341.28H170.812V348.007H177.538V341.28Z" fill="#965F8E"/>
<path d="M177.538 334.553H170.812V341.28H177.538V334.553Z" fill="#965F8E"/>
<path d="M177.538 327.826H170.812V334.553H177.538V327.826Z" fill="#965F8E"/>
<path d="M177.538 321.099H170.812V327.825H177.538V321.099Z" fill="#EDEFEF"/>
<path d="M177.538 314.373H170.812V321.1H177.538V314.373Z" fill="#EDEFEF"/>
<path d="M177.538 307.645H170.812V314.372H177.538V307.645Z" fill="#AEB8BA"/>
<path d="M177.538 300.904H170.812V307.645H177.538V300.904Z" fill="#794D72"/>
<path d="M177.538 294.177H170.812V300.904H177.538V294.177Z" fill="#794D72"/>
<path d="M177.538 287.452H170.812V294.179H177.538V287.452Z" fill="#29632D"/>
<path d="M177.538 280.724H170.812V287.451H177.538V280.724Z" fill="#57995E"/>
<path d="M177.538 274H170.812V280.727H177.538V274Z" fill="#794D72"/>
<path d="M184.264 388.367H177.537V395.094H184.264V388.367Z" fill="#965F8E"/>
<path d="M184.264 381.639H177.537V388.366H184.264V381.639Z" fill="#965F8E"/>
<path d="M184.264 374.915H177.537V381.641H184.264V374.915Z" fill="#BF8AB8"/>
<path d="M184.264 368.185H177.537V374.912H184.264V368.185Z" fill="#52364F"/>
<path d="M184.264 361.462H177.537V368.188H184.264V361.462Z" fill="#965F8E"/>
<path d="M184.264 354.734H177.537V361.461H184.264V354.734Z" fill="#52364F"/>
<path d="M184.264 348.006H177.537V354.733H184.264V348.006Z" fill="#BF8AB8"/>
<path d="M184.264 341.28H177.537V348.007H184.264V341.28Z" fill="#965F8E"/>
<path d="M184.264 334.553H177.537V341.28H184.264V334.553Z" fill="#965F8E"/>
<path d="M184.264 327.826H177.537V334.553H184.264V327.826Z" fill="#965F8E"/>
<path d="M184.264 321.099H177.537V327.825H184.264V321.099Z" fill="#EDEFEF"/>
<path d="M184.264 314.373H177.537V321.1H184.264V314.373Z" fill="#EDEFEF"/>
<path d="M184.264 307.645H177.537V314.372H184.264V307.645Z" fill="#52364F"/>
<path d="M184.264 300.904H177.537V307.645H184.264V300.904Z" fill="#52364F"/>
<path d="M184.264 294.177H177.537V300.904H184.264V294.177Z" fill="#91588A"/>
<path d="M184.264 287.452H177.537V294.179H184.264V287.452Z" fill="#29632D"/>
<path d="M184.264 280.724H177.537V287.451H184.264V280.724Z" fill="#57995E"/>
<path d="M184.264 274H177.537V280.727H184.264V274Z" fill="#57995E"/>
<path d="M190.994 388.367H184.267V395.094H190.994V388.367Z" fill="#965F8E"/>
<path d="M190.994 381.639H184.267V388.366H190.994V381.639Z" fill="#965F8E"/>
<path d="M190.994 374.915H184.267V381.641H190.994V374.915Z" fill="#BF8AB8"/>
<path d="M190.994 368.185H184.267V374.912H190.994V368.185Z" fill="#52364F"/>
<path d="M190.994 361.462H184.267V368.188H190.994V361.462Z" fill="#965F8E"/>
<path d="M190.994 354.734H184.267V361.461H190.994V354.734Z" fill="#52364F"/>
<path d="M190.994 348.006H184.267V354.733H190.994V348.006Z" fill="#BF8AB8"/>
<path d="M190.994 341.28H184.267V348.007H190.994V341.28Z" fill="#965F8E"/>
<path d="M190.994 334.553H184.267V341.28H190.994V334.553Z" fill="#965F8E"/>
<path d="M190.994 327.826H184.267V334.553H190.994V327.826Z" fill="#965F8E"/>
<path d="M190.994 321.099H184.267V327.825H190.994V321.099Z" fill="#EDEFEF"/>
<path d="M190.994 314.373H184.267V321.1H190.994V314.373Z" fill="#AEB8BA"/>
<path d="M190.994 307.645H184.267V314.372H190.994V307.645Z" fill="#AEB8BA"/>
<path d="M190.994 300.904H184.267V307.645H190.994V300.904Z" fill="#732F3B"/>
<path d="M190.994 294.177H184.267V300.904H190.994V294.177Z" fill="#91588A"/>
<path d="M190.994 287.452H184.267V294.179H190.994V287.452Z" fill="#91588A"/>
<path d="M197.718 388.367H190.991V395.094H197.718V388.367Z" fill="#965F8E"/>
<path d="M197.718 381.639H190.991V388.366H197.718V381.639Z" fill="#965F8E"/>
<path d="M197.718 374.915H190.991V381.641H197.718V374.915Z" fill="#BF8AB8"/>
<path d="M197.718 368.185H190.991V374.912H197.718V368.185Z" fill="#52364F"/>
<path d="M197.718 361.462H190.991V368.188H197.718V361.462Z" fill="#965F8E"/>
<path d="M197.718 354.734H190.991V361.461H197.718V354.734Z" fill="#52364F"/>
<path d="M197.718 348.006H190.991V354.733H197.718V348.006Z" fill="#BF8AB8"/>
<path d="M197.718 341.28H190.991V348.007H197.718V341.28Z" fill="#965F8E"/>
<path d="M197.718 334.553H190.991V341.28H197.718V334.553Z" fill="#965F8E"/>
<path d="M197.718 327.826H190.991V334.553H197.718V327.826Z" fill="#965F8E"/>
<path d="M197.718 321.099H190.991V327.825H197.718V321.099Z" fill="#EDEFEF"/>
<path d="M197.718 314.373H190.991V321.1H197.718V314.373Z" fill="#EDEFEF"/>
<path d="M197.718 307.645H190.991V314.372H197.718V307.645Z" fill="#AEB8BA"/>
<path d="M197.718 300.904H190.991V307.645H197.718V300.904Z" fill="#732F3B"/>
<path d="M197.718 294.177H190.991V300.904H197.718V294.177Z" fill="#732F3B"/>
<path d="M197.718 287.452H190.991V294.179H197.718V287.452Z" fill="#91588A"/>
<path d="M204.445 388.367H197.719V395.094H204.445V388.367Z" fill="#965F8E"/>
<path d="M204.445 381.639H197.719V388.366H204.445V381.639Z" fill="#965F8E"/>
<path d="M204.445 374.915H197.719V381.641H204.445V374.915Z" fill="#BF8AB8"/>
<path d="M204.445 368.185H197.719V374.912H204.445V368.185Z" fill="#52364F"/>
<path d="M204.445 361.462H197.719V368.188H204.445V361.462Z" fill="#965F8E"/>
<path d="M204.445 354.734H197.719V361.461H204.445V354.734Z" fill="#52364F"/>
<path d="M204.445 348.006H197.719V354.733H204.445V348.006Z" fill="#BF8AB8"/>
<path d="M204.445 341.28H197.719V348.007H204.445V341.28Z" fill="#965F8E"/>
<path d="M204.445 334.553H197.719V341.28H204.445V334.553Z" fill="#965F8E"/>
<path d="M204.445 327.826H197.719V334.553H204.445V327.826Z" fill="#965F8E"/>
<path d="M204.445 321.099H197.719V327.825H204.445V321.099Z" fill="#EDEFEF"/>
<path d="M204.445 314.373H197.719V321.1H204.445V314.373Z" fill="#EDEFEF"/>
<path d="M204.445 307.645H197.719V314.372H204.445V307.645Z" fill="#AEB8BA"/>
<path d="M204.445 300.904H197.719V307.645H204.445V300.904Z" fill="#732F3B"/>
<path d="M204.445 294.177H197.719V300.904H204.445V294.177Z" fill="#732F3B"/>
<path d="M204.445 287.452H197.719V294.179H204.445V287.452Z" fill="#732F3B"/>
<path d="M211.173 388.367H204.447V395.094H211.173V388.367Z" fill="#965F8E"/>
<path d="M211.173 381.639H204.447V388.366H211.173V381.639Z" fill="#965F8E"/>
<path d="M211.173 374.915H204.447V381.641H211.173V374.915Z" fill="#BF8AB8"/>
<path d="M211.173 368.185H204.447V374.912H211.173V368.185Z" fill="#52364F"/>
<path d="M211.173 361.462H204.447V368.188H211.173V361.462Z" fill="#965F8E"/>
<path d="M211.173 354.734H204.447V361.461H211.173V354.734Z" fill="#52364F"/>
<path d="M211.173 348.006H204.447V354.733H211.173V348.006Z" fill="#BF8AB8"/>
<path d="M211.173 341.28H204.447V348.007H211.173V341.28Z" fill="#965F8E"/>
<path d="M211.173 334.553H204.447V341.28H211.173V334.553Z" fill="#965F8E"/>
<path d="M211.173 327.826H204.447V334.553H211.173V327.826Z" fill="#965F8E"/>
<path d="M211.173 321.099H204.447V327.825H211.173V321.099Z" fill="#EDEFEF"/>
<path d="M211.173 314.373H204.447V321.1H211.173V314.373Z" fill="#EDEFEF"/>
<path d="M211.173 307.645H204.447V314.372H211.173V307.645Z" fill="#732F3B"/>
<path d="M211.173 300.904H204.447V307.645H211.173V300.904Z" fill="#732F3B"/>
<path d="M217.899 388.367H211.172V395.094H217.899V388.367Z" fill="#965F8E"/>
<path d="M217.899 381.639H211.172V388.366H217.899V381.639Z" fill="#965F8E"/>
<path d="M217.899 374.915H211.172V381.641H217.899V374.915Z" fill="#BF8AB8"/>
<path d="M217.899 368.185H211.172V374.912H217.899V368.185Z" fill="#52364F"/>
<path d="M217.899 361.462H211.172V368.188H217.899V361.462Z" fill="#965F8E"/>
<path d="M217.899 354.734H211.172V361.461H217.899V354.734Z" fill="#52364F"/>
<path d="M217.899 348.006H211.172V354.733H217.899V348.006Z" fill="#BF8AB8"/>
<path d="M217.899 341.28H211.172V348.007H217.899V341.28Z" fill="#965F8E"/>
<path d="M217.899 334.553H211.172V341.28H217.899V334.553Z" fill="#965F8E"/>
<path d="M217.899 327.826H211.172V334.553H217.899V327.826Z" fill="#965F8E"/>
<path d="M217.899 321.099H211.172V327.825H217.899V321.099Z" fill="#EDEFEF"/>
<path d="M217.899 314.373H211.172V321.1H217.899V314.373Z" fill="#AEB8BA"/>
<path d="M217.899 307.645H211.172V314.372H217.899V307.645Z" fill="#AEB8BA"/>
<path d="M224.641 388.367H217.9V395.094H224.641V388.367Z" fill="#965F8E"/>
<path d="M224.641 381.639H217.9V388.366H224.641V381.639Z" fill="#965F8E"/>
<path d="M224.641 374.915H217.9V381.641H224.641V374.915Z" fill="#BF8AB8"/>
<path d="M224.641 368.185H217.9V374.912H224.641V368.185Z" fill="#52364F"/>
<path d="M224.641 361.462H217.9V368.188H224.641V361.462Z" fill="#965F8E"/>
<path d="M224.641 354.734H217.9V361.461H224.641V354.734Z" fill="#52364F"/>
<path d="M224.641 348.006H217.9V354.733H224.641V348.006Z" fill="#BF8AB8"/>
<path d="M224.641 341.28H217.9V348.007H224.641V341.28Z" fill="#965F8E"/>
<path d="M224.641 334.553H217.9V341.28H224.641V334.553Z" fill="#965F8E"/>
<path d="M224.641 327.826H217.9V334.553H224.641V327.826Z" fill="#965F8E"/>
<path d="M224.641 321.099H217.9V327.825H224.641V321.099Z" fill="#EDEFEF"/>
<path d="M224.641 314.373H217.9V321.1H224.641V314.373Z" fill="#EDEFEF"/>
<path d="M224.641 307.645H217.9V314.372H224.641V307.645Z" fill="#732F3B"/>
<path d="M231.366 388.367H224.64V395.094H231.366V388.367Z" fill="#965F8E"/>
<path d="M231.366 381.639H224.64V388.366H231.366V381.639Z" fill="#965F8E"/>
<path d="M231.366 374.915H224.64V381.641H231.366V374.915Z" fill="#BF8AB8"/>
<path d="M231.366 368.185H224.64V374.912H231.366V368.185Z" fill="#52364F"/>
<path d="M231.366 361.462H224.64V368.188H231.366V361.462Z" fill="#965F8E"/>
<path d="M231.366 354.734H224.64V361.461H231.366V354.734Z" fill="#52364F"/>
<path d="M231.366 348.006H224.64V354.733H231.366V348.006Z" fill="#BF8AB8"/>
<path d="M231.366 341.28H224.64V348.007H231.366V341.28Z" fill="#965F8E"/>
<path d="M231.366 334.553H224.64V341.28H231.366V334.553Z" fill="#965F8E"/>
<path d="M231.366 327.826H224.64V334.553H231.366V327.826Z" fill="#965F8E"/>
<path d="M231.366 321.099H224.64V327.825H231.366V321.099Z" fill="#EDEFEF"/>
<path d="M231.366 314.373H224.64V321.1H231.366V314.373Z" fill="#EDEFEF"/>
<path d="M231.366 307.645H224.64V314.372H231.366V307.645Z" fill="#AEB8BA"/>
<path d="M238.092 388.367H231.365V395.094H238.092V388.367Z" fill="#965F8E"/>
<path d="M238.092 381.639H231.365V388.366H238.092V381.639Z" fill="#965F8E"/>
<path d="M238.092 374.915H231.365V381.641H238.092V374.915Z" fill="#BF8AB8"/>
<path d="M238.092 368.185H231.365V374.912H238.092V368.185Z" fill="#52364F"/>
<path d="M238.092 361.462H231.365V368.188H238.092V361.462Z" fill="#965F8E"/>
<path d="M238.092 354.734H231.365V361.461H238.092V354.734Z" fill="#52364F"/>
<path d="M238.092 348.006H231.365V354.733H238.092V348.006Z" fill="#BF8AB8"/>
<path d="M238.092 341.28H231.365V348.007H238.092V341.28Z" fill="#965F8E"/>
<path d="M238.092 334.553H231.365V341.28H238.092V334.553Z" fill="#965F8E"/>
<path d="M238.092 327.826H231.365V334.553H238.092V327.826Z" fill="#965F8E"/>
<path d="M238.092 321.099H231.365V327.825H238.092V321.099Z" fill="#EDEFEF"/>
<path d="M238.092 314.373H231.365V321.1H238.092V314.373Z" fill="#EDEFEF"/>
<path d="M244.82 388.367H238.093V395.094H244.82V388.367Z" fill="#965F8E"/>
<path d="M244.82 381.639H238.093V388.366H244.82V381.639Z" fill="#965F8E"/>
<path d="M244.82 374.915H238.093V381.641H244.82V374.915Z" fill="#BF8AB8"/>
<path d="M244.82 368.185H238.093V374.912H244.82V368.185Z" fill="#52364F"/>
<path d="M244.82 361.462H238.093V368.188H244.82V361.462Z" fill="#965F8E"/>
<path d="M244.82 354.734H238.093V361.461H244.82V354.734Z" fill="#52364F"/>
<path d="M244.82 348.006H238.093V354.733H244.82V348.006Z" fill="#BF8AB8"/>
<path d="M244.82 341.28H238.093V348.007H244.82V341.28Z" fill="#965F8E"/>
<path d="M244.82 334.553H238.093V341.28H244.82V334.553Z" fill="#965F8E"/>
<path d="M244.82 327.826H238.093V334.553H244.82V327.826Z" fill="#965F8E"/>
<path d="M244.82 321.099H238.093V327.825H244.82V321.099Z" fill="#EDEFEF"/>
<path d="M244.82 314.373H238.093V321.1H244.82V314.373Z" fill="#AEB8BA"/>
<path d="M244.82 307.645H238.093V314.372H244.82V307.645Z" fill="#AEB8BA"/>
<path d="M251.548 388.367H244.821V395.094H251.548V388.367Z" fill="#965F8E"/>
<path d="M251.548 381.639H244.821V388.366H251.548V381.639Z" fill="#965F8E"/>
<path d="M251.548 374.915H244.821V381.641H251.548V374.915Z" fill="#BF8AB8"/>
<path d="M251.548 368.185H244.821V374.912H251.548V368.185Z" fill="#52364F"/>
<path d="M251.548 361.462H244.821V368.188H251.548V361.462Z" fill="#965F8E"/>
<path d="M251.548 354.734H244.821V361.461H251.548V354.734Z" fill="#52364F"/>
<path d="M251.548 348.006H244.821V354.733H251.548V348.006Z" fill="#BF8AB8"/>
<path d="M251.548 341.28H244.821V348.007H251.548V341.28Z" fill="#965F8E"/>
<path d="M251.548 334.553H244.821V341.28H251.548V334.553Z" fill="#965F8E"/>
<path d="M251.548 327.826H244.821V334.553H251.548V327.826Z" fill="#965F8E"/>
<path d="M251.548 321.099H244.821V327.825H251.548V321.099Z" fill="#EDEFEF"/>
<path d="M251.548 314.373H244.821V321.1H251.548V314.373Z" fill="#EDEFEF"/>
<path d="M251.548 307.645H244.821V314.372H251.548V307.645Z" fill="#732F3B"/>
<path d="M258.271 388.367H251.545V395.094H258.271V388.367Z" fill="#965F8E"/>
<path d="M258.271 381.639H251.545V388.366H258.271V381.639Z" fill="#965F8E"/>
<path d="M258.271 374.915H251.545V381.641H258.271V374.915Z" fill="#BF8AB8"/>
<path d="M258.271 368.185H251.545V374.912H258.271V368.185Z" fill="#52364F"/>
<path d="M258.271 361.462H251.545V368.188H258.271V361.462Z" fill="#965F8E"/>
<path d="M258.271 354.734H251.545V361.461H258.271V354.734Z" fill="#52364F"/>
<path d="M258.271 348.006H251.545V354.733H258.271V348.006Z" fill="#BF8AB8"/>
<path d="M258.271 341.28H251.545V348.007H258.271V341.28Z" fill="#965F8E"/>
<path d="M258.271 334.553H251.545V341.28H258.271V334.553Z" fill="#965F8E"/>
<path d="M258.271 327.826H251.545V334.553H258.271V327.826Z" fill="#965F8E"/>
<path d="M258.271 321.099H251.545V327.825H258.271V321.099Z" fill="#EDEFEF"/>
<path d="M258.271 314.373H251.545V321.1H258.271V314.373Z" fill="#EDEFEF"/>
<path d="M258.271 307.645H251.545V314.372H258.271V307.645Z" fill="#AEB8BA"/>
<path d="M265.002 321.099H258.275V327.825H265.002V321.099Z" fill="#EDEFEF"/>
<path d="M265.002 314.373H258.275V321.1H265.002V314.373Z" fill="#EDEFEF"/>
</g>
<g opacity="0.12">
<path d="M117.675 407.601H111.076V414.201H117.675V407.601Z" fill="#52A0B2"/>
<path d="M117.675 400.999H111.076V407.599H117.675V400.999Z" fill="#52A0B2"/>
<path d="M117.675 394.401H111.076V401H117.675V394.401Z" fill="#52A0B2"/>
<path d="M124.275 407.601H117.675V414.201H124.275V407.601Z" fill="#52A0B2"/>
<path d="M124.275 400.999H117.675V407.599H124.275V400.999Z" fill="#EDEFEF"/>
<path d="M124.275 394.401H117.675V401H124.275V394.401Z" fill="#EDEFEF"/>
<path d="M130.874 407.601H124.274V414.201H130.874V407.601Z" fill="#52A0B2"/>
<path d="M130.874 400.999H124.274V407.599H130.874V400.999Z" fill="#EDEFEF"/>
<path d="M130.874 394.401H124.274V401H130.874V394.401Z" fill="#EDEFEF"/>
<path d="M137.473 407.601H130.873V414.201H137.473V407.601Z" fill="#AEB8BA"/>
<path d="M137.473 400.999H130.873V407.599H137.473V400.999Z" fill="#EDEFEF"/>
<path d="M137.473 394.401H130.873V401H137.473V394.401Z" fill="#EDEFEF"/>
<path d="M144.072 407.601H137.473V414.201H144.072V407.601Z" fill="#AEB8BA"/>
<path d="M144.072 400.999H137.473V407.599H144.072V400.999Z" fill="#EDEFEF"/>
<path d="M144.072 394.401H137.473V401H144.072V394.401Z" fill="#EDEFEF"/>
<path d="M150.674 407.601H144.074V414.201H150.674V407.601Z" fill="#AEB8BA"/>
<path d="M150.674 400.999H144.074V407.599H150.674V400.999Z" fill="#EDEFEF"/>
<path d="M150.674 394.401H144.074V401H150.674V394.401Z" fill="#EDEFEF"/>
<path d="M157.271 407.601H150.671V414.201H157.271V407.601Z" fill="#AEB8BA"/>
<path d="M157.271 400.999H150.671V407.599H157.271V400.999Z" fill="#EDEFEF"/>
<path d="M157.271 394.401H150.671V401H157.271V394.401Z" fill="#EDEFEF"/>
<path d="M163.872 407.601H157.273V414.201H163.872V407.601Z" fill="#AEB8BA"/>
<path d="M163.872 400.999H157.273V407.599H163.872V400.999Z" fill="#EDEFEF"/>
<path d="M163.872 394.401H157.273V401H163.872V394.401Z" fill="#EDEFEF"/>
<path d="M170.474 407.601H163.874V414.201H170.474V407.601Z" fill="#AEB8BA"/>
<path d="M170.474 400.999H163.874V407.599H170.474V400.999Z" fill="#EDEFEF"/>
<path d="M170.474 394.401H163.874V401H170.474V394.401Z" fill="#EDEFEF"/>
<path d="M177.073 407.601H170.474V414.201H177.073V407.601Z" fill="#AEB8BA"/>
<path d="M177.073 400.999H170.474V407.599H177.073V400.999Z" fill="#EDEFEF"/>
<path d="M177.073 394.401H170.474V401H177.073V394.401Z" fill="#EDEFEF"/>
<path d="M183.673 407.601H177.073V414.201H183.673V407.601Z" fill="#AEB8BA"/>
<path d="M183.673 400.999H177.073V407.599H183.673V400.999Z" fill="#EDEFEF"/>
<path d="M183.673 394.401H177.073V401H183.673V394.401Z" fill="#EDEFEF"/>
<path d="M190.27 407.601H183.67V414.201H190.27V407.601Z" fill="#AEB8BA"/>
<path d="M190.27 400.999H183.67V407.599H190.27V400.999Z" fill="#EDEFEF"/>
<path d="M190.27 394.401H183.67V401H190.27V394.401Z" fill="#EDEFEF"/>
<path d="M196.871 407.601H190.271V414.201H196.871V407.601Z" fill="#AEB8BA"/>
<path d="M196.871 400.999H190.271V407.599H196.871V400.999Z" fill="#EDEFEF"/>
<path d="M196.871 394.401H190.271V401H196.871V394.401Z" fill="#EDEFEF"/>
<path d="M203.473 407.601H196.873V414.201H203.473V407.601Z" fill="#AEB8BA"/>
<path d="M203.473 400.999H196.873V407.599H203.473V400.999Z" fill="#EDEFEF"/>
<path d="M203.473 394.401H196.873V401H203.473V394.401Z" fill="#EDEFEF"/>
<path d="M210.072 407.601H203.472V414.201H210.072V407.601Z" fill="#AEB8BA"/>
<path d="M210.072 400.999H203.472V407.599H210.072V400.999Z" fill="#EDEFEF"/>
<path d="M210.072 394.401H203.472V401H210.072V394.401Z" fill="#EDEFEF"/>
<path d="M216.674 407.601H210.074V414.201H216.674V407.601Z" fill="#AEB8BA"/>
<path d="M216.674 400.999H210.074V407.599H216.674V400.999Z" fill="#EDEFEF"/>
<path d="M216.674 394.401H210.074V401H216.674V394.401Z" fill="#EDEFEF"/>
<path d="M223.273 407.601H216.673V414.201H223.273V407.601Z" fill="#AEB8BA"/>
<path d="M223.273 400.999H216.673V407.599H223.273V400.999Z" fill="#EDEFEF"/>
<path d="M223.273 394.401H216.673V401H223.273V394.401Z" fill="#EDEFEF"/>
<path d="M229.885 407.601H223.272V414.201H229.885V407.601Z" fill="#AEB8BA"/>
<path d="M229.885 400.999H223.272V407.599H229.885V400.999Z" fill="#EDEFEF"/>
<path d="M229.885 394.401H223.272V401H229.885V394.401Z" fill="#EDEFEF"/>
<path d="M236.483 407.601H229.883V414.201H236.483V407.601Z" fill="#AEB8BA"/>
<path d="M236.483 400.999H229.883V407.599H236.483V400.999Z" fill="#EDEFEF"/>
<path d="M236.483 394.401H229.883V401H236.483V394.401Z" fill="#EDEFEF"/>
<path d="M243.082 407.601H236.482V414.201H243.082V407.601Z" fill="#AEB8BA"/>
<path d="M243.082 400.999H236.482V407.599H243.082V400.999Z" fill="#EDEFEF"/>
<path d="M243.082 394.401H236.482V401H243.082V394.401Z" fill="#EDEFEF"/>
<path d="M249.684 407.601H243.084V414.201H249.684V407.601Z" fill="#AEB8BA"/>
<path d="M249.684 400.999H243.084V407.599H249.684V400.999Z" fill="#EDEFEF"/>
<path d="M249.684 394.401H243.084V401H249.684V394.401Z" fill="#EDEFEF"/>
<path d="M256.283 407.601H249.683V414.201H256.283V407.601Z" fill="#AEB8BA"/>
<path d="M256.283 400.999H249.683V407.599H256.283V400.999Z" fill="#EDEFEF"/>
<path d="M256.283 394.401H249.683V401H256.283V394.401Z" fill="#EDEFEF"/>
<path d="M262.882 407.601H256.282V414.201H262.882V407.601Z" fill="#AEB8BA"/>
<path d="M262.882 400.999H256.282V407.599H262.882V400.999Z" fill="#EDEFEF"/>
<path d="M262.882 394.401H256.282V401H262.882V394.401Z" fill="#EDEFEF"/>
<path d="M269.481 407.601H262.882V414.201H269.481V407.601Z" fill="#AEB8BA"/>
<path d="M269.481 400.999H262.882V407.599H269.481V400.999Z" fill="#EDEFEF"/>
<path d="M269.481 394.401H262.882V401H269.481V394.401Z" fill="#EDEFEF"/>
<path d="M276.078 400.999H269.479V407.599H276.078V400.999Z" fill="#EDEFEF"/>
<path d="M276.078 394.401H269.479V401H276.078V394.401Z" fill="#EDEFEF"/>
<path d="M282.682 400.999H276.083V407.599H282.682V400.999Z" fill="#EDEFEF"/>
<path d="M282.682 394.401H276.083V401H282.682V394.401Z" fill="#EDEFEF"/>
</g>
</g>
<path d="M16.1074 6.86673V26.9339H23.1521V12.6002H34.8933V4H18.4556V6.86673H16.1074Z" fill="#332231"/>
<path d="M388.893 5.86673V25.9339H381.848V11.6002H370.107V3H386.544V5.86673H388.893Z" fill="#332231"/>
<path d="M388.892 450.067V430H381.848V444.334H370.106V452.934H386.544V450.067H388.892Z" fill="#332231"/>
<path d="M17.1072 450.067V430H24.1519V444.334H35.8931V452.934H19.4554V450.067H17.1072Z" fill="#332231"/>
</g>
<defs>
<filter id="filter0_di_2421_2" x="0.107422" y="0" width="404.785" height="481.934" filterUnits="userSpaceOnUse" color-interpolation-filters="sRGB">
<feFlood flood-opacity="0" result="BackgroundImageFix"/>
<feColorMatrix in="SourceAlpha" type="matrix" values="0 0 0 0 0 0 0 0 0 0 0 0 0 0 0 0 0 0 127 0" result="hardAlpha"/>
<feOffset dy="13"/>
<feGaussianBlur stdDeviation="8"/>
<feComposite in2="hardAlpha" operator="out"/>
<feColorMatrix type="matrix" values="0 0 0 0 1 0 0 0 0 0.551888 0 0 0 0 0.970126 0 0 0 0.08 0"/>
<feBlend mode="normal" in2="BackgroundImageFix" result="effect1_dropShadow_2421_2"/>
<feBlend mode="normal" in="SourceGraphic" in2="effect1_dropShadow_2421_2" result="shape"/>
<feColorMatrix in="SourceAlpha" type="matrix" values="0 0 0 0 0 0 0 0 0 0 0 0 0 0 0 0 0 0 127 0" result="hardAlpha"/>
<feOffset dy="-3"/>
<feComposite in2="hardAlpha" operator="arithmetic" k2="-1" k3="1"/>
<feColorMatrix type="matrix" values="0 0 0 0 1 0 0 0 0 0.551888 0 0 0 0 0.970126 0 0 0 1 0"/>
<feBlend mode="normal" in2="shape" result="effect2_innerShadow_2421_2"/>
</filter>
<clipPath id="clip0_2421_2">
<rect width="178" height="134" fill="white" transform="translate(110 274)"/>
</clipPath>
</defs>
</svg>
